<svg width="64" height="58" viewBox="0 0 64 58" fill="none" xmlns="http://www.w3.org/2000/svg">
<path d="M60.8 9.79995H46.9333V5.53328C46.9297 2.58901 44.5443 0.203597 41.6 0.199951H22.4C19.4557 0.203597 17.0703 2.58901 17.0667 5.53328V9.79995H3.2C1.43281 9.79995 0 11.2328 0 13V36.7437C0.00677083 38.0968 0.859375 39.3005 2.13333 39.7552V54.5999C2.13333 56.3671 3.56615 57.7999 5.33333 57.7999H58.6667C60.4339 57.7999 61.8667 56.3671 61.8667 54.5999V39.7562C63.1406 39.301 63.9938 38.0968 64 36.7437V13C64 11.2328 62.5672 9.79995 60.8 9.79995ZM19.2 5.53328C19.2 3.7661 20.6328 2.33328 22.4 2.33328H41.6C43.3672 2.33328 44.8 3.7661 44.8 5.53328V9.79995H42.6667V5.53328C42.6667 4.94422 42.1891 4.46662 41.6 4.46662H22.4C21.8109 4.46662 21.3333 4.94422 21.3333 5.53328V9.79995H19.2V5.53328ZM40.5333 9.79995H23.4667V6.59995H40.5333V9.79995ZM59.7333 54.5999C59.7333 55.189 59.2557 55.6666 58.6667 55.6666H5.33333C4.74427 55.6666 4.26667 55.189 4.26667 54.5999V40.1218L27.7333 43.3583V46.0666C27.7333 47.8338 29.1661 49.2666 30.9333 49.2666H33.0667C34.8339 49.2666 36.2667 47.8338 36.2667 46.0666V43.3583L59.7333 40.1218V54.5999ZM34.1333 46.0666C34.1333 46.6557 33.6557 47.1333 33.0667 47.1333H30.9333C30.3443 47.1333 29.8667 46.6557 29.8667 46.0666V39.6666C29.8667 39.0776 30.3443 38.5999 30.9333 38.5999H33.0667C33.6557 38.5999 34.1333 39.0776 34.1333 39.6666V46.0666ZM61.8667 36.7437C61.8672 37.2755 61.476 37.7265 60.9495 37.801L60.6536 37.8416L36.2667 41.2046V39.6666C36.2667 37.8994 34.8339 36.4666 33.0667 36.4666H30.9333C29.1661 36.4666 27.7333 37.8994 27.7333 39.6666V41.2046L3.05156 37.801C2.525 37.727 2.13281 37.276 2.13333 36.7437V13C2.13333 12.4109 2.61094 11.9333 3.2 11.9333H60.8C61.3891 11.9333 61.8667 12.4109 61.8667 13V36.7437Z" fill="#93C0DD"/>
</svg>