<svg width="54" height="64" viewBox="0 0 54 64" fill="none" xmlns="http://www.w3.org/2000/svg">
<path d="M53.6535 15.9328C53.6481 15.8393 53.6299 15.7471 53.5991 15.6587C53.5873 15.6245 53.5788 15.5915 53.5639 15.5584C53.512 15.4424 53.4397 15.3365 53.3505 15.2459L38.4172 0.312533C38.3265 0.223333 38.2207 0.151067 38.1047 0.0992C38.0716 0.0842667 38.0385 0.0757333 38.0055 0.064C37.9163 0.0333333 37.8233 0.0146667 37.7292 0.00853333C37.7111 0.0117333 37.6908 0 37.6673 0H7.80065C7.21158 0 6.73398 0.4776 6.73398 1.06667V4.26667H1.40065C0.811584 4.26667 0.333984 4.74427 0.333984 5.33333V62.9333C0.333984 63.5224 0.811584 64 1.40065 64H46.2007C46.7897 64 47.2673 63.5224 47.2673 62.9333V57.6H52.6007C53.1897 57.6 53.6673 57.1224 53.6673 56.5333V16C53.6673 15.9765 53.6556 15.9563 53.6535 15.9328ZM38.734 3.6416L50.0257 14.9333H38.734V3.6416ZM45.134 61.8667H2.46732V6.4H6.73398V56.5333C6.73398 57.1224 7.21158 57.6 7.80065 57.6H45.134V61.8667ZM51.534 55.4667H8.86732V2.13333H36.6007V16C36.6007 16.5891 37.0783 17.0667 37.6673 17.0667H51.534V55.4667Z" fill="#93C0DD"/>
</svg>
