<svg width="28" height="30" viewBox="0 0 28 30" fill="none" xmlns="http://www.w3.org/2000/svg">
<path fill-rule="evenodd" clip-rule="evenodd" d="M10.0003 0.666641H18.0003C19.4731 0.666641 20.667 1.86055 20.667 3.33331V4.66664H24.667C26.1398 4.66664 27.3337 5.86055 27.3337 7.33331V9.99998C27.3337 11.4727 26.1398 12.6666 24.667 12.6666H24.5601L23.3336 27.3333C23.3336 28.8061 22.1397 30 20.667 30H7.33362C5.86086 30 4.66695 28.8061 4.67156 27.444L3.44011 12.6666H3.33366C1.8609 12.6666 0.666992 11.4727 0.666992 9.99998V7.33331C0.666992 5.86055 1.8609 4.66664 3.33366 4.66664H7.33366V3.33331C7.33366 1.86055 8.52757 0.666641 10.0003 0.666641ZM6.11546 12.6666H21.8844L20.6714 27.2226L20.6668 27.3333H7.33347L6.11546 12.6666ZM3.33366 9.99997V7.33331L7.33366 7.33331H20.667L24.667 7.33331V9.99997H3.33366ZM18.0003 3.3333V4.66664H10.0003V3.3333H18.0003Z" fill="#93C0DD"/>
</svg>
