<svg width="96" height="96" viewBox="0 0 96 96" fill="none" xmlns="http://www.w3.org/2000/svg">
<path d="M13.5 73.776V54H10.5V73.776C8.7585 74.397 7.5 76.047 7.5 78C7.5 80.481 9.519 82.5 12 82.5C14.481 82.5 16.5 80.481 16.5 78C16.5 76.047 15.2415 74.397 13.5 73.776ZM12 79.5C11.172 79.5 10.5 78.828 10.5 78C10.5 77.172 11.172 76.5 12 76.5C12.828 76.5 13.5 77.172 13.5 78C13.5 78.828 12.828 79.5 12 79.5Z" fill="#93C0DD"/>
<path d="M21 54C18.519 54 16.5 56.019 16.5 58.5C16.5 60.453 17.7585 62.103 19.5 62.724V82.5H22.5V62.724C24.2415 62.103 25.5 60.453 25.5 58.5C25.5 56.019 23.481 54 21 54ZM21 60C20.172 60 19.5 59.328 19.5 58.5C19.5 57.672 20.172 57 21 57C21.828 57 22.5 57.672 22.5 58.5C22.5 59.328 21.828 60 21 60Z" fill="#93C0DD"/>
<path d="M79.5 73.776V54H76.5V73.776C74.7585 74.397 73.5 76.047 73.5 78C73.5 80.481 75.519 82.5 78 82.5C80.481 82.5 82.5 80.481 82.5 78C82.5 76.047 81.2415 74.397 79.5 73.776ZM78 79.5C77.172 79.5 76.5 78.828 76.5 78C76.5 77.172 77.172 76.5 78 76.5C78.828 76.5 79.5 77.172 79.5 78C79.5 78.828 78.828 79.5 78 79.5Z" fill="#93C0DD"/>
<path d="M87 54C84.519 54 82.5 56.019 82.5 58.5C82.5 60.453 83.7585 62.103 85.5 62.724V82.5H88.5V62.724C90.2415 62.103 91.5 60.453 91.5 58.5C91.5 56.019 89.481 54 87 54ZM87 60C86.172 60 85.5 59.328 85.5 58.5C85.5 57.672 86.172 57 87 57C87.828 57 88.5 57.672 88.5 58.5C88.5 59.328 87.828 60 87 60Z" fill="#93C0DD"/>
<path d="M66 49.5C65.4075 49.5 64.845 49.6215 64.326 49.83C63.8085 47.9175 62.0745 46.5 60 46.5C58.8435 46.5 57.798 46.9515 57 47.67C56.202 46.95 55.1565 46.5 54 46.5C53.472 46.5 52.971 46.608 52.5 46.776V33.8685C58.737 32.1015 63.3525 26.7825 64.305 20.43L70.647 23.919C66.9285 26.6505 64.5 31.0425 64.5 36C64.5 44.271 71.229 51 79.5 51C87.771 51 94.5 44.271 94.5 36C94.5 27.729 87.771 21 79.5 21C77.4435 21 75.4815 21.417 73.695 22.17L64.4535 17.0865C63.9765 8.415 56.79 1.5 48 1.5C39.21 1.5 32.0235 8.415 31.5465 17.088L22.305 22.17C20.5185 21.417 18.558 21 16.5 21C8.229 21 1.5 27.729 1.5 36C1.5 44.271 8.229 51 16.5 51C24.771 51 31.5 44.271 31.5 36C31.5 31.041 29.0715 26.6505 25.3515 23.9175L31.695 20.4285C32.6475 26.787 37.26 32.103 43.5015 33.87V61.5195C43.5015 62.202 43.344 62.886 43.0425 63.498L41.784 57.207C40.8825 52.704 36.8955 49.4355 32.304 49.4355C30.2085 49.4355 28.5015 51.1425 28.5015 53.238C28.5015 53.991 28.722 54.72 29.1405 55.347L30.684 57.663C31.2555 58.5195 31.6245 59.5125 31.752 60.534L32.79 68.8335C32.961 70.218 33.399 71.5335 34.0455 72.654L39 82.845V85.5H36V94.5H69V85.5H66V82.9995L68.4 79.8C69.7545 77.9955 70.5 75.759 70.5 73.5V54C70.5 51.519 68.481 49.5 66 49.5ZM79.5 48C76.8015 48 74.3175 47.094 72.312 45.5865C73.9995 43.3485 76.6545 42 79.5 42C82.3455 42 85.0005 43.3485 86.688 45.5865C84.6825 47.094 82.1985 48 79.5 48ZM75 34.5C75 32.019 77.019 30 79.5 30C81.981 30 84 32.019 84 34.5C84 36.981 81.981 39 79.5 39C77.019 39 75 36.981 75 34.5ZM79.5 24C86.1165 24 91.5 29.3835 91.5 36C91.5 38.8395 90.504 41.4495 88.848 43.506C87.66 42.027 86.154 40.8615 84.4515 40.089C86.0025 38.7135 87 36.7305 87 34.5C87 30.3645 83.6355 27 79.5 27C75.3645 27 72 30.3645 72 34.5C72 36.7305 72.9975 38.7135 74.5485 40.089C72.846 40.863 71.34 42.027 70.152 43.506C68.496 41.4495 67.5 38.8395 67.5 36C67.5 29.3835 72.8835 24 79.5 24ZM16.5 48C13.8015 48 11.3175 47.094 9.312 45.5865C10.9995 43.3485 13.6545 42 16.5 42C19.3455 42 22.0005 43.3485 23.688 45.5865C21.6825 47.094 19.1985 48 16.5 48ZM12 34.5C12 32.019 14.019 30 16.5 30C18.981 30 21 32.019 21 34.5C21 36.981 18.981 39 16.5 39C14.019 39 12 36.981 12 34.5ZM28.5 36C28.5 38.8395 27.504 41.4495 25.848 43.506C24.66 42.027 23.154 40.8615 21.4515 40.089C23.0025 38.7135 24 36.7305 24 34.5C24 30.3645 20.6355 27 16.5 27C12.3645 27 9 30.3645 9 34.5C9 36.7305 9.9975 38.7135 11.5485 40.089C9.846 40.863 8.34 42.027 7.152 43.506C5.496 41.4495 4.5 38.8395 4.5 36C4.5 29.3835 9.8835 24 16.5 24C23.1165 24 28.5 29.3835 28.5 36ZM34.5 18C34.5 10.5555 40.5555 4.5 48 4.5C55.4445 4.5 61.5 10.5555 61.5 18C61.5 21.0255 60.4725 23.8605 58.737 26.148C57.5025 23.6595 55.458 21.7005 52.971 20.5725C54.51 19.1985 55.5 17.2215 55.5 15C55.5 10.8645 52.1355 7.5 48 7.5C43.8645 7.5 40.5 10.8645 40.5 15C40.5 17.2215 41.49 19.1985 43.029 20.5725C40.5405 21.7005 38.496 23.661 37.2615 26.1495C35.526 23.8635 34.5 21.0285 34.5 18ZM52.5 15C52.5 17.481 50.481 19.5 48 19.5C45.519 19.5 43.5 17.481 43.5 15C43.5 12.519 45.519 10.5 48 10.5C50.481 10.5 52.5 12.519 52.5 15ZM39.543 28.5045C40.8 24.936 44.142 22.5 48 22.5C51.855 22.5 55.197 24.936 56.457 28.5015C55.143 29.565 53.628 30.3945 51.96 30.906C51.2025 29.4825 49.722 28.5 48 28.5C46.278 28.5 44.7975 29.4825 44.0415 30.906C42.372 30.3945 40.857 29.5665 39.543 28.5045ZM66 91.5H39V88.5H66V91.5ZM67.5 73.5C67.5 75.1125 66.9675 76.7115 66 78L63 82.0005V85.5H42V82.155L36.696 71.2545C36.201 70.392 35.889 69.4545 35.766 68.466L34.728 60.165C34.5435 58.6845 34.0095 57.2445 33.18 56.0025L31.635 53.685C31.5465 53.553 31.5 53.3985 31.5 53.238C31.5 52.7955 31.86 52.437 32.3025 52.437C35.469 52.437 38.2185 54.6915 38.841 57.7965L40.77 67.437H44.427L45.708 64.8735C46.2255 63.8385 46.5 62.6775 46.5 61.521V33C46.5 32.172 47.172 31.5 48 31.5C48.828 31.5 49.5 32.172 49.5 33V51V57H52.5V51C52.5 50.172 53.172 49.5 54 49.5C54.828 49.5 55.5 50.172 55.5 51V57H58.5V51C58.5 50.172 59.172 49.5 60 49.5C60.828 49.5 61.5 50.172 61.5 51V54V57H64.5V54C64.5 53.172 65.172 52.5 66 52.5C66.828 52.5 67.5 53.172 67.5 54V73.5Z" fill="#93C0DD"/>
</svg>
