<svg width="64" height="64" viewBox="0 0 64 64" fill="none" xmlns="http://www.w3.org/2000/svg">
<path d="M54.625 0H9.375C4.20605 0 0 4.20605 0 9.375V54.625C0 59.7939 4.20605 64 9.375 64H54.625C59.7939 64 64 59.7939 64 54.625V9.375C64 4.20605 59.7939 0 54.625 0ZM32.125 48.75C22.8198 48.75 15.25 41.1802 15.25 31.875C15.25 22.5698 22.8198 15 32.125 15C41.4302 15 49 22.5698 49 31.875C49 41.1802 41.4302 48.75 32.125 48.75ZM50.875 18.75C47.7734 18.75 45.25 16.2266 45.25 13.125C45.25 10.0234 47.7734 7.5 50.875 7.5C53.9766 7.5 56.5 10.0234 56.5 13.125C56.5 16.2266 53.9766 18.75 50.875 18.75Z" fill="#C5CACD"/>
<path d="M50.875 11.25C49.8403 11.25 49 12.0903 49 13.125C49 14.1597 49.8403 15 50.875 15C51.9097 15 52.75 14.1597 52.75 13.125C52.75 12.0903 51.9097 11.25 50.875 11.25Z" fill="#C5CACD"/>
<path d="M32.125 18.75C24.8887 18.75 19 24.6387 19 31.875C19 39.1113 24.8887 45 32.125 45C39.3613 45 45.25 39.1113 45.25 31.875C45.25 24.6387 39.3613 18.75 32.125 18.75Z" fill="#C5CACD"/>
</svg>
