<svg width="32" height="32" viewBox="0 0 32 32" fill="none" xmlns="http://www.w3.org/2000/svg">
<path d="M27.3125 0H4.6875C2.10303 0 0 2.10303 0 4.6875V27.3125C0 29.897 2.10303 32 4.6875 32H27.3125C29.897 32 32 29.897 32 27.3125V4.6875C32 2.10303 29.897 0 27.3125 0ZM16.0625 24.375C11.4099 24.375 7.625 20.5901 7.625 15.9375C7.625 11.2849 11.4099 7.5 16.0625 7.5C20.7151 7.5 24.5 11.2849 24.5 15.9375C24.5 20.5901 20.7151 24.375 16.0625 24.375ZM25.4375 9.375C23.8867 9.375 22.625 8.11328 22.625 6.5625C22.625 5.01172 23.8867 3.75 25.4375 3.75C26.9883 3.75 28.25 5.01172 28.25 6.5625C28.25 8.11328 26.9883 9.375 25.4375 9.375Z" fill="white"/>
<path d="M25.4375 5.625C24.9202 5.625 24.5 6.04517 24.5 6.5625C24.5 7.07983 24.9202 7.5 25.4375 7.5C25.9548 7.5 26.375 7.07983 26.375 6.5625C26.375 6.04517 25.9548 5.625 25.4375 5.625Z" fill="white"/>
<path d="M16.0625 9.375C12.4443 9.375 9.5 12.3193 9.5 15.9375C9.5 19.5557 12.4443 22.5 16.0625 22.5C19.6807 22.5 22.625 19.5557 22.625 15.9375C22.625 12.3193 19.6807 9.375 16.0625 9.375Z" fill="white"/>
</svg>
