<svg width="216" height="216" viewBox="0 0 216 216" fill="none" xmlns="http://www.w3.org/2000/svg">
<g opacity="0.15">
<path d="M145.969 134.578C143.639 134.578 141.75 136.467 141.75 138.797V167.906C141.75 179.537 132.287 189 120.656 189H75.1072C72.7781 189 70.8902 190.887 70.8885 193.216L70.8826 201.604L60.8133 191.535C60.1615 190.038 58.6697 189 56.9443 189H29.5312C17.9002 189 8.4375 179.537 8.4375 167.906V102.938C8.4375 91.3064 17.9002 81.8438 29.5312 81.8438H72.1406C74.4702 81.8438 76.3594 79.955 76.3594 77.625C76.3594 75.295 74.4702 73.4062 72.1406 73.4062H29.5312C13.2477 73.4062 0 86.654 0 102.938V167.906C0 184.19 13.2477 197.438 29.5312 197.438H54.7838L72.1107 214.764C72.9177 215.571 73.9965 216 75.0946 216C75.6375 216 76.1856 215.895 76.7066 215.679C78.2831 215.027 79.3112 213.49 79.3125 211.784L79.3226 197.438H120.656C136.94 197.438 150.188 184.19 150.188 167.906V138.797C150.188 136.467 148.298 134.578 145.969 134.578Z" fill="white"/>
<path d="M154.683 0H144.005C110.195 0 82.6875 27.5071 82.6875 61.3178C82.6875 95.1286 110.195 122.635 144.005 122.635H154.682C159.959 122.635 165.183 121.965 170.245 120.64L186.018 136.404C186.825 137.21 187.903 137.639 189.001 137.639C189.545 137.639 190.093 137.534 190.615 137.317C192.191 136.664 193.219 135.126 193.219 133.42V109.012C199.897 103.604 205.444 96.7726 209.337 89.1409C213.759 80.4731 216 71.1121 216 61.3178C216 27.5071 188.493 0 154.683 0ZM186.462 103.585C185.404 104.382 184.781 105.63 184.781 106.955V123.239L174.458 112.921C173.654 112.119 172.577 111.686 171.475 111.686C171.061 111.686 170.644 111.748 170.236 111.873C165.215 113.416 159.982 114.198 154.683 114.198H144.005C114.847 114.198 91.125 90.4761 91.125 61.3178C91.125 32.1595 114.847 8.4375 144.005 8.4375H154.683C183.841 8.4375 207.562 32.1595 207.562 61.3178C207.562 78.0794 199.872 93.4854 186.462 103.585Z" fill="white"/>
<path d="M168.342 46.162C167.734 37.33 160.614 30.2104 151.782 29.6017C146.775 29.2578 141.997 30.9466 138.34 34.3608C134.733 37.7278 132.664 42.4874 132.664 47.4196C132.664 49.7496 134.553 51.6383 136.883 51.6383C139.212 51.6383 141.102 49.7496 141.102 47.4196C141.102 44.779 142.166 42.3317 144.097 40.5291C146.027 38.7281 148.548 37.8367 151.202 38.0198C155.855 38.3404 159.605 42.0904 159.925 46.7425C160.249 51.4409 157.167 55.593 152.596 56.6156C148.893 57.4442 146.307 60.6622 146.307 64.4409V74.5765C146.307 76.9065 148.196 78.7952 150.525 78.7952C152.855 78.7952 154.744 76.9065 154.744 74.5765V64.778C163.245 62.7243 168.948 54.9458 168.342 46.162Z" fill="white"/>
<path d="M153.508 88.2816C152.723 87.4969 151.635 87.0455 150.525 87.0455C149.416 87.0455 148.327 87.4969 147.543 88.2816C146.758 89.0662 146.307 90.1547 146.307 91.2642C146.307 92.378 146.758 93.4664 147.543 94.2511C148.327 95.0358 149.416 95.483 150.525 95.483C151.635 95.483 152.723 95.0358 153.508 94.2511C154.293 93.4622 154.744 92.378 154.744 91.2642C154.744 90.1547 154.292 89.0662 153.508 88.2816Z" fill="white"/>
<path d="M116.016 130.781H27C24.6704 130.781 22.7812 132.67 22.7812 135C22.7812 137.33 24.6704 139.219 27 139.219H116.016C118.346 139.219 120.234 137.33 120.234 135C120.234 132.67 118.345 130.781 116.016 130.781Z" fill="white"/>
<path d="M118.998 155.642C118.214 154.858 117.125 154.406 116.016 154.406C114.906 154.406 113.818 154.858 113.033 155.642C112.248 156.427 111.797 157.515 111.797 158.625C111.797 159.735 112.248 160.823 113.033 161.608C113.818 162.392 114.906 162.844 116.016 162.844C117.125 162.844 118.214 162.392 118.998 161.608C119.783 160.823 120.234 159.739 120.234 158.625C120.234 157.515 119.783 156.427 118.998 155.642Z" fill="white"/>
<path d="M99.422 154.406H27C24.6704 154.406 22.7812 156.295 22.7812 158.625C22.7812 160.955 24.6704 162.844 27 162.844H99.422C101.752 162.844 103.641 160.955 103.641 158.625C103.641 156.295 101.752 154.406 99.422 154.406Z" fill="white"/>
<path d="M88.5938 107.156H27C24.6704 107.156 22.7812 109.045 22.7812 111.375C22.7812 113.705 24.6704 115.594 27 115.594H88.5938C90.9238 115.594 92.8125 113.705 92.8125 111.375C92.8125 109.045 90.9233 107.156 88.5938 107.156Z" fill="white"/>
</g>
</svg>
