<svg width="186" height="186" viewBox="0 0 186 186" fill="none" xmlns="http://www.w3.org/2000/svg">
<g opacity="0.15" clip-path="url(#clip0)">
<path d="M185.242 79.3259L154.111 38.8853C152.959 37.3896 150.857 37.0206 149.263 38.0338L129.164 50.8168H102.949C102.61 50.8168 102.272 50.8892 101.946 50.9842L81.6207 56.8351L60.5305 51.0666L40.0378 38.0338C38.4711 37.0376 36.4078 37.3754 35.2428 38.82L0.809079 81.4715C-0.428348 83.0041 -0.224002 85.242 1.26886 86.5262L19.3166 102.058L35.5081 123.878C30.7727 128.922 30.8649 136.879 35.7919 141.807C37.9759 143.99 40.753 145.223 43.6096 145.51C43.5102 146.157 43.4592 146.814 43.4592 147.481C43.4592 150.924 44.8002 154.16 47.2339 156.594C49.669 159.029 52.9059 160.37 56.3485 160.37C56.3954 160.37 56.4408 160.367 56.4862 160.366C56.4848 160.454 56.4805 160.541 56.4805 160.629C56.4805 164.071 57.8215 167.308 60.2552 169.743C62.6904 172.177 65.9273 173.518 69.3699 173.518C70.0496 173.518 70.7223 173.463 71.3821 173.36C71.6617 176.227 72.8977 179.017 75.0888 181.208C77.6005 183.721 80.9013 184.977 84.202 184.977C87.5028 184.977 90.8035 183.721 93.3167 181.208L95.2878 179.237L96.1151 179.904C98.607 182.318 101.842 183.524 105.078 183.524C108.379 183.524 111.679 182.268 114.191 179.755C116.755 177.19 118.011 173.806 117.959 170.439C121.325 170.49 124.711 169.235 127.275 166.672C129.836 164.11 131.092 160.728 131.043 157.362C134.549 157.417 137.875 156.07 140.357 153.589C142.922 151.024 144.177 147.64 144.125 144.272C147.494 144.323 150.877 143.069 153.441 140.505C157.818 136.128 158.381 129.364 155.136 124.37L166.958 99.61L184.732 84.3153C186.2 83.0509 186.425 80.8599 185.242 79.3259ZM38.8713 45.9366L53.6069 55.3067L21.5516 94.3595L8.70619 83.3035L38.8713 45.9366ZM40.9502 128.736L45.3976 124.289C45.5324 124.154 45.6743 124.027 45.8191 123.907C46.689 123.198 47.7419 122.775 48.8573 122.674C48.8885 122.671 48.9211 122.671 48.9524 122.67C49.1113 122.657 49.2702 122.649 49.4306 122.65C50.9547 122.671 52.3709 123.294 53.421 124.403C55.4815 126.581 55.3708 130.14 53.1741 132.337L48.8615 136.649C46.6804 138.83 43.1314 138.83 40.9502 136.649C38.7691 134.467 38.7691 130.918 40.9502 128.736ZM52.3922 151.436C51.335 150.38 50.7532 148.975 50.7532 147.481C50.7532 145.987 51.335 144.582 52.3922 143.525L61.0159 134.901C62.6677 133.249 65.2645 132.796 67.3761 133.802C69.553 134.84 70.7776 137.203 70.4583 139.579C70.288 140.848 69.6977 142.043 68.7924 142.95L60.3049 151.436C59.2477 152.493 57.8428 153.075 56.3485 153.075C54.8543 153.075 53.4494 152.493 52.3922 151.436ZM65.4136 164.583C64.3563 163.528 63.7745 162.123 63.7745 160.629C63.7745 159.134 64.3563 157.729 65.4136 156.672L74.0358 148.048C75.8025 146.283 78.6364 145.903 80.7991 147.162C82.7744 148.311 83.8089 150.567 83.4698 152.815C83.2839 154.051 82.6964 155.213 81.8123 156.097L73.3263 164.583C72.2691 165.641 70.8642 166.222 69.3699 166.222C67.8756 166.222 66.4708 165.641 65.4136 164.583ZM80.2456 176.05C78.0645 173.868 78.0645 170.319 80.2456 168.138L84.693 163.691C84.8278 163.556 84.9683 163.43 85.113 163.311C85.1173 163.308 85.1201 163.305 85.123 163.302C85.8467 162.715 86.6967 162.321 87.6035 162.15C87.6248 162.147 87.6461 162.144 87.6674 162.141C87.8235 162.113 87.9824 162.09 88.1413 162.076C88.2052 162.07 88.2691 162.07 88.3343 162.066C88.4649 162.059 88.594 162.05 88.726 162.052C90.2487 162.073 91.6663 162.695 92.7164 163.804C92.8456 163.941 92.9662 164.083 93.0769 164.229C94.7542 166.421 94.5286 169.678 92.4468 171.761L88.157 176.051C85.9758 178.232 82.4268 178.231 80.2456 176.05ZM148.283 135.346C146.102 137.529 142.553 137.528 140.372 135.346C140.292 135.267 140.208 135.193 140.123 135.124L116.672 111.425C115.254 109.993 112.945 109.982 111.513 111.4C110.082 112.816 110.07 115.125 111.486 116.557L135.192 140.509C135.195 140.512 135.198 140.515 135.2 140.518C137.382 142.699 137.382 146.249 135.2 148.43C134.143 149.487 132.738 150.069 131.244 150.069C129.748 150.069 128.344 149.487 127.288 148.43L111.43 132.408C110.013 130.976 107.705 130.964 106.273 132.381C104.841 133.798 104.83 136.107 106.246 137.539L121.861 153.316C121.941 153.415 122.026 153.51 122.117 153.601C124.298 155.782 124.298 159.333 122.117 161.514C119.934 163.695 116.384 163.694 114.203 161.513L105.548 152.767C104.13 151.335 101.821 151.322 100.389 152.74C98.9575 154.156 98.9461 156.465 100.362 157.897L108.776 166.397C108.855 166.496 108.941 166.593 109.033 166.684C111.214 168.865 111.214 172.415 109.033 174.596C106.852 176.779 103.303 176.778 101.122 174.596C100.87 174.345 100.575 174.152 100.294 173.937C100.056 173.755 99.9934 173.629 100.113 173.339C100.233 173.045 100.413 172.78 100.534 172.485C100.667 172.156 100.775 171.816 100.88 171.476C101.439 169.674 101.604 167.735 101.353 165.865C100.87 162.276 98.8965 159.038 95.9051 156.989C94.2887 155.883 92.4184 155.158 90.48 154.886C91.4194 150.742 90.2912 146.249 87.3566 143.148C84.9413 140.597 81.6789 139.165 78.1695 139.117C78.0418 139.115 77.9141 139.115 77.785 139.117C77.863 135.768 76.6455 132.44 74.3366 130.001C71.92 127.449 68.6575 126.017 65.1496 125.969C64.1066 125.955 63.0536 126.066 62.0376 126.3C61.6034 123.279 60.0807 120.483 57.7747 118.484C55.4829 116.5 52.6008 115.399 49.5313 115.356C46.3001 115.309 43.1257 116.501 40.726 118.668L26.6276 99.671L60.356 58.5805L71.1054 61.5208L57.0666 86.2935C55.3694 89.2891 54.9408 92.7659 55.859 96.0836C56.7771 99.4028 58.9313 102.164 61.9269 103.862C62.1142 103.968 62.303 104.069 62.4945 104.165C62.5087 104.172 62.5229 104.179 62.5385 104.187C63.0423 104.438 63.5602 104.653 64.0853 104.835C66.5304 105.682 69.1712 105.774 71.7185 105.071C75.0362 104.152 77.7978 101.997 79.495 99.0027L88.6181 82.9033L104.908 84.0585L148.284 127.434C150.464 129.616 150.464 133.165 148.283 135.346ZM149.794 118.628L109.102 77.938C109.026 77.86 108.945 77.7862 108.861 77.7166C108.275 77.2285 107.549 76.9333 106.782 76.8794L86.8372 75.4646C85.4579 75.3695 84.0871 76.1032 83.4059 77.3051L73.1489 95.4067C72.4124 96.7066 71.2133 97.6418 69.7729 98.0405C68.334 98.4393 66.8241 98.252 65.5228 97.5155C64.223 96.779 63.2878 95.5799 62.889 94.1395C62.4903 92.6992 62.6762 91.1893 63.4141 89.8894L77.1067 65.7241L82.6552 64.1277C82.6921 64.1163 82.7276 64.1021 82.7645 64.0908L103.473 58.1108H128.494L159.73 97.8192L149.794 118.628ZM164.508 92.0946L135.622 55.3536L150.365 45.9778L177.357 81.0387L164.508 92.0946Z" fill="white"/>
<path d="M112.684 43.9684C113.618 43.9684 114.552 43.6122 115.264 42.8998L140.177 17.9867C141.602 16.5619 141.602 14.2531 140.177 12.8284C138.752 11.4036 136.444 11.4036 135.019 12.8284L110.106 37.7415C108.681 39.1662 108.681 41.4751 110.106 42.8998C110.818 43.6122 111.752 43.9684 112.684 43.9684Z" fill="white"/>
<path d="M70.7356 42.8998C71.448 43.6122 72.3817 43.9684 73.3155 43.9684C74.2478 43.9684 75.1816 43.6122 75.8939 42.8998C77.3187 41.4751 77.3187 39.1662 75.8939 37.7415L50.9808 12.8284C49.556 11.4036 47.2472 11.4036 45.8225 12.8284C44.3977 14.2531 44.3977 16.5619 45.8225 17.9867L70.7356 42.8998Z" fill="white"/>
<path d="M92.9995 43.9684C95.0132 43.9684 96.6465 42.335 96.6465 40.3214V19.7037C96.6465 17.6901 95.0132 16.0567 92.9995 16.0567C90.9859 16.0567 89.3525 17.6901 89.3525 19.7037V40.3214C89.3525 42.335 90.9859 43.9684 92.9995 43.9684Z" fill="white"/>
<path d="M89.634 6.48512C90.213 7.88858 91.6562 8.80956 93.1789 8.73009C94.6831 8.65204 96.0042 7.63599 96.4697 6.20415C96.9366 4.76096 96.4285 3.11626 95.2195 2.1967C93.9863 1.25728 92.2664 1.20477 90.9765 2.05763C89.5376 3.00841 88.9799 4.90144 89.634 6.48512Z" fill="white"/>
</g>
<defs>
<clipPath id="clip0">
<rect width="186" height="186" fill="white"/>
</clipPath>
</defs>
</svg>
