<svg width="172" height="172" viewBox="0 0 172 172" fill="none" xmlns="http://www.w3.org/2000/svg">
<g opacity="0.15" clip-path="url(#clip0)">
<path d="M83.2249 127.132V144.17H88.7733V127.132C93.5455 125.891 97.0959 121.586 97.0959 116.428C97.0959 110.309 92.1191 105.331 85.9991 105.331C79.8791 105.331 74.9023 110.309 74.9023 116.428C74.9023 121.586 78.4527 125.891 83.2249 127.132ZM85.9991 110.88C89.0591 110.88 91.5475 113.369 91.5475 116.428C91.5475 119.488 89.0591 121.976 85.9991 121.976C82.9391 121.976 80.4507 119.488 80.4507 116.428C80.4507 113.369 82.9391 110.88 85.9991 110.88Z" fill="white"/>
<path d="M147.032 55.0775V22.1055H112.882L92.6944 2.61706C89.079 -0.872354 82.9183 -0.872354 79.3002 2.61706L59.1182 22.1055H24.9677V55.0775L0 79.1851V171.912H172V79.1851L147.032 55.0775ZM55.8442 120.48C56.3549 124.568 57.4345 128.488 59.0437 132.141L5.54839 164.24V85.66L55.8442 120.48ZM30.5161 49.8474H141.484V96.1933L116.516 113.479V103.944L115.407 103.112C115.235 102.985 113.662 101.836 110.968 100.41V85.9119C110.968 72.1439 99.7653 60.9442 86 60.9442C72.2347 60.9442 61.0323 72.1439 61.0323 85.9119V100.41C58.3353 101.836 56.7626 102.985 56.5933 103.112L55.4839 103.944V113.479L30.5161 96.1933V49.8474ZM61.0323 115.208V106.816C64.1288 104.875 73.4416 99.787 86 99.787C98.5638 99.787 107.878 104.878 110.968 106.816V115.208C110.968 131.018 100.97 144.734 86 149.588C71.0305 144.731 61.0323 131.018 61.0323 115.208ZM105.419 97.8892C103.749 97.2431 101.893 96.624 99.871 96.0795V85.9119C99.871 78.264 93.648 72.041 86 72.041C78.352 72.041 72.129 78.264 72.129 85.9119V96.0822C70.1066 96.6267 68.2508 97.2458 66.5806 97.8919V85.9119C66.5806 75.2066 75.292 66.4926 86 66.4926C96.708 66.4926 105.419 75.2066 105.419 85.9119V97.8892ZM94.3226 94.9064C91.7285 94.496 88.9571 94.2345 86 94.2345C83.0429 94.2345 80.2715 94.496 77.6774 94.9064V85.9119C77.6774 81.324 81.412 77.5894 86 77.5894C90.588 77.5894 94.3226 81.324 94.3226 85.9119V94.9064ZM61.6174 137.069C66.8272 145.569 75.059 152.111 85.2035 155.15L86 155.39L86.7965 155.15C96.941 152.108 105.173 145.567 110.383 137.067L159.211 166.364H12.7887L61.6174 137.069ZM112.956 132.141C114.566 128.488 115.645 124.568 116.156 120.477L166.452 85.66V164.24L112.956 132.141ZM164.865 80.0087L147.032 92.3544V62.7959L164.865 80.0087ZM83.1567 6.60903C84.6928 5.13117 87.3099 5.13117 88.8406 6.60903L104.892 22.1055H67.1076L83.1567 6.60903ZM141.484 27.6539V44.299H30.5161V27.6539H141.484ZM24.9677 92.3544L7.13461 80.0087L24.9677 62.7959V92.3544Z" fill="white"/>
<path d="M36.0645 33.2023H41.6128V38.7507H36.0645V33.2023Z" fill="white"/>
<path d="M47.1621 33.2023H52.7105V38.7507H47.1621V33.2023Z" fill="white"/>
<path d="M58.2578 33.2023H63.8062V38.7507H58.2578V33.2023Z" fill="white"/>
<path d="M36.0645 55.3958H55.4838V60.9442H36.0645V55.3958Z" fill="white"/>
<path d="M36.0645 66.4926H55.4838V72.041H36.0645V66.4926Z" fill="white"/>
<path d="M36.0645 77.5894H55.4838V83.1377H36.0645V77.5894Z" fill="white"/>
<path d="M116.516 55.3958H135.935V60.9442H116.516V55.3958Z" fill="white"/>
<path d="M116.516 66.4926H135.935V72.041H116.516V66.4926Z" fill="white"/>
<path d="M116.516 77.5894H135.935V83.1377H116.516V77.5894Z" fill="white"/>
</g>
<defs>
<clipPath id="clip0">
<rect width="172" height="172" fill="white"/>
</clipPath>
</defs>
</svg>
