<svg width="156" height="156" viewBox="0 0 156 156" fill="none" xmlns="http://www.w3.org/2000/svg">
<g opacity="0.2">
<path d="M52.0002 111.8H46.8002C45.3643 111.8 44.2002 112.964 44.2002 114.4C44.2002 115.836 45.3643 117 46.8002 117H52.0002C53.436 117 54.6002 115.836 54.6002 114.4C54.6002 112.964 53.436 111.8 52.0002 111.8Z" fill="white"/>
<path d="M124.8 111.8H62.3998C60.964 111.8 59.7998 112.964 59.7998 114.4C59.7998 115.836 60.964 117 62.3998 117H124.8C126.236 117 127.4 115.836 127.4 114.4C127.4 112.964 126.236 111.8 124.8 111.8Z" fill="white"/>
<path d="M52.0002 96.2H46.8002C45.3643 96.2 44.2002 97.3642 44.2002 98.8C44.2002 100.236 45.3643 101.4 46.8002 101.4H52.0002C53.436 101.4 54.6002 100.236 54.6002 98.8C54.6002 97.3642 53.436 96.2 52.0002 96.2Z" fill="white"/>
<path d="M124.8 96.2H62.3998C60.964 96.2 59.7998 97.3642 59.7998 98.8C59.7998 100.236 60.964 101.4 62.3998 101.4H124.8C126.236 101.4 127.4 100.236 127.4 98.8C127.4 97.3642 126.236 96.2 124.8 96.2Z" fill="white"/>
<path d="M52.0002 80.6H46.8002C45.3643 80.6 44.2002 81.7642 44.2002 83.2C44.2002 84.6359 45.3643 85.8 46.8002 85.8H52.0002C53.436 85.8 54.6002 84.6359 54.6002 83.2C54.6002 81.7642 53.436 80.6 52.0002 80.6Z" fill="white"/>
<path d="M124.8 80.6H62.3998C60.964 80.6 59.7998 81.7642 59.7998 83.2C59.7998 84.6359 60.964 85.8 62.3998 85.8H124.8C126.236 85.8 127.4 84.6359 127.4 83.2C127.4 81.7642 126.236 80.6 124.8 80.6Z" fill="white"/>
<path d="M52.0002 65H46.8002C45.3643 65 44.2002 66.1641 44.2002 67.6C44.2002 69.0358 45.3643 70.2 46.8002 70.2H52.0002C53.436 70.2 54.6002 69.0358 54.6002 67.6C54.6002 66.1641 53.436 65 52.0002 65Z" fill="white"/>
<path d="M124.8 65H62.3998C60.964 65 59.7998 66.1641 59.7998 67.6C59.7998 69.0358 60.964 70.2 62.3998 70.2H124.8C126.236 70.2 127.4 69.0358 127.4 67.6C127.4 66.1641 126.236 65 124.8 65Z" fill="white"/>
<path d="M52.0002 49.4H46.8002C45.3643 49.4 44.2002 50.5641 44.2002 52C44.2002 53.4358 45.3643 54.6 46.8002 54.6H52.0002C53.436 54.6 54.6002 53.4358 54.6002 52C54.6002 50.5641 53.436 49.4 52.0002 49.4Z" fill="white"/>
<path d="M124.8 49.4H62.3998C60.964 49.4 59.7998 50.5641 59.7998 52C59.7998 53.4358 60.964 54.6 62.3998 54.6H124.8C126.236 54.6 127.4 53.4358 127.4 52C127.4 50.5641 126.236 49.4 124.8 49.4Z" fill="white"/>
<path d="M142.966 38.8362C142.953 38.6084 142.909 38.3835 142.834 38.168C142.805 38.0848 142.784 38.0042 142.748 37.9236C142.621 37.6409 142.445 37.3828 142.228 37.1618L105.828 0.7618C105.607 0.544375 105.349 0.368225 105.066 0.2418C104.985 0.2054 104.905 0.1846 104.824 0.156C104.607 0.08125 104.38 0.03575 104.151 0.0208C104.107 0.0286 104.057 0 104 0H31.2C29.7641 0 28.6 1.16415 28.6 2.6V10.4H15.6C14.1641 10.4 13 11.5641 13 13V153.4C13 154.836 14.1641 156 15.6 156H124.8C126.236 156 127.4 154.836 127.4 153.4V140.4H140.4C141.836 140.4 143 139.236 143 137.8V39C143 38.9428 142.971 38.8934 142.966 38.8362ZM106.6 8.8764L134.124 36.4H106.6V8.8764ZM122.2 150.8H18.2V15.6H28.6V137.8C28.6 139.236 29.7641 140.4 31.2 140.4H122.2V150.8ZM137.8 135.2H33.8V5.2H101.4V39C101.4 40.4358 102.564 41.6 104 41.6H137.8V135.2Z" fill="white"/>
<path d="M62.4002 23.4H46.8002C45.3643 23.4 44.2002 24.5641 44.2002 26V41.6C44.2002 43.0358 45.3643 44.2 46.8002 44.2H62.4002C63.836 44.2 65.0002 43.0358 65.0002 41.6V26C65.0002 24.5641 63.836 23.4 62.4002 23.4ZM59.8002 39H49.4002V28.6H59.8002V39Z" fill="white"/>
</g>
</svg>
