<svg width="172" height="172" viewBox="0 0 172 172" fill="none" xmlns="http://www.w3.org/2000/svg">
<g opacity="0.15" clip-path="url(#clip0)">
<path d="M160.88 152.776C160.578 151.413 159.229 150.553 157.866 150.855C156.503 151.157 155.644 152.507 155.946 153.869C156.115 154.631 156.2 155.417 156.2 156.207C156.2 162.128 151.382 166.946 145.461 166.946C144.065 166.946 142.934 168.078 142.934 169.473C142.934 170.869 144.065 172 145.461 172C154.169 172 161.254 164.915 161.254 156.207C161.254 155.05 161.128 153.896 160.88 152.776Z" fill="white"/>
<path d="M85.9998 67.3434C94.9569 67.3434 102.244 60.0562 102.244 51.0995C102.244 42.1424 94.9565 34.8552 85.9998 34.8552C77.043 34.8552 69.7559 42.1424 69.7559 51.0995C69.7559 60.0562 77.0427 67.3434 85.9998 67.3434ZM85.9998 39.9087C92.1699 39.9087 97.1899 44.9286 97.1899 51.0991C97.1899 57.2693 92.1699 62.2895 85.9998 62.2895C79.8296 62.2895 74.8097 57.2696 74.8097 51.0991C74.8097 44.929 79.8296 39.9087 85.9998 39.9087Z" fill="white"/>
<path d="M43.286 98.7035H59.5333V108.65C57.051 109.34 55.2222 111.615 55.2222 114.314V119.609C55.2222 122.854 57.8617 125.493 61.1065 125.493H65.5029L68.4739 132.344C69.4468 134.588 71.6553 136.038 74.1009 136.038H97.8994C100.345 136.038 102.554 134.588 103.527 132.344L106.498 125.493H110.894C114.139 125.493 116.778 122.854 116.778 119.609V114.313C116.778 111.614 114.949 109.34 112.467 108.649V98.7031H128.716C131.793 98.7031 134.297 96.1994 134.297 93.1219V81.7007C134.297 80.364 133.816 79.0703 132.944 78.0578L112.467 54.2902V43.863C112.467 31.5519 108.161 19.6947 100.342 10.4755C97.8187 7.50015 95.0173 4.71355 92.0161 2.19435C88.5301 -0.732336 83.4702 -0.732336 79.9841 2.19435C76.9829 4.71355 74.1815 7.50015 71.6583 10.4755C63.8397 19.6947 59.5336 31.5519 59.5336 43.863V54.2915L52.3483 62.6315C51.4375 63.6887 51.5561 65.2844 52.6133 66.1951C53.6705 67.1059 55.2662 66.9873 56.1773 65.9301L59.5336 62.0342V93.649H43.2863C42.9954 93.649 42.7589 93.4125 42.7589 93.1215V81.7003C42.7589 81.574 42.8043 81.4517 42.8866 81.3563L48.5706 74.7589C49.4817 73.7017 49.3628 72.106 48.3056 71.1949C47.2484 70.2842 45.6527 70.4028 44.7416 71.46L39.0576 78.0574C38.1855 79.0699 37.7051 80.3636 37.7051 81.7003V93.1215C37.7051 96.2001 40.2085 98.7035 43.286 98.7035ZM129.115 81.357C129.197 81.4528 129.243 81.575 129.243 81.7013V93.1226C129.243 93.4135 129.006 93.65 128.715 93.65H112.468L112.467 62.0339L129.115 81.357ZM98.8897 130.334C98.7187 130.729 98.3297 130.984 97.899 130.984H74.1005C73.6702 130.984 73.2812 130.728 73.1099 130.333L71.0109 125.493H100.989L98.8897 130.334ZM75.5125 13.7449C77.8523 10.9862 80.4501 8.40248 83.2337 6.06536C84.8368 4.71993 87.1638 4.71959 88.7669 6.06536C91.5505 8.40214 94.1483 10.9858 96.4881 13.7449C97.1731 14.5525 99.9781 18.45 100.027 18.5263H71.9734C72.0439 18.4168 74.6515 14.7601 75.5125 13.7449ZM64.5871 55.2123V43.8637C64.5871 36.7596 66.1744 29.8276 69.1579 23.5801H102.842C105.825 29.8276 107.413 36.7593 107.413 43.8637V108.43H64.5871L64.5885 55.2295C64.5885 55.2234 64.5875 55.218 64.5871 55.2123ZM60.276 114.314C60.276 113.856 60.6486 113.483 61.1065 113.483H62.037H110.893C111.351 113.483 111.724 113.856 111.724 114.314V119.609C111.724 120.067 111.351 120.44 110.893 120.44H61.1065C60.6486 120.44 60.276 120.067 60.276 119.609V114.314Z" fill="white"/>
<path d="M31.1324 125.278C32.5279 125.278 33.6593 124.146 33.6593 122.751V107.793C33.6593 106.397 32.5279 105.266 31.1324 105.266C29.7369 105.266 28.6055 106.397 28.6055 107.793V122.751C28.6055 124.146 29.7366 125.278 31.1324 125.278Z" fill="white"/>
<path d="M39.457 107.793V113.072C39.457 114.468 40.5885 115.599 41.9839 115.599C43.3794 115.599 44.5109 114.468 44.5109 113.072V107.793C44.5109 106.397 43.3794 105.266 41.9839 105.266C40.5885 105.266 39.457 106.397 39.457 107.793Z" fill="white"/>
<path d="M140.868 125.278C142.263 125.278 143.395 124.146 143.395 122.751V107.793C143.395 106.397 142.263 105.266 140.868 105.266C139.472 105.266 138.341 106.397 138.341 107.793V122.751C138.341 124.146 139.472 125.278 140.868 125.278Z" fill="white"/>
<path d="M127.489 107.793V113.072C127.489 114.468 128.621 115.599 130.016 115.599C131.412 115.599 132.543 114.468 132.543 113.072V107.793C132.543 106.397 131.412 105.266 130.016 105.266C128.62 105.266 127.489 106.397 127.489 107.793Z" fill="white"/>
<path d="M144.148 142.976C144.137 144.291 145.137 145.395 146.447 145.514C147.787 145.636 149.075 146.003 150.274 146.605C151.522 147.232 153.04 146.729 153.667 145.482C154.293 144.235 153.79 142.716 152.543 142.09C151.42 141.525 150.244 141.101 149.029 140.821C148.015 134.718 142.699 130.05 136.314 130.05C132.548 130.05 128.985 131.72 126.559 134.521C124.17 133.515 121.59 132.989 118.984 132.989C111.971 132.989 105.628 136.692 102.161 142.617C100.347 141.871 98.3768 141.463 96.3302 141.463C92.4794 141.463 88.7935 142.938 85.9995 145.501C83.2055 142.938 79.5192 141.463 75.6687 141.463C73.6225 141.463 71.6516 141.871 69.8382 142.617C66.3707 136.692 60.0282 132.989 53.0155 132.989C50.4093 132.989 47.8286 133.515 45.4401 134.521C43.0143 131.72 39.451 130.05 35.6848 130.05C29.3003 130.05 23.9851 134.716 22.9702 140.817C15.8688 142.434 10.7451 148.713 10.7451 156.207C10.7451 164.915 17.83 172 26.5389 172C27.9344 172 29.0658 170.869 29.0658 169.473C29.0658 168.078 27.9344 166.946 26.5389 166.946C20.617 166.946 15.799 162.128 15.799 156.207C15.799 150.616 19.9921 146.019 25.5526 145.514C26.8624 145.395 27.8618 144.291 27.8507 142.976L27.8494 142.92C27.8605 138.608 31.3713 135.104 35.6848 135.104C38.46 135.104 41.0554 136.597 42.4573 139.001C43.155 140.197 44.6849 140.609 45.8885 139.925C48.054 138.694 50.5184 138.043 53.0151 138.043C58.2574 138.043 62.9925 140.837 65.5463 145.297C64.1179 146.565 62.9098 148.108 62.0156 149.89C61.3897 151.138 61.8933 152.656 63.1406 153.282C63.5044 153.465 63.8911 153.551 64.2721 153.551C65.1976 153.551 66.0888 153.041 66.5326 152.158C67.3543 150.52 68.5677 149.18 70.024 148.215C70.0505 148.199 70.0781 148.185 70.1043 148.169C70.8786 147.664 71.7124 147.276 72.5808 146.995C73.5627 146.686 74.6001 146.517 75.6687 146.517C78.9203 146.517 82.0008 148.086 83.9217 150.714C84.0806 150.943 84.2778 151.151 84.5167 151.324C85.3884 151.954 86.6297 151.939 87.4823 151.323C87.7181 151.152 87.9137 150.947 88.0715 150.721C89.9918 148.089 93.075 146.517 96.3302 146.517C97.5453 146.517 98.7225 146.728 99.82 147.125C99.8193 147.128 99.8189 147.131 99.8183 147.134C100.543 147.398 101.24 147.742 101.895 148.168C101.921 148.185 101.948 148.198 101.974 148.214C103.431 149.179 104.645 150.52 105.466 152.157C105.91 153.041 106.801 153.551 107.727 153.551C108.108 153.551 108.495 153.464 108.858 153.282C110.106 152.656 110.609 151.137 109.983 149.89C109.089 148.108 107.881 146.565 106.453 145.296C109.007 140.837 113.741 138.043 118.984 138.043C121.481 138.043 123.945 138.693 126.11 139.924C127.314 140.609 128.844 140.196 129.542 139.001C130.944 136.597 133.539 135.104 136.314 135.104C140.625 135.104 144.133 138.603 144.15 142.91C144.149 142.934 144.148 142.961 144.148 142.976Z" fill="white"/>
<path d="M33.4936 156.802C32.5355 156.303 31.7481 155.539 31.2163 154.591C30.8488 153.935 30.6203 153.229 30.5384 152.491C30.3838 151.104 29.1348 150.105 27.7474 150.259C26.3603 150.414 25.3612 151.663 25.5158 153.05C25.6733 154.464 26.1084 155.814 26.8088 157.063C27.8233 158.872 29.3283 160.332 31.1619 161.285C31.5344 161.479 31.9332 161.571 32.3259 161.571C33.2383 161.571 34.1195 161.075 34.57 160.21C35.2133 158.971 34.7315 157.445 33.4936 156.802Z" fill="white"/>
<path d="M118.441 147.253C117.26 146.508 115.7 146.861 114.956 148.041C114.211 149.221 114.564 150.782 115.744 151.527C116.657 152.103 117.378 152.93 117.829 153.919C118.141 154.603 118.309 155.326 118.33 156.069C118.368 157.44 119.491 158.526 120.854 158.526C120.878 158.526 120.902 158.526 120.925 158.525C122.32 158.487 123.42 157.325 123.382 155.93C123.342 154.508 123.021 153.126 122.427 151.823C121.567 149.936 120.189 148.356 118.441 147.253Z" fill="white"/>
</g>
<defs>
<clipPath id="clip0">
<rect width="172" height="172" fill="white"/>
</clipPath>
</defs>
</svg>
