<svg width="162" height="216" viewBox="0 0 162 216" fill="none" xmlns="http://www.w3.org/2000/svg">
<path d="M143.549 129.646C143.529 129.638 143.508 129.629 143.488 129.621L101.006 113.169L101.001 107.096C108.123 102.324 112.823 94.2037 112.823 85.0049V77.3802C120.484 76.7992 126.057 70.5704 126.057 63.2715C126.057 58.5902 123.736 54.0322 119.439 51.3306V43.4507C119.439 41.7031 118.023 40.2863 116.275 40.2863C114.527 40.2863 113.11 41.7031 113.11 43.4507V49.1923C112.972 49.1792 112.833 49.1678 112.693 49.1581C112.16 45.8253 110.155 43.0777 107.444 41.4955C107.44 41.4934 107.436 41.4909 107.433 41.4887H107.432L101.571 38.08C98.2911 36.1725 94.2824 36.0387 90.8458 37.8226C72.4613 47.3674 47.5095 59.618 36.6432 42.0503C33.5804 37.099 32.9391 31.1132 34.8829 25.6273C37.4111 18.493 44.3653 11.2253 52.7633 11.1384C60.2773 11.0603 67.5218 9.91692 74.2962 7.73979C90.5551 2.51256 98.4519 13.2662 98.7696 13.7109C99.3615 14.5627 100.333 15.0695 101.368 15.0695C101.384 15.0695 101.4 15.0695 101.416 15.0691C107.848 14.9724 113.11 20.1469 113.11 26.5885V28.6837C113.11 30.4314 114.527 31.8482 116.275 31.8482C118.023 31.8482 119.439 30.4314 119.439 28.6837V26.5885C119.439 17.107 112.092 9.44606 102.903 8.78532C96.2043 1.25142 85.1524 -2.39781 72.3596 1.71427C66.191 3.6969 59.5757 4.73821 52.697 4.80952C42.562 4.91458 32.783 12.6059 28.9173 23.513C26.3288 30.8174 27.1832 38.7876 31.2607 45.3793C33.4724 48.9551 36.4761 51.8538 39.9853 53.9102C37.544 56.454 36.1171 59.7661 36.1171 63.2719C36.1171 70.5611 41.6784 76.7997 49.3516 77.3802V85.0049C49.3516 94.1189 53.9649 102.174 60.9773 106.963V113.037C54.7324 115.476 24.7668 127.179 18.5055 129.624C18.4878 129.631 18.47 129.638 18.4523 129.645C9.575 133.299 0.0205078 143.768 0.0205078 158.12V207.346C0.0205078 212.117 3.90222 215.999 8.6742 215.999H73.6169C75.365 215.999 76.7814 214.582 76.7814 212.835C76.7814 211.087 75.365 209.67 73.6169 209.67H31.7527C31.7527 206.449 31.7527 156.954 31.7527 154.888C31.7527 153.14 30.3363 151.723 28.5882 151.723C26.8402 151.723 25.4238 153.14 25.4238 154.888V168.616H6.34939V158.121C6.34939 145.922 15.0039 137.921 20.837 135.508L47.2593 125.189L63.2165 138.422C65.6463 140.438 69.2665 140.315 71.5503 137.977V164.08C71.5503 166.932 73.8705 169.252 76.7223 169.252H85.2692C88.121 169.252 90.4408 166.931 90.4408 164.08V137.965C92.7217 140.313 96.3481 140.444 98.7848 138.422L114.672 125.249L141.17 135.511C148.372 138.491 155.652 147.205 155.652 158.121V168.617H136.577V154.888C136.577 153.141 135.161 151.724 133.413 151.724C131.665 151.724 130.249 153.141 130.249 154.888V209.671H88.3843C86.6363 209.671 85.2199 211.088 85.2199 212.835C85.2199 214.583 86.6363 216 88.3843 216H153.327C158.099 216 161.981 212.118 161.981 207.346C161.981 202.46 161.981 162.989 161.981 158.12C161.98 145.822 154.401 134.113 143.549 129.646ZM119.728 63.2719C119.728 67.1342 116.919 70.4657 112.83 71.0155C112.827 68.6413 112.823 64.155 112.822 55.5346C116.965 56.1 119.728 59.4514 119.728 63.2719ZM49.3436 71.0155C45.2496 70.4662 42.4455 67.1317 42.4455 63.2719C42.4455 60.5893 44.0923 58.0755 46.7158 56.6435C47.1386 56.7468 48.4525 57.024 49.3507 57.1468C49.3499 64.7221 49.3461 68.7924 49.3436 71.0155ZM25.4238 174.945V209.671H8.67377C7.39196 209.671 6.34896 208.629 6.34896 207.347V174.945H25.4238ZM55.6805 57.3038C66.3467 56.5363 78.7087 50.9998 88.4611 46.1396C88.4611 46.1396 90.6256 45.0675 93.7305 43.4558C93.7406 43.4507 93.7508 43.4452 93.7609 43.4402C95.1849 42.7026 96.9279 42.7018 98.3886 43.5515L104.25 46.9603C105.627 47.7615 106.452 49.2383 106.493 50.7462V72.2652L102.631 74.4495C99.8932 75.998 98.1924 78.9144 98.1924 82.0602V84.7795C98.1924 86.1107 97.1093 87.1942 95.7777 87.1942H93.6238C92.6943 87.1942 91.8099 86.8432 91.134 86.2052C89.2788 84.4559 86.8527 83.4927 84.303 83.4927H77.872C75.3223 83.4927 72.8963 84.4559 71.0411 86.2052C70.3643 86.8428 69.4804 87.1938 68.5513 87.1938H66.3974C65.0662 87.1938 63.9827 86.1107 63.9827 84.7791V82.0598C63.9827 78.9144 62.2819 75.998 59.5436 74.4491L55.6817 72.2648V57.3038H55.6805ZM55.6805 85.0053V79.5359L56.4268 79.9578C57.1834 80.3856 57.653 81.1911 57.653 82.0598V84.7791C57.653 89.6005 61.5752 93.5227 66.3965 93.5227H68.5504C71.1001 93.5227 73.5266 92.5594 75.3814 90.8101C76.0582 90.1726 76.9421 89.8211 77.8712 89.8211H84.3022C85.2313 89.8211 86.1156 90.1726 86.7915 90.8093C88.6463 92.5586 91.0724 93.5223 93.6229 93.5223H95.7769C100.598 93.5223 104.52 89.6 104.52 84.7787V82.0594C104.52 81.1907 104.99 80.3852 105.747 79.9578L106.493 79.5359V85.0053C106.493 96.2015 97.3637 105.252 86.2464 105.252H75.9265C64.735 105.251 55.6805 96.1331 55.6805 85.0053ZM67.1108 133.43L53.9991 122.557L63.0852 119.008L71.9086 126.324C71.6786 126.665 67.2965 133.156 67.1108 133.43ZM84.111 162.923H77.8788V131.976H84.111V162.923ZM85.9325 121.552C84.6612 122.606 83.8895 124.143 83.7322 125.648H78.2686C78.1134 124.137 77.3438 122.61 76.0679 121.552L67.2332 114.226C67.2615 114.041 67.3062 113.568 67.3062 113.24V110.143C70.0166 111.072 73.022 111.581 75.9274 111.581H86.2473C89.0754 111.581 92.0259 111.095 94.6748 110.208L94.6773 113.268C94.6773 113.272 94.6777 113.276 94.6777 113.28C94.6794 113.605 94.7056 113.924 94.755 114.237L85.9325 121.552ZM94.8895 133.43C94.7043 133.155 90.3222 126.665 90.0918 126.324L98.8016 119.103C107.823 122.596 105.458 121.681 107.912 122.631L94.8895 133.43ZM155.651 207.347C155.651 208.629 154.608 209.671 153.327 209.671H136.577V174.945H155.651V207.347Z" fill="white"/>
</svg>
