<svg width="186" height="186" viewBox="0 0 186 186" fill="none" xmlns="http://www.w3.org/2000/svg">
<g opacity="0.15">
<path d="M141.328 86.1013C144.864 83.5347 147.801 80.2303 149.935 76.4168C152.07 72.6033 153.35 68.3717 153.687 64.0148C154.025 59.6578 153.412 55.2796 151.891 51.1828C150.37 47.0861 147.977 43.3687 144.877 40.2879C142.177 37.5969 138.965 35.4745 135.431 34.046C131.896 32.6176 128.111 31.9121 124.299 31.9713C108.472 32.1969 95.6209 45.5598 95.6514 61.7604C95.6487 66.5155 96.7769 71.2031 98.943 75.4362C101.109 79.6693 104.251 83.3265 108.109 86.106C108.307 86.2551 108.466 86.449 108.574 86.6717C108.682 86.8944 108.735 87.1396 108.73 87.3869V91.2668C107.286 92.0992 106.111 93.3282 105.345 94.8079C104.578 96.2876 104.252 97.9561 104.405 99.6155C104.558 101.275 105.184 102.856 106.208 104.17C107.232 105.485 108.611 106.479 110.183 107.033V110.438C110.185 112.749 111.105 114.965 112.739 116.6C114.374 118.234 116.59 119.154 118.901 119.156H130.526C132.838 119.154 135.054 118.234 136.689 116.6C138.323 114.965 139.242 112.749 139.245 110.438V107.031C140.817 106.477 142.196 105.483 143.22 104.169C144.244 102.854 144.87 101.273 145.023 99.6137C145.176 97.9543 144.85 96.2858 144.083 94.8061C143.317 93.3263 142.142 92.0974 140.698 91.265V87.3866C140.694 87.1378 140.748 86.8914 140.858 86.6679C140.967 86.4444 141.128 86.2501 141.328 86.1013ZM101.465 61.7498C101.441 48.7157 111.722 37.9644 124.384 37.7838C124.493 37.7838 124.605 37.7813 124.716 37.7813C130.745 37.7811 136.529 40.1719 140.798 44.4293C143.294 46.915 145.22 49.9123 146.445 53.2145C147.67 56.5167 148.164 60.0453 147.893 63.5569C147.623 67.0686 146.594 70.4798 144.877 73.5553C143.161 76.6308 140.798 79.2974 137.951 81.3714C136.999 82.0588 136.225 82.9631 135.692 84.0094C135.159 85.0557 134.883 86.2139 134.887 87.388V90.0938H114.544V87.3869C114.548 86.2139 114.273 85.0567 113.741 84.0112C113.21 82.9657 112.436 82.062 111.485 81.375C108.379 79.1327 105.85 76.1836 104.108 72.7713C102.366 69.3589 101.46 65.5812 101.465 61.7498ZM130.528 113.344H118.903C118.132 113.343 117.394 113.036 116.849 112.492C116.304 111.947 115.997 111.208 115.997 110.438V107.531H133.434V110.438C133.433 111.208 133.127 111.947 132.582 112.492C132.037 113.036 131.298 113.343 130.528 113.344ZM136.34 101.719H113.09C112.32 101.719 111.58 101.413 111.035 100.868C110.49 100.323 110.184 99.5833 110.184 98.8125C110.184 98.0417 110.49 97.3025 111.035 96.7575C111.58 96.2124 112.32 95.9063 113.09 95.9063H136.34C137.111 95.9063 137.85 96.2124 138.395 96.7575C138.94 97.3025 139.247 98.0417 139.247 98.8125C139.247 99.5833 138.94 100.323 138.395 100.868C137.85 101.413 137.111 101.719 136.34 101.719Z" fill="white"/>
<path d="M129.425 50.3301C131.253 51.0969 132.883 52.2673 134.194 53.7535C135.505 55.2398 136.463 57.0034 136.996 58.9122C137.213 59.6439 137.71 60.2605 138.379 60.6289C139.047 60.9972 139.834 61.0878 140.568 60.881C141.303 60.6743 141.927 60.1867 142.305 59.5237C142.684 58.8607 142.786 58.0755 142.59 57.3378C141.815 54.5796 140.426 52.0325 138.527 49.8872C136.628 47.7419 134.269 46.054 131.625 44.9499C130.911 44.658 130.111 44.6616 129.4 44.9597C128.69 45.2578 128.126 45.826 127.835 46.5394C127.543 47.2528 127.546 48.053 127.844 48.7638C128.142 49.4746 128.711 50.0379 129.424 50.3297L129.425 50.3301Z" fill="white"/>
<path d="M127.62 23.25V17.4375C127.62 16.6667 127.314 15.9275 126.769 15.3825C126.224 14.8374 125.485 14.5312 124.714 14.5312C123.943 14.5312 123.204 14.8374 122.659 15.3825C122.114 15.9275 121.808 16.6667 121.808 17.4375V23.25C121.808 24.0208 122.114 24.76 122.659 25.305C123.204 25.8501 123.943 26.1562 124.714 26.1562C125.485 26.1562 126.224 25.8501 126.769 25.305C127.314 24.76 127.62 24.0208 127.62 23.25Z" fill="white"/>
<path d="M108.167 29.6746C108.651 29.6737 109.127 29.552 109.553 29.3205C109.978 29.089 110.338 28.755 110.602 28.3489C110.865 27.9428 111.023 27.4774 111.061 26.9948C111.099 26.5123 111.016 26.0278 110.819 25.5855L108.455 20.2754C108.141 19.5713 107.561 19.0205 106.841 18.7443C106.122 18.468 105.322 18.489 104.618 18.8025C103.914 19.116 103.363 19.6964 103.087 20.416C102.81 21.1356 102.831 21.9355 103.145 22.6397L105.509 27.9497C105.738 28.4636 106.111 28.9001 106.582 29.2063C107.054 29.5125 107.605 29.6752 108.167 29.6746Z" fill="white"/>
<path d="M94.4764 39.6187C95.0643 39.6189 95.6384 39.4408 96.123 39.108C96.6076 38.7751 96.9798 38.3031 97.1906 37.7543C97.4013 37.2054 97.4406 36.6056 97.3034 36.0339C97.1661 35.4623 96.8587 34.9457 96.4218 34.5524L92.1024 30.6631C91.5294 30.1474 90.775 29.8804 90.0051 29.9208C89.2353 29.9613 88.513 30.3059 87.9973 30.8789C87.4815 31.4519 87.2145 32.2063 87.255 32.9761C87.2955 33.746 87.6401 34.4682 88.2131 34.984L92.5325 38.8711C93.0653 39.3528 93.7581 39.6193 94.4764 39.6187Z" fill="white"/>
<path d="M88.7817 52.262C89.0198 51.5289 88.957 50.7313 88.607 50.0446C88.257 49.3578 87.6486 48.8383 86.9155 48.6001L81.3875 46.8044C81.0238 46.6838 80.6399 46.6363 80.2578 46.6646C79.8757 46.693 79.5029 46.7966 79.161 46.9695C78.8191 47.1424 78.5147 47.3813 78.2655 47.6723C78.0162 47.9632 77.827 48.3006 77.7086 48.6651C77.5902 49.0295 77.5451 49.4137 77.5757 49.7956C77.6064 50.1776 77.7123 50.5496 77.8873 50.8905C78.0624 51.2313 78.3031 51.5342 78.5956 51.7817C78.8881 52.0292 79.2267 52.2163 79.5918 52.3325L85.1198 54.1289C85.4828 54.2473 85.8655 54.2929 86.2462 54.2632C86.6268 54.2334 86.9978 54.1289 87.3379 53.9555C87.6781 53.7822 87.9807 53.5434 88.2285 53.253C88.4762 52.9625 88.6642 52.626 88.7817 52.2627V52.262Z" fill="white"/>
<path d="M83.9464 65.3002L78.1659 65.9079C77.7843 65.9453 77.4139 66.0578 77.076 66.239C76.7382 66.4201 76.4395 66.6663 76.1971 66.9634C75.9548 67.2605 75.7737 67.6026 75.6641 67.9699C75.5546 68.3373 75.5188 68.7228 75.5589 69.104C75.5989 69.4853 75.714 69.8549 75.8976 70.1915C76.0811 70.5281 76.3294 70.8251 76.6282 71.0653C76.9269 71.3055 77.2703 71.4842 77.6384 71.5912C78.0066 71.6982 78.3923 71.7312 78.7733 71.6885L84.5542 71.0807C85.3172 70.9958 86.0157 70.6124 86.497 70.0143C86.9783 69.4162 87.2034 68.6519 87.1232 67.8884C87.0429 67.1248 86.6637 66.4241 86.0685 65.9391C85.4733 65.4542 84.7104 65.2245 83.9464 65.3002Z" fill="white"/>
<path d="M164.876 71.0807L170.656 71.6885C171.421 71.7652 172.184 71.536 172.78 71.0511C173.376 70.5661 173.756 69.8649 173.837 69.1008C173.917 68.3367 173.691 67.5718 173.209 66.9735C172.727 66.3751 172.028 65.992 171.264 65.9079L165.483 65.3002C165.103 65.2578 164.717 65.2912 164.349 65.3983C163.982 65.5054 163.639 65.6842 163.34 65.9244C163.042 66.1646 162.794 66.4615 162.61 66.7979C162.427 67.1343 162.312 67.5037 162.272 67.8847C162.232 68.2657 162.267 68.6509 162.377 69.0181C162.486 69.3853 162.667 69.7273 162.909 70.0243C163.151 70.3213 163.449 70.5676 163.787 70.7489C164.124 70.9302 164.494 71.0429 164.876 71.0807Z" fill="white"/>
<path d="M163.409 54.2713C163.714 54.2712 164.018 54.2229 164.308 54.1282L169.836 52.3325C170.199 52.2146 170.535 52.0263 170.825 51.7785C171.115 51.5306 171.354 51.228 171.527 50.8879C171.7 50.5479 171.805 50.177 171.835 49.7966C171.865 49.4161 171.82 49.0334 171.702 48.6705C171.584 48.3075 171.396 47.9713 171.148 47.6811C170.9 47.3908 170.597 47.1523 170.257 46.979C169.917 46.8057 169.546 46.7011 169.166 46.6712C168.785 46.6412 168.403 46.6865 168.04 46.8045L162.512 48.6002C161.853 48.8134 161.292 49.2549 160.93 49.845C160.568 50.4352 160.428 51.1352 160.537 51.8191C160.645 52.503 160.994 53.1258 161.52 53.5754C162.047 54.0249 162.717 54.2718 163.409 54.2713Z" fill="white"/>
<path d="M156.896 38.8711L161.215 34.984C161.788 34.4682 162.132 33.7459 162.173 32.9762C162.213 32.2064 161.946 31.4521 161.43 30.8793C160.914 30.3064 160.192 29.962 159.422 29.9216C158.652 29.8813 157.898 30.1484 157.325 30.6642L153.006 34.5524C152.444 35.0709 152.109 35.7902 152.073 36.5542C152.038 37.3183 152.305 38.0654 152.817 38.6338C153.329 39.2021 154.044 39.5457 154.808 39.5902C155.571 39.6346 156.322 39.3762 156.896 38.8711Z" fill="white"/>
<path d="M141.261 29.6746C141.824 29.6749 142.374 29.5121 142.845 29.2059C143.317 28.8998 143.69 28.4634 143.918 27.9498L146.282 22.6397C146.596 21.9355 146.617 21.1356 146.341 20.416C146.064 19.6964 145.514 19.116 144.809 18.8025C144.105 18.489 143.305 18.468 142.586 18.7443C141.866 19.0205 141.286 19.5713 140.972 20.2754L138.608 25.5855C138.411 26.0278 138.328 26.5123 138.366 26.9948C138.404 27.4774 138.562 27.9428 138.826 28.3489C139.089 28.755 139.45 29.089 139.875 29.3205C140.3 29.552 140.776 29.6737 141.26 29.6746H141.261Z" fill="white"/>
<path d="M171.469 154.031H133.688V151.125C133.688 146.762 128.009 143.583 126.269 142.713C126.119 142.639 125.964 142.577 125.804 142.529L97.359 133.995C95.559 132.405 89.1249 126.821 81.2584 121.157C68.699 112.115 58.9605 107.531 52.3125 107.531H29.0625V104.625C29.0625 103.854 28.7563 103.115 28.2113 102.57C27.6663 102.025 26.927 101.719 26.1562 101.719H8.71875C7.94796 101.719 7.20875 102.025 6.66372 102.57C6.11869 103.115 5.8125 103.854 5.8125 104.625V168.562C5.8125 169.333 6.11869 170.073 6.66372 170.618C7.20875 171.163 7.94796 171.469 8.71875 171.469H26.1562C26.927 171.469 27.6663 171.163 28.2113 170.618C28.7563 170.073 29.0625 169.333 29.0625 168.562V165.656H37.6457C39.4589 165.897 54.2902 168.826 67.4003 171.414C93.623 176.591 97.3274 177.281 98.1451 177.281H171.469C173.78 177.279 175.996 176.359 177.631 174.725C179.265 173.09 180.185 170.874 180.188 168.562V162.75C180.185 160.438 179.265 158.222 177.631 156.588C175.996 154.953 173.78 154.034 171.469 154.031ZM23.25 165.656H11.625V107.531H23.25V165.656ZM174.375 168.562C174.374 169.333 174.068 170.072 173.523 170.617C172.978 171.161 172.239 171.468 171.469 171.469H98.2807C96.4675 171.228 81.6362 168.299 68.5279 165.711C42.3034 160.534 38.599 159.844 37.7812 159.844H29.0625V113.344H52.3125C63.3094 113.344 86.106 131.686 93.9623 138.754C94.2814 139.041 94.66 139.254 95.0711 139.378L123.879 148.02C125.689 148.967 127.597 150.488 127.873 151.214V156.938C127.872 157.667 127.598 158.369 127.104 158.905C126.61 159.442 125.933 159.773 125.206 159.834L96.9387 154.18L77.0044 142.789C76.673 142.599 76.3074 142.476 75.9285 142.428C75.5496 142.379 75.1648 142.406 74.7962 142.506C74.4276 142.606 74.0824 142.778 73.7803 143.012C73.4782 143.246 73.2252 143.537 73.0356 143.869C72.8461 144.2 72.7239 144.566 72.6758 144.945C72.6278 145.324 72.6549 145.709 72.7557 146.077C72.8565 146.446 73.0289 146.791 73.2631 147.092C73.4973 147.394 73.7887 147.647 74.1206 147.836L94.4644 159.461C94.7355 159.616 95.03 159.726 95.3363 159.788L124.399 165.6C124.586 165.638 124.777 165.656 124.969 165.656C126.771 165.654 128.529 165.094 130.001 164.054C131.473 163.013 132.586 161.542 133.189 159.844H171.469C172.239 159.845 172.978 160.151 173.523 160.696C174.068 161.241 174.374 161.979 174.375 162.75V168.562Z" fill="white"/>
</g>
</svg>