<svg width="153" height="153" viewBox="0 0 153 153" fill="none" xmlns="http://www.w3.org/2000/svg">
<g opacity="0.15" clip-path="url(#clip0)">
<path d="M145.979 101.866L132.955 96.0774C132.036 95.6686 131.441 94.7539 131.441 93.7475V90.1711C135.816 86.6853 138.628 81.3174 138.628 75.302V70.2676C140.069 69.4713 141.023 67.9323 141.023 66.2087V65.7201C141.023 55.2384 132.496 46.7107 122.014 46.7107H117.223C106.741 46.7107 98.2137 55.2384 98.2137 65.7201V70.1532C98.2137 71.6683 98.8657 73.0408 100.002 73.919C100.195 74.0678 100.398 74.1987 100.609 74.312V75.302C100.609 81.3174 103.421 86.6853 107.795 90.1708V93.7475C107.795 94.7542 107.201 95.6686 106.281 96.0774L93.2576 101.866C88.9924 103.762 86.2363 108.002 86.2363 112.67V142.374C86.2363 143.612 87.2398 144.615 88.4775 144.615C89.7153 144.615 90.7188 143.612 90.7188 142.374V112.67C90.7188 112.41 90.7373 112.153 90.7642 111.899L96.7652 117.9C97.6994 118.834 98.2137 120.076 98.2137 121.397V142.375C98.2137 143.612 99.2171 144.616 100.455 144.616C101.693 144.616 102.696 143.612 102.696 142.375V121.397C102.696 118.879 101.716 116.511 99.9349 114.731L92.7804 107.576C93.4249 106.908 94.1983 106.353 95.0781 105.962L107.882 100.271L117.377 109.767V142.375C117.377 143.613 118.381 144.616 119.618 144.616C120.856 144.616 121.86 143.613 121.86 142.375V109.767L131.355 100.271L144.158 105.962C145.039 106.353 145.812 106.907 146.456 107.576L139.302 114.731C137.522 116.511 136.541 118.879 136.541 121.397V142.375C136.541 143.612 137.544 144.616 138.782 144.616C140.02 144.616 141.023 143.612 141.023 142.375V121.397C141.023 120.076 141.537 118.834 142.472 117.9L148.472 111.899C148.499 112.154 148.518 112.41 148.518 112.67V142.375C148.518 143.612 149.521 144.616 150.759 144.616C151.997 144.616 153 143.612 153 142.375V112.67C153 108.002 150.244 103.762 145.979 101.866ZM119.619 105.669L111.287 97.3367C111.92 96.2708 112.278 95.0378 112.278 93.7475V92.8354C114.538 93.7851 117.018 94.3114 119.619 94.3114C122.219 94.3114 124.699 93.7851 126.959 92.8357V93.7475C126.959 95.0378 127.317 96.2711 127.95 97.337L119.619 105.669ZM119.618 89.8289C111.608 89.8289 105.091 83.3121 105.091 75.302V74.2938C106.49 73.7394 107.855 72.8576 109.162 71.6515C110.071 70.8121 110.128 69.3942 109.289 68.4845C108.449 67.5752 107.031 67.5184 106.122 68.3578C105.001 69.3924 103.881 70.0612 102.794 70.3447C102.767 70.3516 102.748 70.3546 102.734 70.3558C102.718 70.3247 102.696 70.2587 102.696 70.1532V65.7201C102.696 57.71 109.213 51.1931 117.223 51.1931H122.014C130.024 51.1931 136.541 57.71 136.541 65.7201V66.2087C136.541 66.2813 136.497 66.3446 136.44 66.356C123.018 69.006 116.288 64.0108 114.017 61.74C113.142 60.8647 111.722 60.8647 110.848 61.74C109.972 62.6153 109.972 64.0344 110.848 64.9094C117.807 71.8688 127.963 71.9943 134.145 71.2517V75.302C134.145 83.3121 127.629 89.8289 119.618 89.8289Z" fill="white"/>
<path d="M49.5104 104.408L39.673 100.719C38.6833 100.348 38.0187 99.3887 38.0187 98.3318V96.5893C43.7374 93.3085 47.6006 87.1452 47.6006 80.0928V72.9063C47.6006 66.8293 44.7307 61.4131 40.2787 57.9308C40.3687 57.3391 40.4141 56.7385 40.4141 56.1381C40.4141 49.6189 35.1102 44.3153 28.5913 44.3153C22.072 44.3153 16.7681 49.6192 16.7681 56.1381C16.7681 56.7385 16.8186 57.3364 16.9083 57.9272C12.4537 61.4095 9.58162 66.8269 9.58162 72.9063V80.0928C9.58162 87.1452 13.4449 93.3082 19.1635 96.589V98.3315C19.1635 99.3884 18.4987 100.348 17.5089 100.719L7.67152 104.408C3.08301 106.129 0 110.578 0 115.478V142.374C0 143.612 1.00346 144.615 2.24121 144.615C3.47896 144.615 4.48242 143.612 4.48242 142.374V115.478C4.48242 115.093 4.5135 114.713 4.57297 114.339L8.1332 117.9C9.06734 118.834 9.58162 120.076 9.58162 121.397V142.375C9.58162 143.612 10.5851 144.616 11.8228 144.616C13.0606 144.616 14.064 143.612 14.064 142.375V121.397C14.064 118.879 13.0836 116.511 11.3029 114.731L6.75471 110.182C7.45875 109.505 8.29905 108.96 9.24544 108.605L17.3562 105.564L26.3501 114.558V142.375C26.3501 143.612 27.3535 144.616 28.5913 144.616C29.829 144.616 30.8325 143.612 30.8325 142.375V114.558L39.826 105.564L47.9365 108.605C48.8829 108.96 49.7232 109.506 50.4275 110.182L45.8791 114.731C44.0987 116.511 43.1179 118.879 43.1179 121.397V142.375C43.1179 143.612 44.1214 144.616 45.3591 144.616C46.5969 144.616 47.6003 143.612 47.6003 142.375V121.397C47.6003 120.076 48.1146 118.834 49.0488 117.9L52.609 114.34C52.6682 114.713 52.6995 115.093 52.6995 115.479V142.375C52.6995 143.612 53.703 144.616 54.9407 144.616C56.1785 144.616 57.182 143.612 57.182 142.375V115.479C57.182 110.578 54.0992 106.129 49.5104 104.408ZM28.5913 48.7977C32.3747 48.7977 35.4981 51.6751 35.8896 55.3564C33.6409 54.4178 31.1758 53.8972 28.591 53.8972C26.0061 53.8972 23.5411 54.4178 21.2927 55.3564C21.6845 51.6751 24.8078 48.7977 28.5913 48.7977ZM14.0643 72.9066C14.064 64.8962 20.5809 58.3797 28.5913 58.3797C36.6014 58.3797 43.1182 64.8965 43.1182 72.9066V75.3677C32.6834 74.577 22.664 68.6528 22.5579 68.5894C22.0224 68.2682 21.3776 68.1848 20.7781 68.3593C20.1787 68.5338 19.6793 68.9504 19.4002 69.5089C18.389 71.5314 16.0799 73.1678 14.0643 74.2534V72.9066ZM14.064 80.0928V79.2235C16.1221 78.3348 19.7797 76.4504 22.1438 73.4788C25.7939 75.3892 34.1982 79.2734 43.1179 79.8606V80.0928C43.1179 88.1029 36.6011 94.6197 28.591 94.6197C20.5809 94.6197 14.064 88.1032 14.064 80.0928ZM28.5913 110.459L21.5034 103.372C22.8125 102.096 23.611 100.332 23.6418 98.4444C25.2208 98.8709 26.879 99.1022 28.5913 99.1022C30.3033 99.1022 31.9615 98.8709 33.5405 98.4444C33.5712 100.332 34.3697 102.096 35.6789 103.372L28.5913 110.459Z" fill="white"/>
<path d="M74.1039 22.7564H69.3125C68.0748 22.7564 67.0713 23.7598 67.0713 24.9976C67.0713 26.2353 68.0748 27.2388 69.3125 27.2388H74.1039C75.3417 27.2388 76.3451 26.2353 76.3451 24.9976C76.3451 23.7598 75.3417 22.7564 74.1039 22.7564Z" fill="white"/>
<path d="M59.7306 22.7564H40.5674C39.3296 22.7564 38.3262 23.7598 38.3262 24.9976C38.3262 26.2353 39.3296 27.2388 40.5674 27.2388H59.7306C60.9684 27.2388 61.9718 26.2353 61.9718 24.9976C61.9718 23.7598 60.9684 22.7564 59.7306 22.7564Z" fill="white"/>
<path d="M74.104 34.7337H54.9404C53.7027 34.7337 52.6992 35.7372 52.6992 36.9749C52.6992 38.2127 53.7027 39.2161 54.9404 39.2161H74.104C75.3417 39.2161 76.3452 38.2127 76.3452 36.9749C76.3452 35.7372 75.3417 34.7337 74.104 34.7337Z" fill="white"/>
<path d="M45.3591 34.7337H40.5674C39.3296 34.7337 38.3262 35.7372 38.3262 36.9749C38.3262 38.2127 39.3296 39.2161 40.5674 39.2161H45.3591C46.5968 39.2161 47.6003 38.2127 47.6003 36.9749C47.6003 35.7372 46.5968 34.7337 45.3591 34.7337Z" fill="white"/>
<path d="M78.8958 8.38391H35.7779C29.2587 8.38391 23.9551 13.6878 23.9551 20.2067V36.9749C23.9551 38.2126 24.9585 39.2161 26.1963 39.2161C27.434 39.2161 28.4375 38.2126 28.4375 36.9749V20.2067C28.4375 16.1591 31.7306 12.8663 35.7779 12.8663H78.8961C82.9437 12.8663 86.2368 16.1594 86.2368 20.2067V41.766C86.2368 45.8136 82.9437 49.1064 78.8961 49.1064H74.1053C73.3182 49.1064 72.5885 49.5194 72.1836 50.1944C68.5151 56.3088 62.7412 59.7184 58.5432 61.5024C58.4868 61.5263 58.4162 61.5565 58.3308 61.4648C58.2713 61.4005 58.2833 61.3772 58.3155 61.3147C60.6805 56.7412 61.8578 52.0872 61.9068 51.8912C62.0745 51.2218 61.9239 50.5124 61.4992 49.9682C61.0746 49.4241 60.4229 49.1064 59.7326 49.1064H47.7552C46.5175 49.1064 45.514 50.1099 45.514 51.3476C45.514 52.5854 46.5175 53.5888 47.7552 53.5888H56.709C56.1691 55.175 55.3748 57.2426 54.3337 59.2561C53.4282 61.0075 53.7067 63.0709 55.044 64.5125C55.9512 65.4909 57.1776 66.0099 58.4413 66.0099C59.0617 66.0099 59.691 65.885 60.2962 65.6277C64.8557 63.6901 71.0543 60.0516 75.3401 53.5888H78.8958C85.4151 53.5888 90.719 48.2849 90.719 41.766V20.2067C90.719 13.6875 85.4151 8.38391 78.8958 8.38391Z" fill="white"/>
<path d="M71.709 75.4562C70.4712 75.4562 69.4678 76.4596 69.4678 77.6974V89.6747C69.4678 90.9125 70.4712 91.9159 71.709 91.9159C72.9467 91.9159 73.9502 90.9125 73.9502 89.6747V77.6974C73.9502 76.4596 72.9467 75.4562 71.709 75.4562Z" fill="white"/>
<path d="M71.709 94.6198C70.4712 94.6198 69.4678 95.6232 69.4678 96.861C69.4678 98.0987 70.4712 99.1022 71.709 99.1022H71.7329C72.9706 99.1022 73.9622 98.0987 73.9622 96.861C73.9622 95.6232 72.9467 94.6198 71.709 94.6198Z" fill="white"/>
<path d="M98.3849 85.6292C95.1645 84.4157 93.5475 83.7615 92.7413 83.4167C91.7913 78.2514 88.9166 73.5213 84.7312 70.2993C80.18 66.7959 74.4987 65.296 68.734 66.076C58.8915 67.4076 51.5401 74.9461 50.4404 84.8346C49.7629 90.9262 51.6999 97.0181 55.7547 101.549C59.8128 106.083 65.628 108.684 71.7092 108.684C80.2682 108.684 88.0353 103.501 91.3789 95.6743L98.1746 93.5132C99.8946 92.9663 101.037 91.4471 101.084 89.6428C101.132 87.8405 100.072 86.2651 98.3849 85.6292ZM89.0086 91.7244C88.3482 91.9345 87.8217 92.4386 87.5832 93.0895C85.1492 99.736 78.7696 104.202 71.7089 104.202C66.9013 104.202 62.3032 102.145 59.0947 98.5601C55.8423 94.9257 54.3508 90.2276 54.8953 85.3304C55.7637 77.522 61.5663 71.5693 69.3347 70.5184C70.1272 70.4114 70.9167 70.3582 71.7005 70.3582C75.4361 70.3582 79.0248 71.564 81.9969 73.8515C85.6121 76.6345 87.9134 80.6507 88.4764 85.1594C88.6569 86.6097 89.7327 87.045 92.0895 87.9983C93.0807 88.3993 94.3848 88.9067 95.9734 89.5095L89.0086 91.7244Z" fill="white"/>
</g>
<defs>
<clipPath id="clip0">
<rect width="153" height="153" fill="white"/>
</clipPath>
</defs>
</svg>
