<svg width="140" height="140" viewBox="0 0 140 140" fill="none" xmlns="http://www.w3.org/2000/svg">
<path fill-rule="evenodd" clip-rule="evenodd" d="M62.097 44.6709C65.6805 39.8417 66.9656 34.752 62.9127 30.2594C53.8176 17.5329 47.7009 9.66286 43.8642 5.87283C36.5701 -1.33249 24.5713 -0.357858 18.2542 5.86667C14.8611 9.20993 13.7125 10.358 10.2286 13.8967C-9.17717 33.3128 2.65746 74.3579 34.1182 105.85C65.5718 137.334 106.613 149.175 126.06 129.718C129.274 126.619 131.996 123.895 134.143 121.626C140.334 115.083 141.273 103.613 134.102 96.1622C130.426 92.342 122.921 86.5207 109.659 77.0342C105.597 73.4023 100.781 74.1894 96.3658 77.0862C94.2419 78.4795 92.6963 79.8891 89.7777 82.8105L84.4779 88.1133C83.7798 88.8117 74.3012 84.0649 65.1002 74.8548C55.8942 65.6397 51.1506 56.1606 51.8453 55.4659C53.2781 54.0333 55.0459 52.2645 57.1488 50.1595C58.0748 49.2326 58.5175 48.7838 59.0852 48.1871C60.268 46.944 61.2474 45.8159 62.097 44.6709ZM94.2541 97.8949L99.555 92.5911C101.161 90.9833 102.202 89.9947 103.049 89.3131C114.667 97.656 121.395 102.902 124.143 105.757C125.793 107.472 125.537 110.6 124.103 112.116C122.118 114.214 119.539 116.795 116.374 119.847C103.799 132.428 70.6694 122.869 43.8966 96.0701C17.1154 69.2625 7.56165 36.1281 20.0415 23.6413C23.5113 20.1173 24.6107 19.0185 27.9552 15.7229C29.2093 14.4873 32.6251 14.2098 34.1506 15.7168C37.1045 18.6347 42.5839 25.6507 50.6444 36.8788C50.2271 37.3968 49.7059 37.9823 49.0717 38.6488C48.6062 39.1381 48.2183 39.5312 47.3705 40.3799C45.2692 42.4833 43.503 44.2504 42.0722 45.6811C33.0588 54.6938 40.7349 70.033 55.3219 84.6343C69.8988 99.2255 85.2437 106.91 94.2541 97.8949Z" fill="white"/>
</svg>