<svg width="96" height="96" viewBox="0 0 96 96" fill="none" xmlns="http://www.w3.org/2000/svg">
<path d="M91.5 33H81.6C78.065 33.0038 74.5956 32.0449 71.5644 30.2262C68.5331 28.4074 66.0543 25.7975 64.3942 22.6765L62.5588 19.2352C60.7079 15.7566 57.6713 13.0566 54 11.6254V9C54 7.4087 53.3679 5.88258 52.2426 4.75736C51.1174 3.63214 49.5913 3 48 3C46.4087 3 44.8826 3.63214 43.7574 4.75736C42.6321 5.88258 42 7.4087 42 9V11.6254C38.3287 13.0567 35.2921 15.7566 33.4411 19.2352L31.6059 22.6765C29.9457 25.7975 27.4669 28.4074 24.4357 30.2261C21.4044 32.0449 17.935 33.0038 14.4 33H4.5C4.10218 33 3.72065 33.158 3.43934 33.4393C3.15804 33.7206 3 34.1022 3 34.5V40.5C3 40.8978 3.15804 41.2794 3.43934 41.5607C3.72065 41.842 4.10218 42 4.5 42H14.3584L9.4493 55.5H7.5C7.10218 55.5 6.72065 55.658 6.43934 55.9393C6.15804 56.2206 6 56.6022 6 57C6 60.1826 7.26428 63.2348 9.51472 65.4853C11.7652 67.7357 14.8174 69 18 69C21.1826 69 24.2348 67.7357 26.4853 65.4853C28.7357 63.2348 30 60.1826 30 57C30 56.6022 29.842 56.2206 29.5607 55.9393C29.2794 55.658 28.8978 55.5 28.5 55.5H26.5507L21.6416 42H25.3004C29.6605 42.0005 33.8725 40.4179 37.1535 37.5463L41.101 34.092C41.3878 33.8423 41.6879 33.6084 42 33.3913V73.1459L39.5729 78H36C35.7671 78 35.5375 78.0542 35.3292 78.1584C35.1209 78.2625 34.9397 78.4137 34.8 78.6L30.75 84H24C23.6022 84 23.2206 84.158 22.9393 84.4393C22.658 84.7206 22.5 85.1022 22.5 85.5V91.5C22.5 91.8978 22.658 92.2794 22.9393 92.5607C23.2206 92.842 23.6022 93 24 93H72C72.3978 93 72.7794 92.842 73.0607 92.5607C73.342 92.2794 73.5 91.8978 73.5 91.5V85.5C73.5 85.1022 73.342 84.7206 73.0607 84.4393C72.7794 84.158 72.3978 84 72 84H65.25L61.2 78.6C61.0603 78.4137 60.8791 78.2625 60.6708 78.1584C60.4625 78.0542 60.2329 78 60 78H56.4271L54 73.1459V33.3913C54.3121 33.6084 54.6122 33.8423 54.899 34.092H54.8989L58.8465 37.5463C62.1275 40.4179 66.3395 42.0005 70.6996 42H74.3584L69.4493 55.5H67.5C67.1022 55.5 66.7206 55.658 66.4393 55.9393C66.158 56.2206 66 56.6022 66 57C66 60.1826 67.2643 63.2348 69.5147 65.4853C71.7652 67.7357 74.8174 69 78 69C81.1826 69 84.2348 67.7357 86.4853 65.4853C88.7357 63.2348 90 60.1826 90 57C90 56.6022 89.842 56.2206 89.5607 55.9393C89.2794 55.658 88.8978 55.5 88.5 55.5H86.5507L81.6416 42H91.5C91.8978 42 92.2794 41.842 92.5607 41.5607C92.842 41.2794 93 40.8978 93 40.5V34.5C93 34.1022 92.842 33.7206 92.5607 33.4393C92.2794 33.158 91.8978 33 91.5 33ZM45 9C45 8.20435 45.3161 7.44129 45.8787 6.87868C46.4413 6.31607 47.2043 6 48 6C48.7957 6 49.5587 6.31607 50.1213 6.87868C50.6839 7.44129 51 8.20435 51 9V10.7752C49.0168 10.4083 46.9832 10.4083 45 10.7752V9ZM18 66C15.8738 65.9973 13.8169 65.2431 12.1929 63.8707C10.5689 62.4983 9.48224 60.596 9.12497 58.5H26.875C26.5178 60.596 25.4311 62.4983 23.8071 63.8707C22.1831 65.2431 20.1262 65.9973 18 66ZM23.3584 55.5H12.6416L17.5507 42H18.4493L23.3584 55.5ZM70.5 90H25.5V87H70.5V90ZM61.5 84H34.5L36.75 81H59.25L61.5 84ZM51.1584 74.1709L53.0729 78H42.9271L44.8416 74.1709C44.9458 73.9626 45 73.7329 45 73.5V31.9413C46.9567 31.3529 49.0433 31.3529 51 31.9413V73.5C51 73.7329 51.0542 73.9626 51.1584 74.1709ZM78 66C75.8738 65.9973 73.8169 65.2431 72.1929 63.8707C70.5689 62.4983 69.4822 60.596 69.125 58.5H86.875C86.5178 60.596 85.4311 62.4983 83.8071 63.8707C82.1831 65.2431 80.1262 65.9973 78 66ZM83.3584 55.5H72.6416L77.5507 42H78.4493L83.3584 55.5ZM90 39H70.6996C67.0662 39.0005 63.5562 37.6816 60.8221 35.2886L56.8744 31.8344H56.8743C54.4176 29.6848 51.2643 28.5 48 28.5C44.7356 28.5 41.5823 29.6848 39.1256 31.8344L35.1779 35.2886C32.4438 37.6816 28.9338 39.0005 25.3004 39H6V36H14.4C18.4789 36.0044 22.482 34.898 25.9796 32.7994C29.4773 30.7008 32.3374 27.6894 34.253 24.0883L36.0882 20.647C37.2396 18.4881 38.9562 16.6827 41.0543 15.4238C43.1524 14.165 45.5532 13.5 48 13.5C50.4467 13.5 52.8475 14.165 54.9456 15.4238C57.0437 16.6827 58.7603 18.4881 59.9117 20.647L61.7471 24.0883C63.6627 27.6894 66.5228 30.7008 70.0204 32.7994C73.518 34.898 77.5211 36.0044 81.6 36H90V39Z" fill="#93C0DD"/>
<path d="M48 16.5C47.11 16.5 46.24 16.7639 45.4999 17.2584C44.7599 17.7529 44.1831 18.4557 43.8425 19.2779C43.5019 20.1002 43.4128 21.005 43.5865 21.8779C43.7601 22.7508 44.1887 23.5526 44.818 24.182C45.4474 24.8113 46.2492 25.2399 47.1221 25.4135C47.995 25.5872 48.8998 25.498 49.7221 25.1575C50.5444 24.8169 51.2472 24.2401 51.7416 23.5001C52.2361 22.76 52.5 21.89 52.5 21C52.4987 19.8069 52.0241 18.6631 51.1805 17.8195C50.3369 16.9759 49.1931 16.5013 48 16.5ZM48 22.5C47.7033 22.5 47.4133 22.412 47.1667 22.2472C46.92 22.0824 46.7277 21.8481 46.6142 21.574C46.5007 21.2999 46.471 20.9983 46.5288 20.7074C46.5867 20.4164 46.7296 20.1491 46.9393 19.9393C47.1491 19.7296 47.4164 19.5867 47.7074 19.5288C47.9983 19.4709 48.2999 19.5006 48.574 19.6142C48.8481 19.7277 49.0824 19.92 49.2472 20.1666C49.412 20.4133 49.5 20.7033 49.5 21C49.4996 21.3977 49.3414 21.7789 49.0602 22.0602C48.779 22.3414 48.3977 22.4995 48 22.5Z" fill="#93C0DD"/>
</svg>