<svg width="96" height="96" viewBox="0 0 96 96" fill="none" xmlns="http://www.w3.org/2000/svg">
<path d="M93.0794 71.1449L88.7449 61.8965H90.9427V58.8137H75.3096C75.0665 57.8752 74.6067 57.0285 73.9872 56.3195V48.9271L69.363 44.3029L64.7388 48.9271V56.3195C64.1194 57.0285 63.6596 57.8752 63.4165 58.8137H55.4904V52.6481C57.1906 52.6481 58.5732 51.2655 58.5732 49.5653V46.4825C58.5732 44.7823 57.1906 43.3997 55.4904 43.3997H47.7834V41.5068C47.7834 38.3111 45.7731 35.412 42.7829 34.2898L35.4522 31.5412V30.2361C36.6188 29.1892 37.5175 27.8547 38.0338 26.3389C40.9382 25.8414 43.1592 23.3209 43.1592 20.2787V14.1131C43.1592 6.46479 36.9364 0.240479 29.2866 0.240479C21.6368 0.240479 15.414 6.46479 15.414 14.1131V20.2787C15.414 23.3209 17.635 25.8414 20.5395 26.3389C21.0558 27.8532 21.9544 29.1877 23.121 30.2361V31.5412L15.7918 34.2913C12.8001 35.412 10.7898 38.3111 10.7898 41.5068V43.3997H3.0828C1.38259 43.3997 0 44.7823 0 46.4825V49.5653C0 51.2655 1.38259 52.6481 3.0828 52.6481V86.5589H55.4904V80.3933H59.7767L62.0888 71.1449H59.1663L54.8326 61.8965H63.4165C63.6596 62.8351 64.1194 63.681 64.7388 64.39V86.5589C62.1897 86.5589 60.1146 88.6332 60.1146 91.1831V95.8074H78.6115V91.1831C78.6115 88.6332 76.5364 86.5589 73.9872 86.5589V64.39C74.6067 63.681 75.0665 62.8351 75.3096 61.8965H83.8935L79.5598 71.1449H76.6373L78.9494 80.3933H93.6875L95.9996 71.1449H93.0794ZM69.363 63.4379C67.6628 63.4379 66.2802 62.0553 66.2802 60.3551C66.2802 58.6549 67.6628 57.2723 69.363 57.2723C71.0632 57.2723 72.4458 58.6549 72.4458 60.3551C72.4458 62.0553 71.0632 63.4379 69.363 63.4379ZM69.363 48.6622L70.9044 50.2036V54.4085C70.4085 54.2791 69.8982 54.1895 69.363 54.1895C68.8279 54.1895 68.3176 54.2791 67.8216 54.4085V50.2036L69.363 48.6622ZM29.2866 29.5271C25.8862 29.5271 23.121 26.7619 23.121 23.3615V17.086C25.7876 16.8414 28.3571 16.0045 30.6293 14.5519L30.6414 14.5647C31.9472 15.8697 33.6459 16.733 35.4522 17.0521V23.3615C35.4522 26.7619 32.687 29.5271 29.2866 29.5271ZM38.535 22.9325V17.6256C39.4525 18.1608 40.0764 19.1437 40.0764 20.2802C40.0764 21.4159 39.4525 22.3981 38.535 22.9325ZM29.2866 3.32328C35.2347 3.32328 40.0764 8.16274 40.0764 14.1131V14.9696C39.1657 14.4397 38.1218 14.1131 36.9936 14.1131C35.4402 14.1131 33.9199 13.4824 32.821 12.385L31.0237 10.5877L29.1955 11.807C26.9331 13.3145 24.2989 14.1131 21.5796 14.1131C20.4514 14.1131 19.4075 14.4397 18.4968 14.9696V14.1131C18.4968 8.16274 23.3385 3.32328 29.2866 3.32328ZM18.4968 20.2787C18.4968 19.1422 19.1207 18.1593 20.0382 17.6241V22.931C19.1207 22.3981 18.4968 21.4144 18.4968 20.2787ZM29.2866 32.6099C30.3689 32.6099 31.403 32.4127 32.3694 32.0703V32.6099C32.3694 34.3101 30.9868 35.6927 29.2866 35.6927C27.5864 35.6927 26.2038 34.3101 26.2038 32.6099V32.0703C27.1702 32.4127 28.2043 32.6099 29.2866 32.6099ZM13.8726 41.5068C13.8726 39.5891 15.0783 37.8505 16.8734 37.1769L23.5064 34.6887C24.3651 37.064 26.62 38.7755 29.2866 38.7755C31.9532 38.7755 34.2081 37.064 35.0654 34.6887L41.6999 37.1769C43.4949 37.8505 44.7006 39.5891 44.7006 41.5068V43.3997H13.8726V41.5068ZM3.0828 46.4825H55.4904L55.4934 49.5653H3.0828V46.4825ZM52.4076 83.4761H15.414V61.8965H40.0764V58.8137H12.3312V83.4761H6.1656V52.6481H52.4076V58.8137H47.7834V61.8965H49.9826L45.6489 71.1449H42.7265L45.0386 80.3933H52.4076V83.4761ZM57.3698 77.3105H47.4455L46.6748 74.2277H58.1405L57.3698 77.3105ZM49.0524 71.1449L52.4076 63.9866L55.7629 71.1449H49.0524ZM75.5286 91.1831V92.7245H63.1974V91.1831C63.1974 90.3319 63.8884 89.6417 64.7388 89.6417H73.9872C74.8377 89.6417 75.5286 90.3319 75.5286 91.1831ZM67.8216 86.5589V66.3017C68.3176 66.4312 68.8279 66.5207 69.363 66.5207C69.8982 66.5207 70.4085 66.4312 70.9044 66.3017V86.5589H67.8216ZM86.3185 63.9866L89.6737 71.1449H82.9632L86.3185 63.9866ZM91.2806 77.3105H81.3563L80.5856 74.2277H92.0513L91.2806 77.3105Z" fill="#93C0DD"/>
<path d="M18.4961 64.9795H40.0757V68.0623H18.4961V64.9795Z" fill="#93C0DD"/>
<path d="M18.4961 71.1453H40.0757V74.2281H18.4961V71.1453Z" fill="#93C0DD"/>
<path d="M18.4961 77.3105H40.0757V80.3933H18.4961V77.3105Z" fill="#93C0DD"/>
</svg>