<svg width="48" height="64" viewBox="0 0 48 64" fill="none" xmlns="http://www.w3.org/2000/svg">
<path d="M47.1937 12.1648L35.3669 0.352604C35.1399 0.126792 34.8332 0 34.5132 0H1.66067C0.994106 0 0.453125 0.539774 0.453125 1.20755V62.7925C0.453125 63.4602 0.994106 64 1.66067 64H46.3399C47.0065 64 47.5475 63.4602 47.5475 62.7925V13.0198C47.5475 12.6998 47.4207 12.3931 47.1937 12.1648ZM43.4249 12.0755H35.472V4.12257L43.4249 12.0755ZM2.86822 61.5849V2.41509H33.0569V13.283C33.0569 13.9508 33.5979 14.4906 34.2644 14.4906H45.1324V61.5849H2.86822Z" fill="#93C0DD"/>
<path d="M24.0011 19.3208C15.0121 19.3208 7.69922 26.6337 7.69922 35.6227C7.69922 44.6117 15.0121 51.9246 24.0011 51.9246C32.9901 51.9246 40.303 44.6117 40.303 35.6227C40.303 26.6337 32.9901 19.3208 24.0011 19.3208ZM24.0011 49.5095C16.344 49.5095 10.1143 43.2797 10.1143 35.6227C10.1143 27.9656 16.344 21.7359 24.0011 21.7359C31.6582 21.7359 37.8879 27.9656 37.8879 35.6227C37.8879 43.2797 31.6582 49.5095 24.0011 49.5095Z" fill="#93C0DD"/>
<path d="M14.0469 32.4383H17.1249V41.0565H19.2188V32.4383H22.2896V30.6837H14.0469V32.4383Z" fill="#93C0DD"/>
<path d="M28.6294 37.7599L26.7469 30.6837H23.6133V41.0565H25.5586V32.8911L27.6103 41.0565H29.6269L31.6857 32.8911V41.0565H33.6323V30.6837H30.4903L28.6294 37.7599Z" fill="#93C0DD"/>
</svg>
