<svg width="94" height="94" viewBox="0 0 94 94" fill="none" xmlns="http://www.w3.org/2000/svg">
<path d="M83.789 44.564L83.531 44.09L91.508 36.113C92.792 34.829 93.5 33.1205 93.5 31.304C93.5 27.5525 90.4475 24.5 86.696 24.5C85.934 24.5 85.2005 24.6515 84.5 24.89V5C84.5 2.519 82.481 0.5 80 0.5H33.2435C32.042 0.5 30.911 0.968 30.0605 1.8185L16.8185 15.0605C15.968 15.9095 15.5 17.0405 15.5 18.2435V21.5765C7.103 22.337 0.5 29.408 0.5 38V86C0.5 90.1355 3.8645 93.5 8 93.5H26C30.1355 93.5 33.5 90.1355 33.5 86V84.5H69.5H71H92.2715L88.9955 64.844C88.9685 57.7775 87.173 50.768 83.789 44.564ZM85.964 63.8645L71.3405 67.853L67.814 65.0315C66.026 63.599 65 61.4645 65 59.174V47V45.5C66.6545 45.5 68 46.8455 68 48.5V59H71V56.621L81.311 46.31C84.1955 51.71 85.787 57.746 85.964 63.8645ZM65 42.5C63.3455 42.5 62 43.8455 62 45.5V47C62 47.8265 61.3265 48.5 60.5 48.5C59.6735 48.5 59 47.8265 59 47V45.5C59 42.191 61.691 39.5 65 39.5H68.879L65.798 42.581C65.534 42.545 65.273 42.5 65 42.5ZM48.5735 68.108L50.5475 63.17L54.83 67.4525L49.8905 69.428C49.256 69.686 48.5 69.1745 48.5 68.4845C48.5 68.354 48.524 68.228 48.5735 68.108ZM57.5 65.879L52.121 60.5L61.1915 51.4295C61.472 51.386 61.7405 51.3155 62 51.2225V59.1725C62 59.8535 62.078 60.5195 62.204 61.1735L57.5 65.879ZM56.276 48.5H39.5V42.5H56.525C56.192 43.4405 56 44.447 56 45.5V47C56 47.528 56.108 48.029 56.276 48.5ZM39.5 51.5H56.879L50.879 57.5H39.5V51.5ZM39.5 60.5H48.3845L45.9845 66.5H39.5V60.5ZM39.5 69.5H45.647C46.1 71.2205 47.6555 72.5 49.517 72.5C50.0315 72.5 50.534 72.404 51.008 72.2135L54.5 70.8155V75.5H39.5V69.5ZM57.5 69.6155L58.343 69.278L63.338 64.283C63.392 64.3805 63.4415 64.4795 63.5 64.5755V75.5H57.5V69.6155ZM66.5 67.82L69.5 70.22V75.5H66.5V67.82ZM90.5 31.304C90.5 32.3195 90.104 33.275 89.3855 33.9935L71 52.379V48.5C71 46.622 70.115 44.963 68.759 43.862L84.0065 28.6145C84.725 27.896 85.6805 27.5 86.696 27.5C88.793 27.5 90.5 29.207 90.5 31.304ZM30.5 5.621V14C30.5 14.8265 29.8265 15.5 29 15.5H20.621L30.5 5.621ZM17 24.5C24.443 24.5 30.5 30.557 30.5 38C30.5 45.443 24.443 51.5 17 51.5C9.557 51.5 3.5 45.443 3.5 38C3.5 30.557 9.557 24.5 17 24.5ZM9.5 52.679C11.753 53.834 14.2985 54.5 17 54.5C19.7015 54.5 22.247 53.834 24.5 52.679V60.5H9.5V52.679ZM26 90.5H8C5.519 90.5 3.5 88.481 3.5 86V47.4575C4.3535 48.6725 5.3585 49.7735 6.5 50.7185V60.5C6.5 62.1545 7.8455 63.5 9.5 63.5H24.5C26.1545 63.5 27.5 62.1545 27.5 60.5V50.7185C28.6415 49.7735 29.6465 48.6725 30.5 47.4575V86C30.5 88.481 28.481 90.5 26 90.5ZM33.5 81.5V38C33.5 29.408 26.897 22.337 18.5 21.5765V18.5H29C31.481 18.5 33.5 16.481 33.5 14V3.5H80C80.8265 3.5 81.5 4.1735 81.5 5V26.879L71.879 36.5H65C62.3435 36.5 59.96 37.664 58.31 39.5H36.5V78.5H69.5V81.5H33.5ZM72.5 81.5V70.646L86.2925 66.884L88.7285 81.5H72.5Z" fill="#93C0DD"/>
<path d="M15.5 45.2825V48.5H18.5V45.2825C20.2325 44.7335 21.5 43.13 21.5 41.219C21.5 39.5885 20.594 38.12 19.133 37.3895L16.208 35.9285C15.7715 35.7095 15.5 35.27 15.5 34.781C15.5 34.0745 16.0745 33.5 16.781 33.5H17.219C17.9255 33.5 18.5 34.0745 18.5 34.781V36.5H21.5V34.781C21.5 32.87 20.2325 31.2665 18.5 30.7175V27.5H15.5V30.7175C13.7675 31.2665 12.5 32.87 12.5 34.781C12.5 36.4115 13.406 37.88 14.867 38.6105L17.792 40.0715C18.2285 40.2905 18.5 40.73 18.5 41.219C18.5 41.9255 17.9255 42.5 17.219 42.5H16.781C16.0745 42.5 15.5 41.9255 15.5 41.219V39.5H12.5V41.219C12.5 43.13 13.7675 44.7335 15.5 45.2825Z" fill="#93C0DD"/>
<path d="M24.5 66.5H9.5C7.8455 66.5 6.5 67.8455 6.5 69.5V84.5C6.5 86.1545 7.8455 87.5 9.5 87.5H24.5C26.1545 87.5 27.5 86.1545 27.5 84.5V69.5C27.5 67.8455 26.1545 66.5 24.5 66.5ZM24.5 72.5H21.5V69.5H24.5V72.5ZM18.5 84.5H15.5V81.5H18.5V84.5ZM18.5 78.5H15.5V75.5H18.5V78.5ZM12.5 78.5H9.5V75.5H12.5V78.5ZM15.5 72.5V69.5H18.5V72.5H15.5ZM12.5 69.5V72.5H9.5V69.5H12.5ZM9.5 81.5H12.5V84.5H9.5V81.5ZM21.5 84.5V75.5H24.5015L24.503 84.5H21.5Z" fill="#93C0DD"/>
<path d="M78.5 6.5H36.5V15.5H78.5V6.5ZM75.5 12.5H39.5V9.5H75.5V12.5Z" fill="#93C0DD"/>
<path d="M36.5 18.5H78.5V21.5H36.5V18.5Z" fill="#93C0DD"/>
<path d="M36.5 24.5H78.5V27.5H36.5V24.5Z" fill="#93C0DD"/>
<path d="M36.5 30.5H60.5V33.5H36.5V30.5Z" fill="#93C0DD"/>
</svg>