<svg width="64" height="64" viewBox="0 0 64 64" fill="none" xmlns="http://www.w3.org/2000/svg">
<g clip-path="url(#clip0)">
<path d="M30.9679 47.3049V53.6446H33.0324V47.3049C34.8081 46.8432 36.1292 45.2414 36.1292 43.322C36.1292 41.0453 34.2773 39.193 32.0001 39.193C29.7229 39.193 27.8711 41.0453 27.8711 43.322C27.8711 45.2414 29.1922 46.8432 30.9679 47.3049ZM32.0001 41.2575C33.1387 41.2575 34.0646 42.1839 34.0646 43.322C34.0646 44.4606 33.1387 45.3865 32.0001 45.3865C30.8615 45.3865 29.9356 44.4606 29.9356 43.322C29.9356 42.1839 30.8615 41.2575 32.0001 41.2575Z" fill="#93C0DD"/>
<path d="M54.7097 20.494V8.2253H42.0025L34.4909 0.97379C33.1457 -0.324597 30.8533 -0.324597 29.5071 0.97379L21.9975 8.2253H9.29032V20.494L0 29.4642V63.9672H64V29.4642L54.7097 20.494ZM20.7792 44.8296C20.9693 46.3508 21.371 47.8095 21.9698 49.1688L2.06452 61.1124V31.8735L20.7792 44.8296ZM11.3548 18.5479H52.6452V35.7928L43.3548 42.2248V38.6769L42.942 38.3674C42.878 38.3201 42.2928 37.8926 41.2903 37.3619V31.9672C41.2903 26.8443 37.122 22.6769 32 22.6769C26.878 22.6769 22.7097 26.8443 22.7097 31.9672V37.3619C21.7061 37.8926 21.121 38.3201 21.058 38.3674L20.6452 38.6769V42.2248L11.3548 35.7928V18.5479ZM22.7097 42.8679V39.7455C23.8619 39.0232 27.3271 37.13 32 37.13C36.6749 37.13 40.1406 39.0242 41.2903 39.7455V42.8679C41.2903 48.751 37.5701 53.8543 32 55.6608C26.4299 53.8533 22.7097 48.751 22.7097 42.8679ZM39.2258 36.4239C38.6043 36.1835 37.9138 35.9531 37.1613 35.7505V31.9672C37.1613 29.1215 34.8458 26.8059 32 26.8059C29.1542 26.8059 26.8387 29.1215 26.8387 31.9672V35.7515C26.0862 35.9541 25.3957 36.1845 24.7742 36.4249V31.9672C24.7742 27.9839 28.0156 24.7414 32 24.7414C35.9844 24.7414 39.2258 27.9839 39.2258 31.9672V36.4239ZM35.0968 35.314C34.1315 35.1613 33.1003 35.064 32 35.064C30.8997 35.064 29.8684 35.1613 28.9032 35.314V31.9672C28.9032 30.2601 30.2928 28.8705 32 28.8705C33.7072 28.8705 35.0968 30.2601 35.0968 31.9672V35.314ZM22.9274 51.0025C24.8659 54.1653 27.9289 56.5993 31.7036 57.7303L32 57.8196L32.2964 57.7303C36.0711 56.5983 39.1341 54.1643 41.0726 51.0015L59.2414 61.9027H4.75857L22.9274 51.0025ZM42.0302 49.1688C42.629 47.8095 43.0307 46.3508 43.2208 44.8286L61.9355 31.8735V61.1124L42.0302 49.1688ZM61.3453 29.7707L54.7097 34.3644V23.3659L61.3453 29.7707ZM30.942 2.45917C31.5136 1.90927 32.4874 1.90927 33.057 2.45917L39.0297 8.2253H24.9703L30.942 2.45917ZM52.6452 10.2898V16.4834H11.3548V10.2898H52.6452ZM9.29032 34.3644L2.65474 29.7707L9.29032 23.3659V34.3644Z" fill="#93C0DD"/>
<path d="M13.4199 12.3544H15.4844V14.4189H13.4199V12.3544Z" fill="#93C0DD"/>
<path d="M17.5469 12.3544H19.6114V14.4189H17.5469V12.3544Z" fill="#93C0DD"/>
<path d="M21.6777 12.3544H23.7423V14.4189H21.6777V12.3544Z" fill="#93C0DD"/>
<path d="M13.4199 20.6123H20.6457V22.6768H13.4199V20.6123Z" fill="#93C0DD"/>
<path d="M13.4199 24.7415H20.6457V26.806H13.4199V24.7415Z" fill="#93C0DD"/>
<path d="M13.4199 28.8705H20.6457V30.935H13.4199V28.8705Z" fill="#93C0DD"/>
<path d="M43.3555 20.6123H50.5813V22.6768H43.3555V20.6123Z" fill="#93C0DD"/>
<path d="M43.3555 24.7415H50.5813V26.806H43.3555V24.7415Z" fill="#93C0DD"/>
<path d="M43.3555 28.8705H50.5813V30.935H43.3555V28.8705Z" fill="#93C0DD"/>
</g>
<defs>
<clipPath id="clip0">
<rect width="64" height="64" fill="white"/>
</clipPath>
</defs>
</svg>