<svg width="78" height="96" viewBox="0 0 78 96" fill="none" xmlns="http://www.w3.org/2000/svg">
<path d="M62.892 37.2209L60.7344 39.5793L70.5468 48.5745C72.8568 50.6997 74.1736 53.6941 74.1744 56.8321V96.0002H77.3744V56.8321C77.3704 52.7961 75.6776 48.9473 72.7056 46.2157L62.892 37.2209Z" fill="#93C0DD"/>
<path d="M50.1742 0H8.57422C4.15822 0.0056 0.579819 3.584 0.574219 8V88C0.579819 92.416 4.15822 95.9944 8.57422 96H48.5742V93.1376C48.5666 85.93 50.7002 78.8808 54.7054 72.888C55.1294 72.2528 55.0442 71.4076 54.5054 70.8688L43.3054 59.6688C42.2702 58.6324 41.7214 57.2072 41.7938 55.7444C41.8666 54.2808 42.5542 52.9176 43.6862 51.9888C45.8666 50.322 48.9502 50.56 50.8494 52.5404L66.643 68.3344L68.9054 66.072L58.1742 55.3376V8C58.1686 3.584 54.5902 0.0056 50.1742 0ZM54.9742 52.1376L53.1118 50.2752C50.0422 47.1392 45.1054 46.8124 41.6494 49.5176C39.8214 51.02 38.7122 53.2256 38.5966 55.59C38.4814 57.954 39.3694 60.2568 41.043 61.9312L51.331 72.2196C47.4942 78.4024 45.4366 85.524 45.3854 92.8H8.57422C5.92382 92.8 3.77422 90.6504 3.77422 88V83.2H43.7742V80H3.77422V12.8H54.9742V52.1376ZM54.9742 9.6H3.77422V8C3.77422 5.3496 5.92382 3.2 8.57422 3.2H50.1742C52.8246 3.2 54.9742 5.3496 54.9742 8V9.6Z" fill="#93C0DD"/>
<path d="M10.1726 28.7997H16.5726C18.3402 28.7997 19.7726 27.3673 19.7726 25.5997V19.1997C19.7726 17.4321 18.3402 15.9998 16.5726 15.9998H10.1726C8.40505 15.9998 6.97266 17.4321 6.97266 19.1997V25.5997C6.97266 27.3673 8.40505 28.7997 10.1726 28.7997ZM10.1726 19.1997H16.5726V25.5997H10.1726V19.1997Z" fill="#93C0DD"/>
<path d="M26.1726 28.7997H32.5726C34.3402 28.7997 35.7726 27.3673 35.7726 25.5997V19.1997C35.7726 17.4321 34.3402 15.9998 32.5726 15.9998H26.1726C24.405 15.9998 22.9727 17.4321 22.9727 19.1997V25.5997C22.9727 27.3673 24.405 28.7997 26.1726 28.7997ZM26.1726 19.1997H32.5726V25.5997H26.1726V19.1997Z" fill="#93C0DD"/>
<path d="M42.1746 28.7997H48.5746C50.3422 28.7997 51.7746 27.3673 51.7746 25.5997V19.1997C51.7746 17.4321 50.3422 15.9998 48.5746 15.9998H42.1746C40.407 15.9998 38.9746 17.4321 38.9746 19.1997V25.5997C38.9746 27.3673 40.407 28.7997 42.1746 28.7997ZM42.1746 19.1997H48.5746V25.5997H42.1746V19.1997Z" fill="#93C0DD"/>
<path d="M10.1726 44.8003H16.5726C18.3402 44.8003 19.7726 43.3679 19.7726 41.6003V35.2003C19.7726 33.4327 18.3402 32.0002 16.5726 32.0002H10.1726C8.40505 32.0002 6.97266 33.4327 6.97266 35.2003V41.6003C6.97266 43.3679 8.40505 44.8003 10.1726 44.8003ZM10.1726 35.2003H16.5726V41.6003H10.1726V35.2003Z" fill="#93C0DD"/>
<path d="M10.1726 60.7999H16.5726C18.3402 60.7999 19.7726 59.3675 19.7726 57.6V51.2C19.7726 49.4324 18.3402 48 16.5726 48H10.1726C8.40505 48 6.97266 49.4324 6.97266 51.2V57.6C6.97266 59.3675 8.40505 60.7999 10.1726 60.7999ZM10.1726 51.2H16.5726V57.6H10.1726V51.2Z" fill="#93C0DD"/>
<path d="M26.1726 44.8003H32.5726C34.3402 44.8003 35.7726 43.3679 35.7726 41.6003V35.2003C35.7726 33.4327 34.3402 32.0002 32.5726 32.0002H26.1726C24.405 32.0002 22.9727 33.4327 22.9727 35.2003V41.6003C22.9727 43.3679 24.405 44.8003 26.1726 44.8003ZM26.1726 35.2003H32.5726V41.6003H26.1726V35.2003Z" fill="#93C0DD"/>
<path d="M42.1746 44.8003H48.5746C50.3422 44.8003 51.7746 43.3679 51.7746 41.6003V35.2003C51.7746 33.4327 50.3422 32.0002 48.5746 32.0002H42.1746C40.407 32.0002 38.9746 33.4327 38.9746 35.2003V41.6003C38.9746 43.3679 40.407 44.8003 42.1746 44.8003ZM42.1746 35.2003H48.5746V41.6003H42.1746V35.2003Z" fill="#93C0DD"/>
<path d="M26.1726 60.7999H32.5726C34.3402 60.7999 35.7726 59.3675 35.7726 57.6V51.2C35.7726 49.4324 34.3402 48 32.5726 48H26.1726C24.405 48 22.9727 49.4324 22.9727 51.2V57.6C22.9727 59.3675 24.405 60.7999 26.1726 60.7999ZM26.1726 51.2H32.5726V57.6H26.1726V51.2Z" fill="#93C0DD"/>
<path d="M10.1726 76.7999H16.5726C18.3402 76.7999 19.7726 75.3675 19.7726 73.5999V67.1998C19.7726 65.4322 18.3402 63.9998 16.5726 63.9998H10.1726C8.40505 63.9998 6.97266 65.4322 6.97266 67.1998V73.5999C6.97266 75.3675 8.40505 76.7999 10.1726 76.7999ZM10.1726 67.1998H16.5726V73.5999H10.1726V67.1998Z" fill="#93C0DD"/>
<path d="M26.1726 76.7999H32.5726C34.3402 76.7999 35.7726 75.3675 35.7726 73.5999V67.1998C35.7726 65.4322 34.3402 63.9998 32.5726 63.9998H26.1726C24.405 63.9998 22.9727 65.4322 22.9727 67.1998V73.5999C22.9727 75.3675 24.405 76.7999 26.1726 76.7999ZM26.1726 67.1998H32.5726V73.5999H26.1726V67.1998Z" fill="#93C0DD"/>
<path d="M27.7734 86.3997H30.9734V89.5996H27.7734V86.3997Z" fill="#93C0DD"/>
</svg>
