<svg width="88" height="77" viewBox="0 0 88 77" fill="none" xmlns="http://www.w3.org/2000/svg">
<path d="M43.9998 22.0001C43.7762 22.0001 43.5525 21.9598 43.3398 21.8791L19.5063 12.7124C18.7987 12.4411 18.333 11.7591 18.333 11.0001C18.333 10.2411 18.7987 9.55906 19.5063 9.28773L43.3398 0.121001C43.7652 -0.0403336 44.2308 -0.0403336 44.6562 0.121001L68.4897 9.28773C69.201 9.55906 69.6667 10.2411 69.6667 11.0001C69.6667 11.7591 69.201 12.4411 68.4933 12.7124L44.6598 21.8791C44.4472 21.9598 44.2235 22.0001 43.9998 22.0001ZM25.2741 11.0001L43.9998 18.2015L62.7256 11.0001L43.9998 3.79869L25.2741 11.0001Z" fill="#93C0DD"/>
<path d="M43.9998 51.3332C43.7762 51.3332 43.5525 51.2929 43.3398 51.2122L19.5063 42.0455C18.7987 41.7741 18.333 41.0921 18.333 40.3331V10.9996C18.333 9.9876 19.1543 9.16626 20.1664 9.16626C21.1784 9.16626 21.9997 9.9876 21.9997 10.9996V39.0755L43.9998 47.5382L66 39.0755V10.9996C66 9.9876 66.8213 9.16626 67.8333 9.16626C68.8453 9.16626 69.6667 9.9876 69.6667 10.9996V40.3331C69.6667 41.0921 69.201 41.7741 68.4933 42.0455L44.6598 51.2122C44.4472 51.2929 44.2235 51.3332 43.9998 51.3332Z" fill="#93C0DD"/>
<path d="M43.9984 51.3335C42.9864 51.3335 42.165 50.5121 42.165 49.5001V20.1666C42.165 19.1546 42.9864 18.3333 43.9984 18.3333C45.0104 18.3333 45.8317 19.1546 45.8317 20.1666V49.5001C45.8317 50.5121 45.0104 51.3335 43.9984 51.3335Z" fill="#93C0DD"/>
<path d="M38.501 77.0002C37.9437 77.0002 37.3937 76.7472 37.0344 76.2669C36.4257 75.4566 36.5907 74.3089 37.401 73.7002L42.7764 69.6669L37.401 65.6335C36.5907 65.0248 36.4257 63.8772 37.0344 63.0668C37.643 62.2565 38.7907 62.0951 39.601 62.7001L46.9344 68.2002C47.3964 68.5448 47.6677 69.0912 47.6677 69.6669C47.6677 70.2425 47.3964 70.7889 46.9344 71.1335L39.601 76.6336C39.271 76.8792 38.886 77.0002 38.501 77.0002Z" fill="#93C0DD"/>
<path d="M44.0003 71.5001C38.4562 71.5001 33.2092 71.2361 28.4022 70.7191C21.7508 70.0481 0 67.1954 0 58.6667C0 55.187 3.58969 52.2793 10.6627 50.0279C11.8251 49.6686 13.0718 50.5743 13.0718 51.777C13.0718 52.6643 12.4557 53.405 11.6197 53.5736C5.75304 55.462 3.66669 57.497 3.66669 58.6667C3.66669 61.1087 11.4584 65.3254 28.7835 67.0707C33.4696 67.5767 38.5846 67.8334 44.0003 67.8334C45.0123 67.8334 45.8336 68.6547 45.8336 69.6667C45.8336 70.6787 45.0123 71.5001 44.0003 71.5001Z" fill="#93C0DD"/>
<path d="M56.7968 70.9501C55.8508 70.9501 55.0478 70.2241 54.9708 69.2671C54.8901 68.2588 55.6418 67.3714 56.6501 67.2907C75.5336 65.7471 84.3336 61.2334 84.3336 58.6667C84.3336 57.486 82.2106 55.429 76.2229 53.5223C75.2586 53.2143 74.7269 52.184 75.0312 51.2196C75.3392 50.2553 76.3659 49.7236 77.3339 50.028C84.4106 52.2793 88.0003 55.187 88.0003 58.6667C88.0003 67.7051 64.2328 70.3488 56.9471 70.9464C56.8958 70.9501 56.8445 70.9501 56.7968 70.9501Z" fill="#93C0DD"/>
</svg>
