<svg width="52" height="94" viewBox="0 0 52 94" fill="none" xmlns="http://www.w3.org/2000/svg">
<path d="M45.5 0.5H6.5C4.90934 0.502084 3.38443 1.13489 2.25966 2.25966C1.13489 3.38443 0.502084 4.90934 0.5 6.5V87.5C0.502084 89.0907 1.13489 90.6156 2.25966 91.7403C3.38443 92.8651 4.90934 93.4979 6.5 93.5H45.5C47.0907 93.4979 48.6156 92.8651 49.7403 91.7403C50.8651 90.6156 51.4979 89.0907 51.5 87.5V6.5C51.4979 4.90934 50.8651 3.38443 49.7403 2.25966C48.6156 1.13489 47.0907 0.502084 45.5 0.5ZM33.02 3.5L32.1763 6.5H19.6719L18.9219 3.5H33.02ZM48.5 87.5C48.499 88.2953 48.1826 89.0578 47.6202 89.6202C47.0578 90.1826 46.2953 90.499 45.5 90.5H6.5C5.70467 90.499 4.94221 90.1826 4.37983 89.6202C3.81745 89.0578 3.50104 88.2953 3.5 87.5V6.5C3.50104 5.70467 3.81745 4.94221 4.37983 4.37983C4.94221 3.81745 5.70467 3.50104 6.5 3.5H15.8281L17.045 8.36375C17.1261 8.68826 17.3134 8.97635 17.577 9.18222C17.8406 9.3881 18.1655 9.49995 18.5 9.5H33.3125C33.6394 9.5 33.9573 9.39321 34.2179 9.19589C34.4786 8.99856 34.6676 8.72151 34.7563 8.40687L36.1362 3.5H45.5C46.2953 3.50104 47.0578 3.81745 47.6202 4.37983C48.1826 4.94221 48.499 5.70467 48.5 6.5V87.5Z" fill="#93C0DD"/>
<path d="M18.5 84.5H8C7.60218 84.5 7.22064 84.658 6.93934 84.9393C6.65803 85.2206 6.5 85.6022 6.5 86C6.5 86.3978 6.65803 86.7794 6.93934 87.0607C7.22064 87.342 7.60218 87.5 8 87.5H18.5C18.8978 87.5 19.2794 87.342 19.5607 87.0607C19.842 86.7794 20 86.3978 20 86C20 85.6022 19.842 85.2206 19.5607 84.9393C19.2794 84.658 18.8978 84.5 18.5 84.5Z" fill="#93C0DD"/>
<path d="M24.5 84.5H23C22.6022 84.5 22.2206 84.658 21.9393 84.9393C21.658 85.2206 21.5 85.6022 21.5 86C21.5 86.3978 21.658 86.7794 21.9393 87.0607C22.2206 87.342 22.6022 87.5 23 87.5H24.5C24.8978 87.5 25.2794 87.342 25.5607 87.0607C25.842 86.7794 26 86.3978 26 86C26 85.6022 25.842 85.2206 25.5607 84.9393C25.2794 84.658 24.8978 84.5 24.5 84.5Z" fill="#93C0DD"/>
<path d="M31.2718 38.2135C31.1029 38.1122 30.9156 38.0451 30.7208 38.0161C30.526 37.9871 30.3273 37.9968 30.1362 38.0445C29.9451 38.0923 29.7653 38.1773 29.607 38.2945C29.4487 38.4118 29.3151 38.5591 29.2138 38.728L20.2138 53.728C20.0091 54.0691 19.9483 54.4776 20.0448 54.8635C20.1413 55.2495 20.3871 55.5813 20.7283 55.786C21.0694 55.9907 21.4779 56.0514 21.8638 55.955C22.2498 55.8585 22.5816 55.6126 22.7863 55.2715L31.7863 40.2715C31.8876 40.1026 31.9547 39.9154 31.9837 39.7205C32.0127 39.5257 32.003 39.3271 31.9552 39.136C31.9075 38.9449 31.8225 38.765 31.7053 38.6068C31.588 38.4485 31.4407 38.3149 31.2718 38.2135Z" fill="#93C0DD"/>
<path d="M36.1716 38.5628C36.0485 38.409 35.8963 38.2809 35.7237 38.1859C35.5511 38.0909 35.3614 38.0309 35.1656 38.0091C34.7701 37.9653 34.3734 38.0803 34.0628 38.329C33.7521 38.5776 33.553 38.9395 33.5091 39.335C33.4653 39.7304 33.5803 40.1271 33.829 40.4378L39.079 47.0003L33.829 53.5628C33.5803 53.8735 33.4653 54.2702 33.5091 54.6656C33.553 55.0611 33.7521 55.423 34.0628 55.6716C34.3734 55.9203 34.7701 56.0353 35.1656 55.9915C35.5611 55.9476 35.923 55.7485 36.1716 55.4378L42.1716 47.9378C42.3846 47.6718 42.5007 47.3411 42.5007 47.0003C42.5007 46.6595 42.3846 46.3288 42.1716 46.0628L36.1716 38.5628Z" fill="#93C0DD"/>
<path d="M15.829 55.4371C16.0777 55.7477 16.4395 55.9469 16.835 55.9907C17.2305 56.0346 17.6272 55.9195 17.9378 55.6709C18.2485 55.4223 18.4477 55.0604 18.4915 54.6649C18.5353 54.2694 18.4203 53.8727 18.1717 53.5621L12.9217 46.9996L18.1717 40.4371C18.2948 40.2832 18.3864 40.1067 18.4413 39.9175C18.4961 39.7282 18.5132 39.5301 18.4915 39.3342C18.4698 39.1384 18.4097 38.9488 18.3147 38.7762C18.2197 38.6036 18.0917 38.4514 17.9378 38.3283C17.784 38.2051 17.6075 38.1135 17.4182 38.0586C17.229 38.0038 17.0308 37.9867 16.835 38.0084C16.6392 38.0301 16.4496 38.0902 16.277 38.1852C16.1044 38.2802 15.9522 38.4082 15.829 38.5621L9.82906 46.0621C9.61606 46.3281 9.5 46.6588 9.5 46.9996C9.5 47.3404 9.61606 47.671 9.82906 47.9371L15.829 55.4371Z" fill="#93C0DD"/>
</svg>
