<svg width="88" height="88" viewBox="0 0 88 88" fill="none" xmlns="http://www.w3.org/2000/svg">
<path d="M23.833 73.332C23.4186 73.332 23.0043 73.1926 22.6633 72.9066C21.886 72.2576 21.7797 71.1027 22.4287 70.3253L26.3446 65.6248C29.0689 62.3578 29.5969 57.7893 27.6976 53.987C27.3456 53.283 27.4812 52.4287 28.0422 51.8714L34.7264 45.1872C37.3994 42.5142 37.3994 38.1583 34.7264 35.4854L14.0798 54.5187C13.3355 55.208 12.1769 55.1567 11.4876 54.4123C10.8019 53.668 10.8496 52.5057 11.5939 51.8201L32.2405 32.7904C33.6924 31.4521 35.9254 31.4961 37.3187 32.8931C41.4253 36.9997 41.4253 43.6766 37.3187 47.7831L31.5218 53.58C33.3991 58.4163 32.5301 63.9381 29.1642 67.9787L25.2409 72.672C24.878 73.1083 24.3573 73.332 23.833 73.332Z" fill="#93C0DD"/>
<path d="M31.166 87.9981H1.8333C0.821317 87.9981 0 87.1768 0 86.1648V58.3134C0 49.7593 4.06992 41.5681 10.8861 36.3982L18.509 30.6197C19.3156 30.0073 20.4669 30.1687 21.0792 30.9717C21.6916 31.7783 21.5339 32.9296 20.7272 33.5419L13.1044 39.3205C7.19385 43.801 3.66659 50.8996 3.66659 58.3134V84.3315H29.3327V78.839C29.3327 77.827 30.1541 77.0057 31.166 77.0057H32.9993C36.0316 77.0057 38.4992 74.5381 38.4992 71.5058V60.4987C38.4992 59.4867 39.3205 58.6654 40.3325 58.6654C41.3445 58.6654 42.1658 59.4867 42.1658 60.4987V71.5058C42.1658 76.5584 38.0519 80.6723 32.9993 80.6723V86.1648C32.9993 87.1768 32.178 87.9981 31.166 87.9981Z" fill="#93C0DD"/>
<path d="M86.1645 54.9989C85.1525 54.9989 84.3312 54.1776 84.3312 53.1656C84.3312 52.1537 83.5099 51.3324 82.4979 51.3324C79.4657 51.3324 76.998 48.8647 76.998 45.8325V41.1026C76.998 40.0906 77.8194 39.2693 78.8313 39.2693C79.8433 39.2693 80.6646 40.0906 80.6646 41.1026V45.8325C80.6646 46.8445 81.486 47.6658 82.4979 47.6658C85.5302 47.6658 87.9978 50.1334 87.9978 53.1656C87.9978 54.1776 87.1765 54.9989 86.1645 54.9989Z" fill="#93C0DD"/>
<path d="M80.6656 62.3321H30.5433C29.5313 62.3321 28.71 61.5108 28.71 60.4988C28.71 59.4868 29.5313 58.6655 30.5433 58.6655H80.6656C82.6859 58.6655 84.3322 57.0192 84.3322 54.9989V38.316C84.3322 37.304 85.1535 36.4827 86.1655 36.4827C87.1774 36.4827 87.9988 37.304 87.9988 38.316V54.9989C87.9988 59.0432 84.7098 62.3321 80.6656 62.3321Z" fill="#93C0DD"/>
<path d="M20.1663 48.2521C19.1543 48.2521 18.333 47.4308 18.333 46.4188V25.6659C18.333 21.6217 21.6219 18.3328 25.6662 18.3328H43.9992C45.0111 18.3328 45.8324 19.1541 45.8324 20.1661C45.8324 21.178 45.0111 21.9994 43.9992 21.9994H25.6662C23.6459 21.9994 21.9996 23.6457 21.9996 25.6659V46.4188C21.9996 47.4345 21.1783 48.2521 20.1663 48.2521Z" fill="#93C0DD"/>
<path d="M69.6669 16.3567C69.4433 16.3567 69.2196 16.3163 69.007 16.2357L52.5073 9.89246C51.7996 9.62114 51.334 8.93915 51.334 8.18017C51.334 7.42118 51.7996 6.7392 52.5073 6.46787L69.007 0.120998C69.4323 -0.0403325 69.8979 -0.0403325 70.3233 0.120998L86.8229 6.46787C87.5343 6.7392 87.9999 7.42118 87.9999 8.18017C87.9999 8.93915 87.5342 9.62114 86.8266 9.89246L70.3269 16.2357C70.1143 16.3163 69.8906 16.3567 69.6669 16.3567ZM58.2748 8.18017L69.6669 12.5617L81.059 8.18017L69.6669 3.79859L58.2748 8.18017Z" fill="#93C0DD"/>
<path d="M69.6669 36.666C69.4433 36.666 69.2196 36.6256 69.007 36.545L52.5073 30.1981C51.7996 29.9268 51.334 29.2448 51.334 28.4858V8.18022C51.334 7.16824 52.1553 6.34692 53.1673 6.34692C54.1793 6.34692 55.0006 7.16824 55.0006 8.18022V27.2282L69.6669 32.8711L84.3333 27.2282V8.18022C84.3333 7.16824 85.1546 6.34692 86.1666 6.34692C87.1786 6.34692 87.9999 7.16824 87.9999 8.18022V28.4858C87.9999 29.2448 87.5342 29.9268 86.8266 30.1981L70.3269 36.545C70.1143 36.6256 69.8906 36.666 69.6669 36.666Z" fill="#93C0DD"/>
<path d="M69.6673 36.6659C68.6553 36.6659 67.834 35.8446 67.834 34.8326V14.5234C67.834 13.5114 68.6553 12.6901 69.6673 12.6901C70.6792 12.6901 71.5006 13.5114 71.5006 14.5234V34.8326C71.5006 35.8446 70.6792 36.6659 69.6673 36.6659Z" fill="#93C0DD"/>
</svg>
