<svg width="96" height="96" viewBox="0 0 96 96" fill="none" xmlns="http://www.w3.org/2000/svg">
<path d="M88.5 4.5H7.5C6.30695 4.50139 5.16317 4.97594 4.31955 5.81955C3.47594 6.66317 3.00139 7.80695 3 9V87C3.00139 88.193 3.47594 89.3368 4.31955 90.1804C5.16317 91.0241 6.30695 91.4986 7.5 91.5H88.5C89.693 91.4986 90.8368 91.0241 91.6804 90.1804C92.5241 89.3368 92.9986 88.193 93 87V9C92.9986 7.80695 92.5241 6.66317 91.6804 5.81955C90.8368 4.97594 89.693 4.50139 88.5 4.5ZM7.5 7.5H88.5C88.8977 7.50045 89.279 7.65863 89.5602 7.93983C89.8414 8.22104 89.9995 8.60231 90 9V16.5H6V9C6.00045 8.60231 6.15863 8.22104 6.43983 7.93983C6.72104 7.65863 7.10231 7.50045 7.5 7.5ZM88.5 88.5H7.5C7.10231 88.4995 6.72104 88.3414 6.43983 88.0602C6.15863 87.779 6.00045 87.3977 6 87V19.5H90V87C89.9995 87.3977 89.8414 87.779 89.5602 88.0602C89.279 88.3414 88.8977 88.4995 88.5 88.5Z" fill="#93C0DD"/>
<path d="M22.5 13.5C23.3284 13.5 24 12.8284 24 12C24 11.1716 23.3284 10.5 22.5 10.5C21.6716 10.5 21 11.1716 21 12C21 12.8284 21.6716 13.5 22.5 13.5Z" fill="#93C0DD"/>
<path d="M16.5 13.5C17.3284 13.5 18 12.8284 18 12C18 11.1716 17.3284 10.5 16.5 10.5C15.6716 10.5 15 11.1716 15 12C15 12.8284 15.6716 13.5 16.5 13.5Z" fill="#93C0DD"/>
<path d="M10.5 13.5C11.3284 13.5 12 12.8284 12 12C12 11.1716 11.3284 10.5 10.5 10.5C9.67157 10.5 9 11.1716 9 12C9 12.8284 9.67157 13.5 10.5 13.5Z" fill="#93C0DD"/>
<path d="M18.0015 70.5C16.8497 70.5001 15.7223 70.8317 14.7539 71.4552C13.7855 72.0787 13.017 72.9678 12.5402 74.0162C12.0634 75.0647 11.8985 76.2282 12.0651 77.3679C12.2317 78.5076 12.7228 79.5752 13.4798 80.4433C13.5015 80.4689 13.5239 80.4939 13.5469 80.5183C14.1093 81.142 14.7965 81.6407 15.5638 81.982C16.3312 82.3233 17.1617 82.4996 18.0015 82.4996C18.8414 82.4996 19.6718 82.3233 20.4392 81.982C21.2066 81.6407 21.8937 81.142 22.4561 80.5183C22.4791 80.4933 22.5015 80.4683 22.5233 80.4433C23.2802 79.5752 23.7713 78.5076 23.938 77.3679C24.1046 76.2282 23.9396 75.0647 23.4628 74.0162C22.986 72.9678 22.2175 72.0787 21.2491 71.4552C20.2807 70.8317 19.1533 70.5001 18.0015 70.5ZM20.2583 78.4763C20.2569 78.4778 20.2554 78.4796 20.2534 78.4817L20.2367 78.5004C19.9554 78.815 19.611 79.0666 19.2258 79.2389C18.8406 79.4112 18.4234 79.5002 18.0015 79.5002C17.5796 79.5002 17.1624 79.4112 16.7772 79.2389C16.392 79.0666 16.0476 78.815 15.7663 78.5004C15.7611 78.4944 15.7554 78.4884 15.75 78.4817L15.7448 78.4757C15.3649 78.042 15.1181 77.5081 15.0338 76.9379C14.9495 76.3676 15.0312 75.7851 15.2693 75.2601C15.5074 74.7351 15.8917 74.2898 16.3762 73.9775C16.8608 73.6651 17.425 73.4991 18.0015 73.4991C18.578 73.4991 19.1422 73.6651 19.6268 73.9775C20.1113 74.2898 20.4956 74.7351 20.7337 75.2601C20.9718 75.7851 21.0536 76.3676 20.9692 76.9379C20.8849 77.5081 20.6381 78.042 20.2583 78.4757V78.4763Z" fill="#93C0DD"/>
<path d="M48.0015 70.5C46.8497 70.5001 45.7223 70.8317 44.7539 71.4552C43.7855 72.0787 43.017 72.9678 42.5402 74.0162C42.0634 75.0647 41.8985 76.2282 42.0651 77.3679C42.2317 78.5076 42.7228 79.5752 43.4798 80.4433C43.5015 80.4689 43.5239 80.4939 43.5469 80.5183C44.1093 81.142 44.7964 81.6407 45.5638 81.982C46.3312 82.3233 47.1617 82.4996 48.0015 82.4996C48.8413 82.4996 49.6718 82.3233 50.4392 81.982C51.2066 81.6407 51.8937 81.142 52.4561 80.5183C52.4793 80.4933 52.5016 80.4683 52.5233 80.4433C53.2802 79.5752 53.7713 78.5076 53.9379 77.3679C54.1046 76.2282 53.9396 75.0647 53.4628 74.0162C52.986 72.9678 52.2175 72.0787 51.2491 71.4552C50.2807 70.8317 49.1533 70.5001 48.0015 70.5ZM50.2583 78.4763C50.2569 78.4778 50.2554 78.4796 50.2534 78.4817L50.2367 78.5004C49.9554 78.815 49.611 79.0666 49.2258 79.2389C48.8406 79.4112 48.4234 79.5002 48.0015 79.5002C47.5796 79.5002 47.1624 79.4112 46.7772 79.2389C46.392 79.0666 46.0476 78.815 45.7663 78.5004C45.7611 78.4944 45.7554 78.4884 45.75 78.4817L45.7448 78.4757C45.3649 78.042 45.1181 77.5081 45.0338 76.9379C44.9495 76.3676 45.0312 75.7851 45.2693 75.2601C45.5074 74.7351 45.8917 74.2898 46.3762 73.9775C46.8608 73.6651 47.425 73.4991 48.0015 73.4991C48.578 73.4991 49.1422 73.6651 49.6268 73.9775C50.1113 74.2898 50.4956 74.7351 50.7337 75.2601C50.9718 75.7851 51.0536 76.3676 50.9692 76.9379C50.8849 77.5081 50.6381 78.042 50.2583 78.4757V78.4763Z" fill="#93C0DD"/>
<path d="M33.0015 70.5C31.8497 70.5001 30.7223 70.8317 29.7539 71.4552C28.7855 72.0787 28.017 72.9678 27.5402 74.0162C27.0634 75.0647 26.8985 76.2282 27.0651 77.3679C27.2317 78.5076 27.7228 79.5752 28.4798 80.4433C28.5015 80.4689 28.5239 80.4939 28.5469 80.5183C29.1093 81.142 29.7965 81.6407 30.5638 81.982C31.3312 82.3233 32.1617 82.4996 33.0015 82.4996C33.8414 82.4996 34.6718 82.3233 35.4392 81.982C36.2066 81.6407 36.8937 81.142 37.4561 80.5183C37.4791 80.4933 37.5015 80.4683 37.5233 80.4433C38.2802 79.5752 38.7714 78.5076 38.938 77.3679C39.1046 76.2282 38.9396 75.0647 38.4628 74.0162C37.986 72.9678 37.2176 72.0787 36.2491 71.4552C35.2807 70.8317 34.1533 70.5001 33.0015 70.5ZM35.2583 78.4763C35.2569 78.4778 35.2554 78.4796 35.2534 78.4817L35.2367 78.5004C34.9554 78.815 34.611 79.0666 34.2258 79.2389C33.8406 79.4112 33.4235 79.5002 33.0015 79.5002C32.5796 79.5002 32.1624 79.4112 31.7772 79.2389C31.392 79.0666 31.0476 78.815 30.7663 78.5004C30.7611 78.4944 30.7554 78.4884 30.75 78.4817L30.7448 78.4757C30.3649 78.042 30.1181 77.5081 30.0338 76.9379C29.9495 76.3676 30.0312 75.7851 30.2693 75.2601C30.5074 74.7351 30.8917 74.2898 31.3762 73.9775C31.8608 73.6651 32.425 73.4991 33.0015 73.4991C33.578 73.4991 34.1422 73.6651 34.6268 73.9775C35.1113 74.2898 35.4956 74.7351 35.7337 75.2601C35.9718 75.7851 36.0536 76.3676 35.9692 76.9379C35.8849 77.5081 35.6381 78.042 35.2583 78.4757V78.4763Z" fill="#93C0DD"/>
<path d="M63.0015 70.5C61.8497 70.5001 60.7223 70.8317 59.7539 71.4552C58.7855 72.0787 58.017 72.9678 57.5402 74.0162C57.0634 75.0647 56.8985 76.2282 57.0651 77.3679C57.2317 78.5076 57.7228 79.5752 58.4798 80.4433C58.5015 80.4689 58.5239 80.4939 58.5469 80.5183C59.1093 81.142 59.7964 81.6407 60.5638 81.982C61.3312 82.3233 62.1617 82.4996 63.0015 82.4996C63.8413 82.4996 64.6718 82.3233 65.4392 81.982C66.2066 81.6407 66.8937 81.142 67.4561 80.5183C67.4792 80.4933 67.5016 80.4683 67.5233 80.4433C68.2802 79.5752 68.7713 78.5076 68.9379 77.3679C69.1046 76.2282 68.9396 75.0647 68.4628 74.0162C67.986 72.9678 67.2175 72.0787 66.2491 71.4552C65.2807 70.8317 64.1533 70.5001 63.0015 70.5ZM65.2583 78.4763C65.2569 78.4778 65.2554 78.4796 65.2534 78.4817L65.2367 78.5004C64.9554 78.815 64.611 79.0666 64.2258 79.2389C63.8406 79.4112 63.4234 79.5002 63.0015 79.5002C62.5796 79.5002 62.1624 79.4112 61.7772 79.2389C61.392 79.0666 61.0476 78.815 60.7663 78.5004C60.7611 78.4944 60.7554 78.4884 60.75 78.4817L60.7448 78.4757C60.3649 78.042 60.1181 77.5081 60.0338 76.9379C59.9495 76.3676 60.0312 75.7851 60.2693 75.2601C60.5074 74.7351 60.8917 74.2898 61.3762 73.9775C61.8608 73.6651 62.425 73.4991 63.0015 73.4991C63.578 73.4991 64.1422 73.6651 64.6268 73.9775C65.1113 74.2898 65.4956 74.7351 65.7337 75.2601C65.9718 75.7851 66.0536 76.3676 65.9692 76.9379C65.8849 77.5081 65.6381 78.042 65.2583 78.4757V78.4763Z" fill="#93C0DD"/>
<path d="M78.0015 70.5C76.8497 70.5001 75.7223 70.8317 74.7539 71.4552C73.7855 72.0787 73.017 72.9678 72.5402 74.0162C72.0634 75.0647 71.8985 76.2282 72.0651 77.3679C72.2317 78.5076 72.7228 79.5752 73.4798 80.4433C73.5015 80.4689 73.5239 80.4939 73.5469 80.5183C74.1093 81.142 74.7964 81.6407 75.5638 81.982C76.3312 82.3233 77.1617 82.4996 78.0015 82.4996C78.8413 82.4996 79.6718 82.3233 80.4392 81.982C81.2066 81.6407 81.8937 81.142 82.4561 80.5183C82.4792 80.4933 82.5016 80.4683 82.5233 80.4433C83.2802 79.5752 83.7713 78.5076 83.9379 77.3679C84.1046 76.2282 83.9396 75.0647 83.4628 74.0162C82.986 72.9678 82.2175 72.0787 81.2491 71.4552C80.2807 70.8317 79.1533 70.5001 78.0015 70.5ZM80.2583 78.4763C80.2569 78.4778 80.2554 78.4796 80.2534 78.4817L80.2367 78.5004C79.9554 78.815 79.611 79.0666 79.2258 79.2389C78.8406 79.4112 78.4234 79.5002 78.0015 79.5002C77.5796 79.5002 77.1624 79.4112 76.7772 79.2389C76.392 79.0666 76.0476 78.815 75.7663 78.5004C75.7611 78.4944 75.7554 78.4884 75.75 78.4817L75.7448 78.4757C75.3649 78.042 75.1181 77.5081 75.0338 76.9379C74.9495 76.3676 75.0312 75.7851 75.2693 75.2601C75.5074 74.7351 75.8917 74.2898 76.3762 73.9775C76.8608 73.6651 77.425 73.4991 78.0015 73.4991C78.578 73.4991 79.1422 73.6651 79.6268 73.9775C80.1113 74.2898 80.4956 74.7351 80.7337 75.2601C80.9718 75.7851 81.0536 76.3676 80.9692 76.9379C80.8849 77.5081 80.6381 78.042 80.2583 78.4757V78.4763Z" fill="#93C0DD"/>
<path d="M82.5 25.5H13.5C13.1022 25.5 12.7206 25.658 12.4393 25.9393C12.158 26.2206 12 26.6022 12 27V63C12 63.3978 12.158 63.7794 12.4393 64.0607C12.7206 64.342 13.1022 64.5 13.5 64.5H82.5C82.8978 64.5 83.2794 64.342 83.5607 64.0607C83.842 63.7794 84 63.3978 84 63V27C84 26.6022 83.842 26.2206 83.5607 25.9393C83.2794 25.658 82.8978 25.5 82.5 25.5ZM81 61.5H15V28.5H81V61.5Z" fill="#93C0DD"/>
<path d="M19.5 43.5H22.5C22.8978 43.5 23.2794 43.342 23.5607 43.0607C23.842 42.7794 24 42.3978 24 42C24 41.6022 23.842 41.2206 23.5607 40.9393C23.2794 40.658 22.8978 40.5 22.5 40.5H19.5C19.1022 40.5 18.7206 40.658 18.4393 40.9393C18.158 41.2206 18 41.6022 18 42C18 42.3978 18.158 42.7794 18.4393 43.0607C18.7206 43.342 19.1022 43.5 19.5 43.5Z" fill="#93C0DD"/>
<path d="M49.5 55.4998H76.5C76.7786 55.4998 77.0516 55.4222 77.2886 55.2758C77.5256 55.1293 77.7171 54.9198 77.8417 54.6706C77.9662 54.4214 78.019 54.1425 77.994 53.8651C77.9689 53.5876 77.8672 53.3226 77.7 53.0998L68.7 41.0998C68.5603 40.9135 68.3791 40.7623 68.1708 40.6581C67.9625 40.554 67.7329 40.4998 67.5 40.4998C67.2671 40.4998 67.0375 40.554 66.8292 40.6581C66.6209 40.7623 66.4397 40.9135 66.3 41.0998L63.6386 44.6484L59.7863 38.228C59.653 38.0059 59.4645 37.8221 59.2391 37.6945C59.0137 37.5668 58.759 37.4998 58.5 37.4998C58.241 37.4998 57.9864 37.5668 57.761 37.6945C57.5355 37.8221 57.347 38.0059 57.2138 38.228L48.2138 53.228C48.0772 53.4556 48.0035 53.7154 48.0001 53.9809C47.9968 54.2463 48.0639 54.5078 48.1947 54.7388C48.3255 54.9698 48.5152 55.162 48.7446 55.2957C48.9739 55.4293 49.2346 55.4998 49.5 55.4998ZM67.5 44.4997L73.5 52.4998H68.3494L65.3063 47.4262L67.5 44.4997ZM58.5 41.9152L64.8506 52.4998H52.1494L58.5 41.9152Z" fill="#93C0DD"/>
<path d="M66 37.5C66.8284 37.5 67.5 36.8284 67.5 36C67.5 35.1716 66.8284 34.5 66 34.5C65.1716 34.5 64.5 35.1716 64.5 36C64.5 36.8284 65.1716 37.5 66 37.5Z" fill="#93C0DD"/>
<path d="M34.5 52.5H28.5C28.1022 52.5 27.7206 52.658 27.4393 52.9393C27.158 53.2206 27 53.6022 27 54C27 54.3978 27.158 54.7794 27.4393 55.0607C27.7206 55.342 28.1022 55.5 28.5 55.5H34.5C34.8978 55.5 35.2794 55.342 35.5607 55.0607C35.842 54.7794 36 54.3978 36 54C36 53.6022 35.842 53.2206 35.5607 52.9393C35.2794 52.658 34.8978 52.5 34.5 52.5Z" fill="#93C0DD"/>
<path d="M27 42C27 42.3978 27.158 42.7794 27.4393 43.0607C27.7206 43.342 28.1022 43.5 28.5 43.5H43.5C43.8978 43.5 44.2794 43.342 44.5607 43.0607C44.842 42.7794 45 42.3978 45 42C45 41.6022 44.842 41.2206 44.5607 40.9393C44.2794 40.658 43.8978 40.5 43.5 40.5H28.5C28.1022 40.5 27.7206 40.658 27.4393 40.9393C27.158 41.2206 27 41.6022 27 42Z" fill="#93C0DD"/>
<path d="M19.5 49.5H34.5C34.8978 49.5 35.2794 49.342 35.5607 49.0607C35.842 48.7794 36 48.3978 36 48C36 47.6022 35.842 47.2206 35.5607 46.9393C35.2794 46.658 34.8978 46.5 34.5 46.5H19.5C19.1022 46.5 18.7206 46.658 18.4393 46.9393C18.158 47.2206 18 47.6022 18 48C18 48.3978 18.158 48.7794 18.4393 49.0607C18.7206 49.342 19.1022 49.5 19.5 49.5Z" fill="#93C0DD"/>
<path d="M43.5 46.5H40.5C40.1022 46.5 39.7206 46.658 39.4393 46.9393C39.158 47.2206 39 47.6022 39 48C39 48.3978 39.158 48.7794 39.4393 49.0607C39.7206 49.342 40.1022 49.5 40.5 49.5H43.5C43.8978 49.5 44.2794 49.342 44.5607 49.0607C44.842 48.7794 45 48.3978 45 48C45 47.6022 44.842 47.2206 44.5607 46.9393C44.2794 46.658 43.8978 46.5 43.5 46.5Z" fill="#93C0DD"/>
<path d="M19.5 37.5H28.5C28.8978 37.5 29.2794 37.342 29.5607 37.0607C29.842 36.7794 30 36.3978 30 36C30 35.6022 29.842 35.2206 29.5607 34.9393C29.2794 34.658 28.8978 34.5 28.5 34.5H19.5C19.1022 34.5 18.7206 34.658 18.4393 34.9393C18.158 35.2206 18 35.6022 18 36C18 36.3978 18.158 36.7794 18.4393 37.0607C18.7206 37.342 19.1022 37.5 19.5 37.5Z" fill="#93C0DD"/>
</svg>
