<svg width="96" height="96" viewBox="0 0 96 96" fill="none" xmlns="http://www.w3.org/2000/svg">
<path d="M91.5 64.5H87V21C86.9987 19.8069 86.5241 18.6631 85.6805 17.8195C84.8369 16.9759 83.6931 16.5013 82.5 16.5H13.5C12.3069 16.5013 11.1631 16.9759 10.3195 17.8195C9.47588 18.6631 9.00134 19.8069 9 21V64.5H4.5C4.10218 64.5 3.72064 64.658 3.43934 64.9393C3.15804 65.2206 3 65.6022 3 66V72C3.00223 73.9884 3.79313 75.8948 5.19917 77.3008C6.6052 78.7069 8.51156 79.4978 10.5 79.5H85.5C87.4884 79.4978 89.3948 78.7069 90.8008 77.3008C92.2069 75.8948 92.9978 73.9884 93 72V66C93 65.6022 92.842 65.2206 92.5607 64.9393C92.2794 64.658 91.8978 64.5 91.5 64.5ZM12 21C12.0004 20.6023 12.1586 20.221 12.4398 19.9398C12.721 19.6586 13.1023 19.5004 13.5 19.5H82.5C82.8977 19.5004 83.279 19.6586 83.5602 19.9398C83.8414 20.221 83.9995 20.6023 84 21V64.5H81V24C81 23.6022 80.842 23.2206 80.5607 22.9393C80.2794 22.658 79.8978 22.5 79.5 22.5H16.5C16.1022 22.5 15.7206 22.658 15.4393 22.9393C15.158 23.2206 15 23.6022 15 24V64.5H12V21ZM18 64.5V31.5H78V64.5H18ZM54.573 67.5L53.4876 69.6707C53.3638 69.9205 53.1724 70.1306 52.9353 70.2772C52.6981 70.4238 52.4246 70.501 52.1458 70.5H43.8542C43.5754 70.501 43.3019 70.4238 43.0647 70.2772C42.8276 70.1306 42.6362 69.9205 42.5124 69.6707L41.427 67.5H54.573ZM78 28.5H18V25.5H78V28.5ZM90 72C89.9986 73.193 89.5241 74.3368 88.6804 75.1804C87.8368 76.0241 86.693 76.4986 85.5 76.5H10.5C9.30695 76.4986 8.16317 76.0241 7.31955 75.1804C6.47594 74.3368 6.00139 73.193 6 72V67.5H38.073L39.8291 71.0124C40.2006 71.7617 40.7746 72.3919 41.486 72.8316C42.1975 73.2713 43.0179 73.5028 43.8542 73.5H52.1458C52.9821 73.5028 53.8025 73.2713 54.514 72.8316C55.2254 72.3919 55.7994 71.7617 56.1709 71.0124L57.927 67.5H90V72Z" fill="#93C0DD"/>
<path d="M49.5 40.5H64.5C64.8978 40.5 65.2794 40.342 65.5607 40.0607C65.842 39.7794 66 39.3978 66 39C66 38.6022 65.842 38.2206 65.5607 37.9393C65.2794 37.658 64.8978 37.5 64.5 37.5H49.5C49.1022 37.5 48.7206 37.658 48.4393 37.9393C48.158 38.2206 48 38.6022 48 39C48 39.3978 48.158 39.7794 48.4393 40.0607C48.7206 40.342 49.1022 40.5 49.5 40.5Z" fill="#93C0DD"/>
<path d="M60 45C60 44.6022 59.842 44.2206 59.5607 43.9393C59.2794 43.658 58.8978 43.5 58.5 43.5H49.5C49.1022 43.5 48.7206 43.658 48.4393 43.9393C48.158 44.2206 48 44.6022 48 45C48 45.3978 48.158 45.7794 48.4393 46.0607C48.7206 46.342 49.1022 46.5 49.5 46.5H58.5C58.8978 46.5 59.2794 46.342 59.5607 46.0607C59.842 45.7794 60 45.3978 60 45Z" fill="#93C0DD"/>
<path d="M22.5 28.5C23.3284 28.5 24 27.8284 24 27C24 26.1716 23.3284 25.5 22.5 25.5C21.6716 25.5 21 26.1716 21 27C21 27.8284 21.6716 28.5 22.5 28.5Z" fill="#93C0DD"/>
<path d="M28.5 28.5C29.3284 28.5 30 27.8284 30 27C30 26.1716 29.3284 25.5 28.5 25.5C27.6716 25.5 27 26.1716 27 27C27 27.8284 27.6716 28.5 28.5 28.5Z" fill="#93C0DD"/>
<path d="M34.5 28.5C35.3284 28.5 36 27.8284 36 27C36 26.1716 35.3284 25.5 34.5 25.5C33.6716 25.5 33 26.1716 33 27C33 27.8284 33.6716 28.5 34.5 28.5Z" fill="#93C0DD"/>
<path d="M74.5607 58.0607C74.7415 57.8799 74.8731 57.6559 74.943 57.4099C75.0129 57.1639 75.0187 56.9042 74.96 56.6553C74.9012 56.4065 74.7798 56.1767 74.6073 55.988C74.4348 55.7992 74.2169 55.6577 73.9743 55.5769L71.9177 54.8914C71.9716 54.5973 71.9992 54.299 72 54C72 51.5188 70.1735 49.5 67.9286 49.5H55.0714C52.8264 49.5 51 51.5188 51 54C51 56.4812 52.8264 58.5 55.0714 58.5H64.4188L66.077 63.4744C66.1579 63.7169 66.2994 63.9348 66.4882 64.1073C66.6769 64.2797 66.9066 64.4011 67.1554 64.4599C67.4043 64.5186 67.664 64.5128 67.9099 64.4429C68.1559 64.373 68.3799 64.2415 68.5607 64.0607L74.5607 58.0607ZM64.9744 52.5769C64.7101 52.4888 64.4265 52.476 64.1554 52.54C63.8842 52.604 63.6363 52.7423 63.4393 52.9393C63.2423 53.1363 63.1041 53.3842 63.0401 53.6554C62.9761 53.9265 62.9889 54.2101 63.077 54.4744L63.4189 55.5H55.0714C54.4901 55.5 54 54.8132 54 54C54 53.1868 54.4907 52.5 55.0714 52.5H67.9286C68.4896 52.5 68.9651 53.1413 68.9974 53.9179L64.9744 52.5769ZM66.8717 56.3717L70.7231 57.6563L68.1562 60.2231L66.8717 56.3717Z" fill="#93C0DD"/>
<path d="M70.5 40.5H73.5C73.8978 40.5 74.2794 40.342 74.5607 40.0607C74.842 39.7794 75 39.3978 75 39C75 38.6022 74.842 38.2206 74.5607 37.9393C74.2794 37.658 73.8978 37.5 73.5 37.5H70.5C70.1022 37.5 69.7206 37.658 69.4393 37.9393C69.158 38.2206 69 38.6022 69 39C69 39.3978 69.158 39.7794 69.4393 40.0607C69.7206 40.342 70.1022 40.5 70.5 40.5Z" fill="#93C0DD"/>
<path d="M73.5 43.5H64.5C64.1022 43.5 63.7206 43.658 63.4393 43.9393C63.158 44.2206 63 44.6022 63 45C63 45.3978 63.158 45.7794 63.4393 46.0607C63.7206 46.342 64.1022 46.5 64.5 46.5H73.5C73.8978 46.5 74.2794 46.342 74.5607 46.0607C74.842 45.7794 75 45.3978 75 45C75 44.6022 74.842 44.2206 74.5607 43.9393C74.2794 43.658 73.8978 43.5 73.5 43.5Z" fill="#93C0DD"/>
<path d="M44.9947 59.8753L43.4947 41.8753C43.4634 41.5003 43.2924 41.1508 43.0156 40.896C42.7387 40.6412 42.3762 40.4998 41.9999 40.4998H40.4999V38.9998C40.5005 38.1309 40.2493 37.2804 39.7768 36.5511C39.3042 35.8219 38.6305 35.2453 37.8371 34.8908C37.0438 34.5364 36.1647 34.4194 35.3063 34.5541C34.4478 34.6887 33.6467 35.0691 32.9999 35.6494C32.3531 35.0691 31.5521 34.6887 30.6936 34.5541C29.8351 34.4194 28.9561 34.5364 28.1627 34.8908C27.3693 35.2453 26.6956 35.8219 26.2231 36.5511C25.7505 37.2804 25.4993 38.1309 25.4999 38.9998V40.4998H23.9999C23.6237 40.4998 23.2612 40.6412 22.9843 40.896C22.7074 41.1508 22.5364 41.5003 22.5052 41.8753L21.0052 59.8753C20.988 60.082 21.0138 60.2901 21.0811 60.4864C21.1484 60.6826 21.2557 60.8628 21.3962 61.0154C21.5367 61.1681 21.7073 61.29 21.8973 61.3734C22.0872 61.4567 22.2925 61.4998 22.4999 61.4998H43.4999C43.7074 61.4998 43.9126 61.4567 44.1026 61.3734C44.2926 61.29 44.4632 61.1681 44.6037 61.0154C44.7442 60.8628 44.8514 60.6826 44.9187 60.4864C44.986 60.2901 45.0119 60.082 44.9947 59.8753ZM35.9999 37.4998C36.3976 37.5003 36.7789 37.6584 37.0601 37.9396C37.3413 38.2208 37.4995 38.6021 37.4999 38.9998V40.4998H34.4999V38.9998C34.5004 38.6021 34.6586 38.2208 34.9398 37.9396C35.221 37.6584 35.6022 37.5003 35.9999 37.4998ZM28.4999 38.9998C28.4999 38.602 28.658 38.2204 28.9393 37.9391C29.2206 37.6578 29.6021 37.4998 29.9999 37.4998C30.3977 37.4998 30.7793 37.6578 31.0606 37.9391C31.3419 38.2204 31.4999 38.602 31.4999 38.9998V40.4998H28.4999V38.9998ZM24.1301 58.4998L25.3801 43.4998H34.6197L35.8698 58.4998H24.1301ZM38.8801 58.4998L37.6301 43.4998H40.6197L41.8698 58.4998H38.8801Z" fill="#93C0DD"/>
</svg>