<svg width="96" height="96" viewBox="0 0 96 96" fill="none" xmlns="http://www.w3.org/2000/svg">
<path d="M94.5 61.5H64.77L67.038 47.895C69.048 47.613 70.794 46.545 71.9655 44.9955C71.9775 44.9955 71.988 45 72 45C81.0975 45 88.5 37.5975 88.5 28.5V22.461C90.3105 21.09 91.5 18.939 91.5 16.5V16.257L89.9235 11.526L87.078 12.4755L88.4955 16.7265C88.3755 19.1025 86.406 21 84 21C81.594 21 79.6245 19.1025 79.506 16.7265L80.9235 12.4755L78.078 11.526L76.5 16.257V16.5C76.5 18.9405 77.6895 21.0915 79.5 22.461V28.6665C79.5 32.7105 76.2105 36 72.168 36C72.1035 36 72.0375 36.012 71.973 36.0135C70.6035 34.1955 68.4465 33 66 33C65.211 33 64.434 33.144 63.6765 33.402L63.2145 32.7855C64.899 31.4085 66 29.3415 66 27V25.5H67.5C69.981 25.5 72 23.481 72 21V15C72 12.519 69.981 10.5 67.5 10.5H66V9C66 4.8645 62.6355 1.5 58.5 1.5H37.5C33.3645 1.5 30 4.8645 30 9V10.5H28.5C26.019 10.5 24 12.519 24 15V21C24 23.481 26.019 25.5 28.5 25.5H30V27C30 29.3415 31.101 31.4085 32.787 32.7855L32.325 33.402C31.566 33.144 30.789 33 30 33C25.8645 33 22.5 36.3645 22.5 40.5C22.5 40.554 22.515 40.605 22.5165 40.6575C20.3775 43.5825 18 47.8605 18 52.5C18 55.161 19.071 58.3695 20.5425 61.5H1.5V64.5H22.074C22.65 65.541 23.2485 66.552 23.8455 67.5H18V94.5H78V67.5H38.2305C37.1085 67.2405 35.9475 67.2405 34.8255 67.5015C34.5765 67.2255 34.3095 66.9645 33.996 66.756C33.498 66.4245 32.838 65.595 32.1255 64.5H94.5V61.5ZM67.5 13.5C68.3265 13.5 69 14.1735 69 15V21C69 21.8265 68.3265 22.5 67.5 22.5H66V13.5H67.5ZM28.5 22.5C27.6735 22.5 27 21.8265 27 21V15C27 14.1735 27.6735 13.5 28.5 13.5H30V22.5H28.5ZM82.5 28.668V23.8485C82.9845 23.9475 83.487 24 84 24C84.513 24 85.0155 23.9475 85.5 23.8485V28.5C85.5 35.4855 80.1645 41.2485 73.356 41.931C73.446 41.4675 73.5 40.9905 73.5 40.5C73.5 39.9615 73.437 39.438 73.329 38.931C78.4815 38.3505 82.5 33.972 82.5 28.668ZM70.5 40.5C70.5 42.483 69.204 44.1495 67.461 44.7495C67.479 44.4345 67.5 44.121 67.5 43.8075C67.5 41.106 66.7845 38.427 65.478 36.069C65.652 36.0465 65.8245 36 66 36C68.481 36 70.5 38.019 70.5 40.5ZM52.5 4.5L50.25 7.5H45.75L43.5 4.5H52.5ZM33 9C33 6.519 35.019 4.5 37.5 4.5H39.75L44.25 10.5H51.75L56.25 4.5H58.5C60.981 4.5 63 6.519 63 9V27C63 29.481 60.981 31.5 58.5 31.5H37.5C35.019 31.5 33 29.481 33 27V9ZM58.5 34.5H60.75L61.9155 36.0555C61.9335 36.0795 61.9485 36.105 61.965 36.129L61.9725 36.1395C63.6015 38.3475 64.5 41.064 64.5 43.8075C64.5 44.5155 64.44 45.2295 64.3245 45.9315L61.7295 61.5H34.2705L31.6755 45.9315C31.56 45.2295 31.5 44.5155 31.5 43.8075C31.5 41.427 32.178 39.0675 33.42 37.0425L34.0965 36.039L35.25 34.5H37.5H58.5ZM30 36C30.1755 36 30.348 36.0465 30.5235 36.069C29.2155 38.427 28.5 41.1045 28.5 43.8075C28.5 44.1165 28.521 44.427 28.539 44.736C26.7765 44.1255 25.5 42.4665 25.5 40.5C25.5 38.019 27.519 36 30 36ZM39.549 71.442L41.553 75.4515L43.5 74.478V76.5H46.5V73.5H43.932L42.432 70.5H75V91.5H21V70.5H25.8615C26.7945 71.805 27.6195 72.837 28.227 73.5H25.5V76.5H28.5V73.791C28.701 73.995 28.878 74.16 29.001 74.2425C29.0265 74.259 29.055 74.271 29.0805 74.2875C28.944 76.3695 29.6385 78.4965 31.2255 80.085L31.398 80.2575L35.859 82.488L37.2015 79.8045L33.192 77.8005C31.596 76.0365 31.647 73.3005 33.348 71.5995C35.049 69.897 37.785 69.846 39.549 71.442ZM31.227 69.477C30.75 69.954 30.3795 70.4925 30.057 71.052C27.69 68.196 21 58.413 21 52.5C21 49.563 22.2165 46.7175 23.622 44.3955C24.1785 45.3045 24.9045 46.0965 25.7835 46.6965C24.6195 48.7905 24 50.7435 24 52.5C24 56.196 28.959 66.3255 31.917 68.9145C31.683 69.0975 31.4415 69.2625 31.227 69.477ZM27 52.5C27 51.198 27.561 49.6005 28.5735 47.856C28.6995 47.88 28.8345 47.877 28.962 47.895L31.23 61.5H30.387C28.6155 58.134 27 54.1455 27 52.5Z" fill="#93C0DD"/>
<path d="M31.5 85.5H34.5V88.5H31.5V85.5Z" fill="#93C0DD"/>
<path d="M25.5 85.5H28.5V88.5H25.5V85.5Z" fill="#93C0DD"/>
<path d="M67.5 85.5H70.5V88.5H67.5V85.5Z" fill="#93C0DD"/>
<path d="M61.5 85.5H64.5V88.5H61.5V85.5Z" fill="#93C0DD"/>
<path d="M49.5 85.5H52.5V88.5H49.5V85.5Z" fill="#93C0DD"/>
<path d="M43.5 85.5H46.5V88.5H43.5V85.5Z" fill="#93C0DD"/>
<path d="M55.5 85.5H58.5V88.5H55.5V85.5Z" fill="#93C0DD"/>
<path d="M37.5 85.5H40.5V88.5H37.5V85.5Z" fill="#93C0DD"/>
<path d="M25.5 79.5H28.5V82.5H25.5V79.5Z" fill="#93C0DD"/>
<path d="M49.5 79.5H52.5V82.5H49.5V79.5Z" fill="#93C0DD"/>
<path d="M37.5 79.5H40.5V82.5H37.5V79.5Z" fill="#93C0DD"/>
<path d="M43.5 79.5H46.5V82.5H43.5V79.5Z" fill="#93C0DD"/>
<path d="M67.5 79.5H70.5V82.5H67.5V79.5Z" fill="#93C0DD"/>
<path d="M61.5 79.5H64.5V82.5H61.5V79.5Z" fill="#93C0DD"/>
<path d="M55.5 79.5H58.5V82.5H55.5V79.5Z" fill="#93C0DD"/>
<path d="M49.5 73.5H52.5V76.5H49.5V73.5Z" fill="#93C0DD"/>
<path d="M55.5 73.5H58.5V76.5H55.5V73.5Z" fill="#93C0DD"/>
<path d="M67.5 73.5H70.5V76.5H67.5V73.5Z" fill="#93C0DD"/>
<path d="M61.5 73.5H64.5V76.5H61.5V73.5Z" fill="#93C0DD"/>
<path d="M55.5 19.5C57.981 19.5 60 17.481 60 15C60 12.519 57.981 10.5 55.5 10.5C53.019 10.5 51 12.519 51 15C51 17.481 53.019 19.5 55.5 19.5ZM55.5 13.5C56.3265 13.5 57 14.1735 57 15C57 15.8265 56.3265 16.5 55.5 16.5C54.6735 16.5 54 15.8265 54 15C54 14.1735 54.6735 13.5 55.5 13.5Z" fill="#93C0DD"/>
<path d="M40.5 19.5C42.981 19.5 45 17.481 45 15C45 12.519 42.981 10.5 40.5 10.5C38.019 10.5 36 12.519 36 15C36 17.481 38.019 19.5 40.5 19.5ZM40.5 13.5C41.3265 13.5 42 14.1735 42 15C42 15.8265 41.3265 16.5 40.5 16.5C39.6735 16.5 39 15.8265 39 15C39 14.1735 39.6735 13.5 40.5 13.5Z" fill="#93C0DD"/>
<path d="M53.9595 25.5L42 25.4595V22.5H39V25.4595C39 27.135 40.365 28.5 42.0405 28.5H53.958C55.635 28.5 57 27.135 57 25.4595V22.5H54L53.9595 25.5Z" fill="#93C0DD"/>
<path d="M34.5 48C34.5 50.481 36.519 52.5 39 52.5H57C59.481 52.5 61.5 50.481 61.5 48V42C61.5 39.519 59.481 37.5 57 37.5H39C36.519 37.5 34.5 39.519 34.5 42V48ZM37.5 42C37.5 41.1735 38.1735 40.5 39 40.5H57C57.8265 40.5 58.5 41.1735 58.5 42V48C58.5 48.8265 57.8265 49.5 57 49.5H39C38.1735 49.5 37.5 48.8265 37.5 48V42Z" fill="#93C0DD"/>
<path d="M43.5 55.5H46.5V58.5H43.5V55.5Z" fill="#93C0DD"/>
<path d="M37.5 55.5H40.5V58.5H37.5V55.5Z" fill="#93C0DD"/>
<path d="M55.5 55.5H58.5V58.5H55.5V55.5Z" fill="#93C0DD"/>
<path d="M49.5 55.5H52.5V58.5H49.5V55.5Z" fill="#93C0DD"/>
</svg>