<svg width="96" height="96" viewBox="0 0 96 96" fill="none" xmlns="http://www.w3.org/2000/svg">
<path d="M88.5 4.5H7.5C6.30695 4.50139 5.16317 4.97594 4.31955 5.81955C3.47594 6.66317 3.00139 7.80695 3 9V87C3.00139 88.193 3.47594 89.3368 4.31955 90.1804C5.16317 91.0241 6.30695 91.4986 7.5 91.5H88.5C89.693 91.4986 90.8368 91.0241 91.6804 90.1804C92.5241 89.3368 92.9986 88.193 93 87V9C92.9986 7.80695 92.5241 6.66317 91.6804 5.81955C90.8368 4.97594 89.693 4.50139 88.5 4.5ZM7.5 7.5H88.5C88.8977 7.50045 89.279 7.65863 89.5602 7.93983C89.8414 8.22104 89.9995 8.60231 90 9V16.5H6V9C6.00045 8.60231 6.15863 8.22104 6.43983 7.93983C6.72104 7.65863 7.10231 7.50045 7.5 7.5ZM88.5 88.5H7.5C7.10231 88.4995 6.72104 88.3414 6.43983 88.0602C6.15863 87.779 6.00045 87.3977 6 87V19.5H90V87C89.9995 87.3977 89.8414 87.779 89.5602 88.0602C89.279 88.3414 88.8977 88.4995 88.5 88.5Z" fill="#93C0DD"/>
<path d="M46.5 37.5H13.5C13.1022 37.5 12.7206 37.658 12.4393 37.9393C12.158 38.2206 12 38.6022 12 39V69C12 69.3978 12.158 69.7794 12.4393 70.0607C12.7206 70.342 13.1022 70.5 13.5 70.5H46.5C46.8978 70.5 47.2794 70.342 47.5607 70.0607C47.842 69.7794 48 69.3978 48 69V39C48 38.6022 47.842 38.2206 47.5607 37.9393C47.2794 37.658 46.8978 37.5 46.5 37.5ZM45 40.5V55.5H42.6214L37.0607 49.9393C36.9214 49.8 36.756 49.6895 36.574 49.6141C36.3921 49.5387 36.197 49.4999 36 49.4999C35.803 49.4999 35.6079 49.5387 35.426 49.6141C35.244 49.6895 35.0786 49.8 34.9393 49.9393L30.5908 54.2878L25.2 47.1C25.0603 46.9137 24.8791 46.7625 24.6708 46.6584C24.4625 46.5542 24.2329 46.5 24 46.5C23.7671 46.5 23.5375 46.5542 23.3292 46.6584C23.1209 46.7625 22.9397 46.9137 22.8 47.1L16.5 55.5H15V40.5H45ZM38.3786 55.5H33.6214L36 53.1214L38.3786 55.5ZM27.75 55.5H20.25L24 50.4999L27.75 55.5ZM15 67.5V58.5H45V67.5H15Z" fill="#93C0DD"/>
<path d="M22.5 13.5C23.3284 13.5 24 12.8284 24 12C24 11.1716 23.3284 10.5 22.5 10.5C21.6716 10.5 21 11.1716 21 12C21 12.8284 21.6716 13.5 22.5 13.5Z" fill="#93C0DD"/>
<path d="M16.5 13.5C17.3284 13.5 18 12.8284 18 12C18 11.1716 17.3284 10.5 16.5 10.5C15.6716 10.5 15 11.1716 15 12C15 12.8284 15.6716 13.5 16.5 13.5Z" fill="#93C0DD"/>
<path d="M10.5 13.5C11.3284 13.5 12 12.8284 12 12C12 11.1716 11.3284 10.5 10.5 10.5C9.67157 10.5 9 11.1716 9 12C9 12.8284 9.67157 13.5 10.5 13.5Z" fill="#93C0DD"/>
<path d="M64.5 55.5H52.5C52.1022 55.5 51.7206 55.658 51.4393 55.9393C51.158 56.2206 51 56.6022 51 57V69C51 69.3978 51.158 69.7794 51.4393 70.0607C51.7206 70.342 52.1022 70.5 52.5 70.5H64.5C64.8978 70.5 65.2794 70.342 65.5607 70.0607C65.842 69.7794 66 69.3978 66 69V57C66 56.6022 65.842 56.2206 65.5607 55.9393C65.2794 55.658 64.8978 55.5 64.5 55.5ZM63 58.5V65.3786L59.5607 61.9393C59.4214 61.8 59.256 61.6895 59.074 61.6141C58.892 61.5387 58.697 61.4999 58.5 61.4999C58.303 61.4999 58.108 61.5387 57.926 61.6141C57.744 61.6895 57.5786 61.8 57.4393 61.9393L54 65.3786V58.5H63ZM60.8786 67.5H56.1214L58.5 65.1214L60.8786 67.5Z" fill="#93C0DD"/>
<path d="M64.5 37.5H52.5C52.1022 37.5 51.7206 37.658 51.4393 37.9393C51.158 38.2206 51 38.6022 51 39V51C51 51.3978 51.158 51.7794 51.4393 52.0607C51.7206 52.342 52.1022 52.5 52.5 52.5H64.5C64.8978 52.5 65.2794 52.342 65.5607 52.0607C65.842 51.7794 66 51.3978 66 51V39C66 38.6022 65.842 38.2206 65.5607 37.9393C65.2794 37.658 64.8978 37.5 64.5 37.5ZM63 40.5V47.3786L59.5607 43.9393C59.4214 43.8 59.256 43.6895 59.074 43.6141C58.892 43.5387 58.697 43.4999 58.5 43.4999C58.303 43.4999 58.108 43.5387 57.926 43.6141C57.744 43.6895 57.5786 43.8 57.4393 43.9393L54 47.3786V40.5H63ZM60.8786 49.5H56.1214L58.5 47.1214L60.8786 49.5Z" fill="#93C0DD"/>
<path d="M82.5 49.5H70.5C70.1022 49.5 69.7206 49.658 69.4393 49.9393C69.158 50.2206 69 50.6022 69 51C69 51.3978 69.158 51.7794 69.4393 52.0607C69.7206 52.342 70.1022 52.5 70.5 52.5H82.5C82.8978 52.5 83.2794 52.342 83.5607 52.0607C83.842 51.7794 84 51.3978 84 51C84 50.6022 83.842 50.2206 83.5607 49.9393C83.2794 49.658 82.8978 49.5 82.5 49.5Z" fill="#93C0DD"/>
<path d="M82.5 55.5H76.5C76.1022 55.5 75.7206 55.658 75.4393 55.9393C75.158 56.2206 75 56.6022 75 57C75 57.3978 75.158 57.7794 75.4393 58.0607C75.7206 58.342 76.1022 58.5 76.5 58.5H82.5C82.8978 58.5 83.2794 58.342 83.5607 58.0607C83.842 57.7794 84 57.3978 84 57C84 56.6022 83.842 56.2206 83.5607 55.9393C83.2794 55.658 82.8978 55.5 82.5 55.5Z" fill="#93C0DD"/>
<path d="M70.5 64.5H73.5C73.8978 64.5 74.2794 64.342 74.5607 64.0607C74.842 63.7794 75 63.3978 75 63C75 62.6022 74.842 62.2206 74.5607 61.9393C74.2794 61.658 73.8978 61.5 73.5 61.5H70.5C70.1022 61.5 69.7206 61.658 69.4393 61.9393C69.158 62.2206 69 62.6022 69 63C69 63.3978 69.158 63.7794 69.4393 64.0607C69.7206 64.342 70.1022 64.5 70.5 64.5Z" fill="#93C0DD"/>
<path d="M82.5 61.5H79.5C79.1022 61.5 78.7206 61.658 78.4393 61.9393C78.158 62.2206 78 62.6022 78 63C78 63.3978 78.158 63.7794 78.4393 64.0607C78.7206 64.342 79.1022 64.5 79.5 64.5H82.5C82.8978 64.5 83.2794 64.342 83.5607 64.0607C83.842 63.7794 84 63.3978 84 63C84 62.6022 83.842 62.2206 83.5607 61.9393C83.2794 61.658 82.8978 61.5 82.5 61.5Z" fill="#93C0DD"/>
<path d="M82.5 67.5H70.5C70.1022 67.5 69.7206 67.658 69.4393 67.9393C69.158 68.2206 69 68.6022 69 69C69 69.3978 69.158 69.7794 69.4393 70.0607C69.7206 70.342 70.1022 70.5 70.5 70.5H82.5C82.8978 70.5 83.2794 70.342 83.5607 70.0607C83.842 69.7794 84 69.3978 84 69C84 68.6022 83.842 68.2206 83.5607 67.9393C83.2794 67.658 82.8978 67.5 82.5 67.5Z" fill="#93C0DD"/>
<path d="M70.5 58.5C71.3284 58.5 72 57.8284 72 57C72 56.1716 71.3284 55.5 70.5 55.5C69.6716 55.5 69 56.1716 69 57C69 57.8284 69.6716 58.5 70.5 58.5Z" fill="#93C0DD"/>
<path d="M82.5 37.5H76.5C76.1022 37.5 75.7206 37.658 75.4393 37.9393C75.158 38.2206 75 38.6022 75 39C75 39.3978 75.158 39.7794 75.4393 40.0607C75.7206 40.342 76.1022 40.5 76.5 40.5H82.5C82.8978 40.5 83.2794 40.342 83.5607 40.0607C83.842 39.7794 84 39.3978 84 39C84 38.6022 83.842 38.2206 83.5607 37.9393C83.2794 37.658 82.8978 37.5 82.5 37.5Z" fill="#93C0DD"/>
<path d="M70.5 46.5H73.5C73.8978 46.5 74.2794 46.342 74.5607 46.0607C74.842 45.7794 75 45.3978 75 45C75 44.6022 74.842 44.2206 74.5607 43.9393C74.2794 43.658 73.8978 43.5 73.5 43.5H70.5C70.1022 43.5 69.7206 43.658 69.4393 43.9393C69.158 44.2206 69 44.6022 69 45C69 45.3978 69.158 45.7794 69.4393 46.0607C69.7206 46.342 70.1022 46.5 70.5 46.5Z" fill="#93C0DD"/>
<path d="M82.5 43.5H79.5C79.1022 43.5 78.7206 43.658 78.4393 43.9393C78.158 44.2206 78 44.6022 78 45C78 45.3978 78.158 45.7794 78.4393 46.0607C78.7206 46.342 79.1022 46.5 79.5 46.5H82.5C82.8978 46.5 83.2794 46.342 83.5607 46.0607C83.842 45.7794 84 45.3978 84 45C84 44.6022 83.842 44.2206 83.5607 43.9393C83.2794 43.658 82.8978 43.5 82.5 43.5Z" fill="#93C0DD"/>
<path d="M70.5 40.5C71.3284 40.5 72 39.8284 72 39C72 38.1716 71.3284 37.5 70.5 37.5C69.6716 37.5 69 38.1716 69 39C69 39.8284 69.6716 40.5 70.5 40.5Z" fill="#93C0DD"/>
<path d="M13.5 34.5H22.5C22.697 34.5 22.892 34.4612 23.074 34.3858C23.256 34.3105 23.4214 34.2 23.5607 34.0607L26.5607 31.0607C26.7 30.9214 26.8105 30.756 26.8859 30.574C26.9613 30.3921 27.0001 30.197 27.0001 30C27.0001 29.803 26.9613 29.6079 26.8859 29.426C26.8105 29.244 26.7 29.0786 26.5607 28.9393L23.5607 25.9393C23.4214 25.8 23.256 25.6895 23.074 25.6142C22.892 25.5388 22.697 25.5 22.5 25.5H13.5C13.1022 25.5 12.7206 25.658 12.4393 25.9393C12.158 26.2206 12 26.6022 12 27V33C12 33.3978 12.158 33.7794 12.4393 34.0607C12.7206 34.342 13.1022 34.5 13.5 34.5ZM15 28.5H21.8788L23.3788 30L21.8788 31.5H15V28.5Z" fill="#93C0DD"/>
<path d="M82.5 28.5H37.5C37.1022 28.5 36.7206 28.658 36.4393 28.9393C36.158 29.2206 36 29.6022 36 30C36 30.3978 36.158 30.7794 36.4393 31.0607C36.7206 31.342 37.1022 31.5 37.5 31.5H82.5C82.8978 31.5 83.2794 31.342 83.5607 31.0607C83.842 30.7794 84 30.3978 84 30C84 29.6022 83.842 29.2206 83.5607 28.9393C83.2794 28.658 82.8978 28.5 82.5 28.5Z" fill="#93C0DD"/>
<path d="M31.5 31.5C32.3284 31.5 33 30.8284 33 30C33 29.1716 32.3284 28.5 31.5 28.5C30.6716 28.5 30 29.1716 30 30C30 30.8284 30.6716 31.5 31.5 31.5Z" fill="#93C0DD"/>
<path d="M25.5 73.5H13.5C13.1022 73.5 12.7206 73.658 12.4393 73.9393C12.158 74.2206 12 74.6022 12 75V81C12 81.3978 12.158 81.7794 12.4393 82.0607C12.7206 82.342 13.1022 82.5 13.5 82.5H25.5C25.8978 82.5 26.2794 82.342 26.5607 82.0607C26.842 81.7794 27 81.3978 27 81V75C27 74.6022 26.842 74.2206 26.5607 73.9393C26.2794 73.658 25.8978 73.5 25.5 73.5ZM24 79.5H15V76.5H24V79.5Z" fill="#93C0DD"/>
<path d="M43.5 73.5H37.5C37.1022 73.5 36.7206 73.658 36.4393 73.9393C36.158 74.2206 36 74.6022 36 75C36 75.3978 36.158 75.7794 36.4393 76.0607C36.7206 76.342 37.1022 76.5 37.5 76.5H43.5C43.8978 76.5 44.2794 76.342 44.5607 76.0607C44.842 75.7794 45 75.3978 45 75C45 74.6022 44.842 74.2206 44.5607 73.9393C44.2794 73.658 43.8978 73.5 43.5 73.5Z" fill="#93C0DD"/>
<path d="M34.5 79.5H31.5C31.1022 79.5 30.7206 79.658 30.4393 79.9393C30.158 80.2206 30 80.6022 30 81C30 81.3978 30.158 81.7794 30.4393 82.0607C30.7206 82.342 31.1022 82.5 31.5 82.5H34.5C34.8978 82.5 35.2794 82.342 35.5607 82.0607C35.842 81.7794 36 81.3978 36 81C36 80.6022 35.842 80.2206 35.5607 79.9393C35.2794 79.658 34.8978 79.5 34.5 79.5Z" fill="#93C0DD"/>
<path d="M43.5 79.5H40.5C40.1022 79.5 39.7206 79.658 39.4393 79.9393C39.158 80.2206 39 80.6022 39 81C39 81.3978 39.158 81.7794 39.4393 82.0607C39.7206 82.342 40.1022 82.5 40.5 82.5H43.5C43.8978 82.5 44.2794 82.342 44.5607 82.0607C44.842 81.7794 45 81.3978 45 81C45 80.6022 44.842 80.2206 44.5607 79.9393C44.2794 79.658 43.8978 79.5 43.5 79.5Z" fill="#93C0DD"/>
<path d="M31.5 76.5C32.3284 76.5 33 75.8284 33 75C33 74.1716 32.3284 73.5 31.5 73.5C30.6716 73.5 30 74.1716 30 75C30 75.8284 30.6716 76.5 31.5 76.5Z" fill="#93C0DD"/>
<path d="M64.5 73.5H52.5C52.1022 73.5 51.7206 73.658 51.4393 73.9393C51.158 74.2206 51 74.6022 51 75V81C51 81.3978 51.158 81.7794 51.4393 82.0607C51.7206 82.342 52.1022 82.5 52.5 82.5H64.5C64.8978 82.5 65.2794 82.342 65.5607 82.0607C65.842 81.7794 66 81.3978 66 81V75C66 74.6022 65.842 74.2206 65.5607 73.9393C65.2794 73.658 64.8978 73.5 64.5 73.5ZM63 79.5H54V76.5H63V79.5Z" fill="#93C0DD"/>
<path d="M82.5 73.5H76.5C76.1022 73.5 75.7206 73.658 75.4393 73.9393C75.158 74.2206 75 74.6022 75 75C75 75.3978 75.158 75.7794 75.4393 76.0607C75.7206 76.342 76.1022 76.5 76.5 76.5H82.5C82.8978 76.5 83.2794 76.342 83.5607 76.0607C83.842 75.7794 84 75.3978 84 75C84 74.6022 83.842 74.2206 83.5607 73.9393C83.2794 73.658 82.8978 73.5 82.5 73.5Z" fill="#93C0DD"/>
<path d="M73.5 79.5H70.5C70.1022 79.5 69.7206 79.658 69.4393 79.9393C69.158 80.2206 69 80.6022 69 81C69 81.3978 69.158 81.7794 69.4393 82.0607C69.7206 82.342 70.1022 82.5 70.5 82.5H73.5C73.8978 82.5 74.2794 82.342 74.5607 82.0607C74.842 81.7794 75 81.3978 75 81C75 80.6022 74.842 80.2206 74.5607 79.9393C74.2794 79.658 73.8978 79.5 73.5 79.5Z" fill="#93C0DD"/>
<path d="M82.5 79.5H79.5C79.1022 79.5 78.7206 79.658 78.4393 79.9393C78.158 80.2206 78 80.6022 78 81C78 81.3978 78.158 81.7794 78.4393 82.0607C78.7206 82.342 79.1022 82.5 79.5 82.5H82.5C82.8978 82.5 83.2794 82.342 83.5607 82.0607C83.842 81.7794 84 81.3978 84 81C84 80.6022 83.842 80.2206 83.5607 79.9393C83.2794 79.658 82.8978 79.5 82.5 79.5Z" fill="#93C0DD"/>
<path d="M70.5 76.5C71.3284 76.5 72 75.8284 72 75C72 74.1716 71.3284 73.5 70.5 73.5C69.6716 73.5 69 74.1716 69 75C69 75.8284 69.6716 76.5 70.5 76.5Z" fill="#93C0DD"/>
<path d="M40.5 61.5H25.5C25.1022 61.5 24.7206 61.658 24.4393 61.9393C24.158 62.2206 24 62.6022 24 63C24 63.3978 24.158 63.7794 24.4393 64.0607C24.7206 64.342 25.1022 64.5 25.5 64.5H40.5C40.8978 64.5 41.2794 64.342 41.5607 64.0607C41.842 63.7794 42 63.3978 42 63C42 62.6022 41.842 62.2206 41.5607 61.9393C41.2794 61.658 40.8978 61.5 40.5 61.5Z" fill="#93C0DD"/>
<path d="M19.5 64.5C20.3284 64.5 21 63.8284 21 63C21 62.1716 20.3284 61.5 19.5 61.5C18.6716 61.5 18 62.1716 18 63C18 63.8284 18.6716 64.5 19.5 64.5Z" fill="#93C0DD"/>
<path d="M31.5 46.5C32.3284 46.5 33 45.8284 33 45C33 44.1716 32.3284 43.5 31.5 43.5C30.6716 43.5 30 44.1716 30 45C30 45.8284 30.6716 46.5 31.5 46.5Z" fill="#93C0DD"/>
</svg>
