<svg width="500" height="370" viewBox="0 0 500 370" fill="none" xmlns="http://www.w3.org/2000/svg">
<g clip-path="url(#clip0)">
<path d="M410.953 369.401C455.932 369.401 492.395 364.669 492.395 358.832C492.395 352.995 455.932 348.263 410.953 348.263C365.974 348.263 329.512 352.995 329.512 358.832C329.512 364.669 365.974 369.401 410.953 369.401Z" fill="#E6E6E6"/>
<path d="M415.445 322.034C415.445 322.034 419.822 337.107 422.739 340.997C425.656 344.887 428.088 351.208 426.629 352.181C425.17 353.153 422.253 364.823 426.143 365.31C430.033 365.796 438.785 352.667 439.271 348.291C439.757 343.915 441.702 328.355 441.702 328.355C441.702 328.355 445.106 314.74 439.758 313.768C434.409 312.795 426.143 312.309 426.143 312.309L415.445 322.034Z" fill="#2F2E41"/>
<path d="M395.024 338.08C395.024 338.08 388.702 354.612 387.244 355.585C385.785 356.557 380.436 365.309 391.134 365.309C401.831 365.309 407.666 362.392 407.666 362.392L411.07 358.502C411.07 358.502 411.07 348.291 410.097 346.832C409.125 345.373 410.097 338.08 410.097 338.08H395.024Z" fill="#2F2E41"/>
<path d="M351.748 186.858C351.748 186.858 343.968 239.372 350.776 256.391C357.583 273.409 364.391 278.272 364.391 278.272L415.932 326.41C415.932 326.41 431.979 318.144 430.52 312.795C430.52 312.795 427.116 310.85 426.63 309.391C426.144 307.933 419.822 307.447 419.822 307.447C419.822 307.447 416.905 304.043 416.905 302.098C416.905 300.153 391.62 265.63 383.354 263.198C383.354 263.198 378.978 257.85 379.464 256.877C379.95 255.905 378.005 252.501 378.005 252.501L382.868 233.537L413.501 228.675C413.501 228.675 426.144 183.941 415.446 180.537C404.749 177.133 351.748 186.858 351.748 186.858Z" fill="#2F2E41"/>
<path d="M412.529 220.895L413.501 228.675C413.501 228.675 413.501 249.097 412.529 251.042C411.556 252.987 411.07 255.905 412.529 257.85C413.987 259.795 416.419 264.657 415.446 266.602C414.474 268.547 417.391 323.492 413.501 327.382C409.611 331.272 411.07 336.135 411.556 336.621C412.043 337.107 411.07 339.052 411.07 339.052C411.07 339.052 391.134 342.456 392.593 339.052C394.052 335.649 394.052 333.704 395.024 332.731C395.997 331.759 395.024 330.3 395.024 330.3C395.024 330.3 396.483 314.74 395.024 313.768C393.565 312.795 389.189 266.116 389.189 265.63C389.189 265.143 387.73 264.171 387.73 262.226C387.73 260.281 387.73 253.96 385.299 252.987C382.868 252.015 383.354 228.189 383.354 228.189L412.529 220.895Z" fill="#2F2E41"/>
<path d="M378.005 47.3062C378.005 47.3062 379.95 61.8935 385.785 64.811C391.619 67.7284 395.509 69.1872 395.509 69.1872L390.647 86.2057L388.702 100.793H366.335L354.179 91.0681L358.069 75.0221L360.014 72.1046C360.014 72.1046 362.445 61.4073 360.5 58.0036C358.555 54.5999 378.005 47.3062 378.005 47.3062Z" fill="#FFB9B9"/>
<path d="M368.28 82.8019L371.684 89.1231C371.684 89.1231 374.115 80.3707 377.519 78.912C380.922 77.4532 389.188 75.022 389.188 73.0771C389.188 71.1321 388.702 66.2697 390.647 66.2697C392.592 66.2697 411.556 72.1046 414.473 74.0496C417.391 75.9945 417.877 77.9395 417.877 77.9395L412.528 133.858C412.528 133.858 420.308 160.115 417.877 170.326C415.446 180.537 413.501 181.996 407.666 183.454C401.831 184.913 405.234 180.051 388.216 184.913C371.197 189.776 360.5 188.317 356.61 188.317C352.72 188.317 350.289 190.262 349.316 190.748C348.344 191.234 348.83 188.317 352.234 183.941C355.638 179.564 354.179 172.271 354.179 172.271C354.179 172.271 350.289 159.628 352.72 154.766C355.151 149.904 358.555 143.582 355.638 141.637C352.72 139.692 348.83 125.105 348.83 125.105L338.133 87.1781L360.014 72.1046C360.014 72.1046 359.041 78.912 362.445 80.3707C365.849 81.8295 368.28 82.8019 368.28 82.8019Z" fill="#575A89"/>
<path d="M341.051 86.6919H338.134C338.134 86.6919 333.271 94.9581 333.271 100.793C333.271 106.628 335.703 139.692 335.703 139.692L349.804 154.28L353.207 143.096L354.18 118.298L341.051 86.6919Z" fill="#575A89"/>
<path d="M348.83 138.234C348.83 138.234 332.784 133.857 333.271 140.665C333.757 147.472 336.188 155.738 343.968 157.683C351.748 159.628 354.179 148.931 354.179 148.931C354.179 148.931 355.152 139.206 348.83 138.234Z" fill="#575A89"/>
<path d="M409.125 160.601C409.125 160.601 408.152 182.968 402.317 185.399L416.418 188.803C416.418 188.803 423.226 165.463 422.253 164.491C421.281 163.518 409.125 160.601 409.125 160.601Z" fill="#FFB9B9"/>
<path d="M325.724 115.072L334.074 111.424C334.386 111.288 334.739 111.281 335.056 111.405C335.373 111.53 335.628 111.775 335.764 112.086L345.047 133.338C345.214 133.719 345.222 134.15 345.07 134.537C344.919 134.924 344.62 135.235 344.239 135.401L336.409 138.822C336.028 138.988 335.596 138.997 335.209 138.845C334.822 138.693 334.511 138.394 334.345 138.013L325.062 116.762C324.994 116.607 324.958 116.441 324.954 116.273C324.951 116.104 324.981 115.937 325.043 115.78C325.104 115.623 325.196 115.48 325.313 115.358C325.43 115.237 325.569 115.14 325.724 115.072Z" fill="#2F2E41"/>
<path opacity="0.1" d="M325.724 115.072L334.074 111.424C334.386 111.288 334.739 111.281 335.056 111.405C335.373 111.53 335.628 111.775 335.764 112.086L345.047 133.338C345.214 133.719 345.222 134.15 345.07 134.537C344.919 134.924 344.62 135.235 344.239 135.401L336.409 138.822C336.028 138.988 335.596 138.997 335.209 138.845C334.822 138.693 334.511 138.394 334.345 138.013L325.062 116.762C324.994 116.607 324.958 116.441 324.954 116.273C324.951 116.104 324.981 115.937 325.043 115.78C325.104 115.623 325.196 115.48 325.313 115.358C325.43 115.237 325.569 115.14 325.724 115.072Z" fill="black"/>
<path d="M326.197 116.157L333.478 112.977C333.79 112.84 334.143 112.833 334.46 112.958C334.777 113.082 335.031 113.327 335.167 113.639L343.977 133.805C344.143 134.186 344.152 134.618 344 135.005C343.848 135.392 343.549 135.703 343.168 135.869L336.409 138.822C336.028 138.988 335.596 138.997 335.209 138.845C334.822 138.693 334.511 138.394 334.345 138.013L325.535 117.847C325.399 117.535 325.392 117.181 325.516 116.865C325.641 116.548 325.886 116.293 326.197 116.157Z" fill="#2F2E41"/>
<path d="M332.893 124.759C334.075 124.243 334.609 122.853 334.086 121.655C333.563 120.457 332.18 119.904 330.998 120.42C329.816 120.937 329.282 122.327 329.805 123.525C330.329 124.723 331.711 125.276 332.893 124.759Z" fill="#F2F2F2"/>
<path opacity="0.1" d="M412.772 84.5037L415.933 79.8844C415.933 79.8844 427.602 97.8755 426.63 110.032C425.658 122.188 424.685 122.674 424.685 124.619C424.685 126.564 422.254 126.564 424.685 128.995C427.116 131.426 430.52 134.83 428.575 136.775C426.63 138.72 425.171 138.72 425.658 141.151C425.968 142.917 426.131 144.706 426.144 146.5C426.144 146.5 422.011 154.523 420.552 154.523C419.093 154.523 405.235 167.408 405.235 165.95C405.235 164.491 406.694 154.28 406.694 152.821C406.694 151.362 407.18 146.5 408.153 145.041C409.125 143.582 409.125 144.069 408.153 142.61C407.18 141.151 407.18 142.61 407.18 141.151C407.18 139.692 407.667 137.747 406.208 137.261C404.749 136.775 403.29 137.261 404.263 134.83C405.235 132.399 404.263 130.454 403.777 130.454C403.29 130.454 400.859 129.968 402.318 128.509C403.777 127.05 399.4 98.848 399.4 98.848C399.4 98.848 400.13 91.7974 412.772 84.5037Z" fill="black"/>
<path d="M410.097 74.0496L418.363 77.9395C418.363 77.9395 430.033 95.9305 429.061 108.087C428.088 120.243 427.116 120.729 427.116 122.674C427.116 124.619 424.684 124.619 427.116 127.05C429.547 129.481 432.951 132.885 431.006 134.83C429.061 136.775 427.602 136.775 428.088 139.206C428.399 140.972 428.562 142.762 428.574 144.555C428.574 144.555 424.198 167.895 422.739 167.895C421.281 167.895 407.666 165.463 407.666 164.005C407.666 162.546 409.125 152.335 409.125 150.876C409.125 149.417 409.611 144.555 410.583 143.096C411.556 141.637 411.556 142.124 410.583 140.665C409.611 139.206 409.611 140.665 409.611 139.206C409.611 137.747 410.097 135.802 408.638 135.316C407.18 134.83 405.721 135.316 406.693 132.885C407.666 130.454 406.693 128.509 406.207 128.509C405.721 128.509 403.29 128.023 404.749 126.564C406.207 125.105 401.831 96.903 401.831 96.903C401.831 96.903 397.455 81.3432 410.097 74.0496Z" fill="#575A89"/>
<path d="M336.314 141.706C335.862 141.826 335.381 141.787 334.954 141.594C334.527 141.401 334.18 141.068 333.97 140.649C331.736 136.181 325.682 123.077 331.325 122.674C336.532 122.302 341.17 132.455 343.063 137.25C343.183 137.555 343.238 137.882 343.223 138.209C343.208 138.536 343.124 138.856 342.976 139.148C342.828 139.441 342.619 139.698 342.365 139.904C342.11 140.11 341.814 140.259 341.497 140.343L336.314 141.706Z" fill="#FFB9B9"/>
<path d="M364.39 60.921C374.327 60.921 382.381 52.8661 382.381 42.9299C382.381 32.9938 374.327 24.9389 364.39 24.9389C354.454 24.9389 346.399 32.9938 346.399 42.9299C346.399 52.8661 354.454 60.921 364.39 60.921Z" fill="#FFB9B9"/>
<path d="M357.779 32.5685C355.534 33.3431 353.217 33.8901 350.862 34.2012C349.09 34.4777 347.017 34.6192 345.772 33.3288C344.549 32.0624 344.747 29.95 345.581 28.4C346.414 26.85 347.75 25.6348 348.752 24.1878C350.327 21.9121 351.257 18.895 353.776 17.7486C354.82 17.3489 355.928 17.1419 357.046 17.1378C363.584 16.721 370.388 16.3455 376.442 18.8471C378.717 19.7138 380.733 21.1477 382.297 23.0127C383.322 24.3859 384.113 25.9191 384.637 27.5503C386.255 32.35 386.615 37.4845 385.682 42.4629C384.749 47.4414 382.555 52.0974 379.31 55.9858C377.103 53.9979 378.063 49.4045 375.271 48.3915C374.355 48.0592 373.32 48.2905 372.381 48.0274C369.433 47.2006 369.581 42.6439 367.126 40.8131C366.59 40.5246 366.116 40.1344 365.729 39.6644C365.513 39.2137 365.419 38.7142 365.457 38.2158C365.439 36.5088 366.241 32.1727 364.612 31.0026C362.955 29.8116 359.371 31.9934 357.779 32.5685Z" fill="#2F2E41"/>
<path d="M347.986 327.23C347.986 327.23 346.663 298.784 319.551 302.09L347.986 327.23Z" fill="#E6E6E6"/>
<path d="M462.307 260.614C462.307 260.614 463.629 232.169 490.742 235.475L462.307 260.614Z" fill="#E6E6E6"/>
<path d="M461.747 351.364C461.713 351.065 458.492 321.235 471.533 305.448C476.345 299.622 482.794 296.359 490.699 295.751L490.786 296.876C483.199 297.459 477.014 300.585 472.404 306.164C459.669 321.579 462.834 350.942 462.867 351.237L461.747 351.364Z" fill="#E6E6E6"/>
<path d="M38.543 95.8058H256.583V167.384H248.324V186.105L229.604 167.384H38.543V95.8058Z" fill="#E6E6E6"/>
<path d="M250.527 102.776H44.5996V160.039H250.527V102.776Z" fill="white"/>
<path d="M160.308 119.494H61.1592V122.503H160.308V119.494Z" fill="#93C0DD"/>
<path d="M233.967 129.903H61.1592V132.912H233.967V129.903Z" fill="#E6E6E6"/>
<path d="M233.798 140.312H61.1592V143.321H233.798V140.312Z" fill="#E6E6E6"/>
<path d="M218.04 191.611H0V263.19H8.25915V281.911L26.9795 263.19H218.04V191.611Z" fill="#E6E6E6"/>
<path d="M211.984 198.582H6.05664V255.845H211.984V198.582Z" fill="white"/>
<path d="M123.417 215.851H24.2686V218.86H123.417V215.851Z" fill="#93C0DD"/>
<path d="M197.076 226.259H24.2686V229.268H197.076V226.259Z" fill="#E6E6E6"/>
<path d="M196.907 236.668H24.2686V239.677H196.907V236.668Z" fill="#E6E6E6"/>
<path d="M218.04 0H0V71.5787H8.25915V90.2997L26.9795 71.5787H218.04V0Z" fill="#E6E6E6"/>
<path d="M211.984 6.97046H6.05664V64.2336H211.984V6.97046Z" fill="white"/>
<path d="M123.417 24.2394H24.2686V27.2484H123.417V24.2394Z" fill="#93C0DD"/>
<path d="M197.076 34.6482H24.2686V37.6571H197.076V34.6482Z" fill="#E6E6E6"/>
<path d="M196.907 45.0569H24.2686V48.0658H196.907V45.0569Z" fill="#E6E6E6"/>
<path d="M348.109 294.125H346.981V356.156H348.109V294.125Z" fill="#E6E6E6"/>
<path d="M462.02 231.53H460.893V356.156H462.02V231.53Z" fill="#E6E6E6"/>
<path d="M347.986 296.139C353.099 296.139 357.244 291.994 357.244 286.881C357.244 281.768 353.099 277.623 347.986 277.623C342.873 277.623 338.728 281.768 338.728 286.881C338.728 291.994 342.873 296.139 347.986 296.139Z" fill="#93C0DD"/>
<path d="M462.307 232.169C467.42 232.169 471.565 228.024 471.565 222.911C471.565 217.798 467.42 213.653 462.307 213.653C457.194 213.653 453.049 217.798 453.049 222.911C453.049 228.024 457.194 232.169 462.307 232.169Z" fill="#93C0DD"/>
<path d="M490.742 305.571C495.855 305.571 500 301.426 500 296.313C500 291.2 495.855 287.055 490.742 287.055C485.629 287.055 481.484 291.2 481.484 296.313C481.484 301.426 485.629 305.571 490.742 305.571Z" fill="#E6E6E6"/>
</g>
<defs>
<clipPath id="clip0">
<rect width="500" height="369.401" fill="white"/>
</clipPath>
</defs>
</svg>