<svg width="450" height="301" viewBox="0 0 450 301" fill="none" xmlns="http://www.w3.org/2000/svg">
<g clip-path="url(#clip0)">
<path opacity="0.1" d="M438.347 279.452C433.603 283.385 427.875 286.189 421.691 288.263C420.791 288.571 419.878 288.858 418.952 289.126C416.563 289.837 414.117 290.454 411.65 290.993C410.434 291.265 409.209 291.515 407.984 291.748C405.901 292.149 403.809 292.507 401.731 292.835C394.015 294.047 386.247 294.944 378.441 295.625C376.035 295.838 373.627 296.029 371.217 296.199L370.255 296.268L368.53 296.384L367.469 296.453C365.856 296.561 364.243 296.656 362.635 296.747C356.187 297.109 349.73 297.372 343.274 297.609C338.53 297.773 333.833 297.911 329.115 298.04L319.519 298.321L317.039 298.394L315.952 298.424C313.111 298.511 310.268 298.593 307.421 298.67L306.619 298.692L304.118 298.765L299.373 298.894L297.959 298.933L296.665 298.968C266.548 299.779 236.41 300.369 206.31 300.115C203.901 300.098 201.493 300.072 199.086 300.037C176.737 299.748 154.414 298.968 132.129 297.45C124.297 296.915 116.413 296.268 108.572 295.375C106.157 295.102 103.749 294.804 101.348 294.482C82.0869 291.895 63.3001 287.53 46.4713 279.387C33.7958 273.242 22.095 264.499 17.1869 252.868C12.2315 241.128 14.8537 227.944 20.5122 216.437C26.1706 204.93 34.6842 194.618 42.0247 183.806C44.5478 180.084 46.9328 176.206 49.0935 172.221C49.2229 171.98 49.3566 171.734 49.4817 171.492C50.5886 169.414 51.6324 167.309 52.6128 165.178C53.5444 163.148 54.407 161.098 55.2005 159.028C55.4392 158.41 55.6678 157.793 55.8863 157.178C55.9122 157.109 55.938 157.04 55.9596 156.971C55.9812 156.902 56.0157 156.816 56.0415 156.738C57.4367 152.822 58.524 148.803 59.2934 144.718L59.397 144.149C59.4444 143.877 59.4918 143.61 59.535 143.338C59.5781 143.066 59.6169 142.833 59.6557 142.579C60.2551 138.75 60.479 134.872 60.3242 130.999C60.3242 130.857 60.3242 130.714 60.3242 130.568C60.2285 128.583 60.0125 126.605 59.6773 124.646C59.6514 124.478 59.6255 124.314 59.591 124.15C59.0886 121.34 58.3277 118.583 57.3181 115.913C57.275 115.796 57.2276 115.675 57.1801 115.555C57.1801 115.503 57.1413 115.447 57.1198 115.395C56.7963 114.571 56.4513 113.756 56.0717 112.941C56.0113 112.803 55.9423 112.661 55.8777 112.51C55.7526 112.247 55.6275 111.984 55.4938 111.725C54.8871 110.486 54.2114 109.262 53.4668 108.054C52.6042 106.618 51.6252 105.212 50.6203 103.832L50.4779 103.638L50.3615 103.474C49.0418 101.676 47.6616 99.9075 46.316 98.122C45.2594 96.7289 44.2243 95.3272 43.2539 93.8997L43.0814 93.6409C41.9052 91.9181 40.8558 90.112 39.9416 88.2369C39.7605 87.853 39.5836 87.4692 39.4198 87.081C39.1265 86.3996 38.8548 85.7139 38.6133 85.0238C35.301 75.6649 36.3059 65.4434 37.8973 55.6963C40.2565 41.2137 44.647 25.6055 58.2368 16.5657C70.1015 8.66883 86.1583 7.74588 101.365 9.66511C103.802 9.96701 106.213 10.3422 108.589 10.7735L109.883 11.0193C129.119 14.7068 147.31 21.2365 165.278 28.2277C169.474 29.8623 173.662 31.5227 177.845 33.1745C181.115 34.4655 184.385 35.7493 187.657 37.0259C191.438 38.498 195.248 39.9357 199.086 41.3388C201.484 42.2186 203.892 43.0812 206.31 43.9265C210.189 45.275 214.094 46.5559 218.024 47.7693C220.807 48.6318 223.605 49.4441 226.417 50.206C239.787 53.8461 253.502 56.3691 267.54 56.8565C278.234 57.2328 288.931 56.2415 299.373 53.9065C301.81 53.3544 304.225 52.7204 306.597 52.0045C309.909 51.0073 313.163 49.828 316.345 48.4723C324.371 45.022 331.586 40.4676 337.296 34.6711L337.344 34.6237C345.801 26.0454 358.201 21.6851 371.191 20.9562C373.597 20.8203 376.008 20.8074 378.415 20.9174C387.447 21.291 396.326 23.3689 404.586 27.0416C425.132 36.3574 438.42 56.0802 437.42 75.777C435.966 104.449 408.325 126.457 391.833 151.541C390.668 153.309 389.56 155.134 388.529 156.997C388.149 157.678 387.787 158.364 387.434 159.054C383.371 166.99 380.93 175.559 382.258 183.793C382.489 185.244 382.841 186.674 383.31 188.067C383.513 188.675 383.742 189.283 383.996 189.887C385.889 194.398 388.883 198.224 392.574 201.626C394.248 203.156 396.009 204.588 397.849 205.913C413.237 217.101 435.526 224.157 445.373 239.442C453.61 252.117 450.565 269.304 438.347 279.452Z" fill="#93C0DD"/>
<path opacity="0.1" d="M378.45 225.464V159.007H387.468C387.822 158.317 388.184 157.631 388.563 156.949H378.45V87.081H413.815C413.738 86.3952 413.651 85.7009 413.565 85.0238H378.45V20.8699C376.043 20.7599 373.632 20.7728 371.226 20.9087V85.0108H306.632V51.97C304.26 52.6859 301.845 53.3199 299.408 53.8719V85.0108H207.203L206.983 84.6183L226.452 50.1715C223.64 49.4096 220.842 48.5973 218.059 47.7347L206.345 68.458V43.8747C203.927 43.0351 201.519 42.1726 199.121 41.287V70.7352L177.88 33.1529C173.697 31.5011 169.509 29.8407 165.312 28.2061L197.228 84.6399L197.003 85.0324H108.607V10.7304C106.23 10.2991 103.82 9.92385 101.383 9.62195V85.0108H38.6133C38.8548 85.7009 39.1265 86.3866 39.4198 87.0681H101.383V156.936H55.9855C55.964 157.005 55.9381 157.074 55.9122 157.143C55.6937 157.759 55.4651 158.376 55.2265 158.994H101.374V225.464H36.3965C36.5978 226.148 36.8062 226.834 37.0218 227.521H101.383V295.526C103.798 296.164 106.206 296.831 108.607 297.527V227.521H199.125V300.046C201.532 300.08 203.94 300.106 206.349 300.124V227.521H299.408V298.886L304.152 298.756L306.654 298.683V227.521H371.209V296.207C373.618 296.035 376.026 295.844 378.433 295.634V227.521H406.682C406.604 226.835 406.531 226.149 406.458 225.464H378.45ZM199.121 225.464H108.607V159.007H199.125L199.121 225.464ZM199.121 156.949H108.607V87.081H197.831L199.125 88.9485L199.121 156.949ZM299.408 225.464H206.345V159.007H299.408V225.464ZM299.408 156.949H206.345V87.081H299.408V156.949ZM371.209 225.464H306.632V159.007H371.209V225.464ZM371.209 156.949H306.632V87.081H371.209V156.949Z" fill="#93C0DD"/>
<path opacity="0.1" d="M342.558 41.5199C342.584 42.1798 342.347 42.8228 341.899 43.308C341.451 43.7931 340.828 44.0807 340.169 44.1076H335.347C335.884 44.2664 336.354 44.5973 336.684 45.0493C337.015 45.5013 337.187 46.0493 337.176 46.6091C337.201 47.2689 336.964 47.912 336.516 48.3972C336.068 48.8823 335.446 49.1699 334.786 49.1968H318.035C317.724 49.1953 317.417 49.1302 317.132 49.0056C316.847 48.881 316.591 48.6995 316.379 48.4723C324.405 45.022 331.621 40.4676 337.331 34.6711L337.378 34.6237H337.904C338.222 34.626 338.536 34.6943 338.827 34.8242C339.117 34.9541 339.377 35.1428 339.591 35.3784C340.037 35.8743 340.285 36.5181 340.285 37.1855C340.285 37.8529 340.037 38.4967 339.591 38.9926H340.156C340.807 39.0162 341.423 39.294 341.872 39.7664C342.321 40.2388 342.567 40.8682 342.558 41.5199Z" fill="#93C0DD"/>
<path opacity="0.1" d="M158.644 63.4466H158.088C158.53 62.9537 158.773 62.3143 158.769 61.6524C158.795 60.9926 158.558 60.3495 158.11 59.8644C157.662 59.3792 157.04 59.0916 156.38 59.0647H139.629C138.969 59.0916 138.347 59.3792 137.899 59.8644C137.451 60.3495 137.214 60.9926 137.24 61.6524C137.214 62.3122 137.451 62.9553 137.899 63.4405C138.347 63.9256 138.969 64.2132 139.629 64.2401H140.19C139.746 64.7324 139.502 65.3719 139.504 66.0343C139.493 66.5939 139.666 67.1416 139.996 67.5935C140.327 68.0453 140.796 68.3763 141.333 68.5357H136.511C135.877 68.6046 135.29 68.9052 134.864 69.3801C134.438 69.8549 134.202 70.4704 134.202 71.1084C134.202 71.7463 134.438 72.3618 134.864 72.8367C135.29 73.3115 135.877 73.6122 136.511 73.681H153.262C153.922 73.6541 154.544 73.3665 154.992 72.8813C155.44 72.3962 155.677 71.7531 155.651 71.0933C155.668 70.5334 155.499 69.9837 155.172 69.5292C154.844 69.0747 154.376 68.7407 153.84 68.5789H158.662C159.3 68.5148 159.892 68.2159 160.322 67.7401C160.753 67.2643 160.991 66.6457 160.991 66.0041C160.991 65.3625 160.753 64.7438 160.322 64.2681C159.892 63.7923 159.3 63.4934 158.662 63.4293L158.644 63.4466Z" fill="#93C0DD"/>
<path opacity="0.1" d="M365.86 168.314H365.3C365.743 167.822 365.986 167.182 365.981 166.52C366.007 165.86 365.77 165.217 365.322 164.732C364.874 164.247 364.252 163.959 363.592 163.932H346.841C346.181 163.96 345.56 164.248 345.112 164.733C344.664 165.218 344.427 165.86 344.451 166.52C344.427 167.179 344.664 167.822 345.112 168.307C345.56 168.791 346.181 169.079 346.841 169.107H347.401C346.959 169.6 346.716 170.24 346.72 170.902C346.708 171.461 346.88 172.009 347.211 172.46C347.541 172.912 348.012 173.241 348.549 173.399H343.727C343.088 173.463 342.497 173.762 342.066 174.238C341.636 174.713 341.397 175.332 341.397 175.974C341.397 176.615 341.636 177.234 342.066 177.71C342.497 178.185 343.088 178.484 343.727 178.548H360.478C361.137 178.52 361.759 178.232 362.206 177.747C362.654 177.263 362.892 176.62 362.867 175.961C362.879 175.401 362.706 174.854 362.375 174.403C362.045 173.951 361.575 173.621 361.039 173.463H365.86C366.499 173.399 367.09 173.1 367.521 172.625C367.951 172.149 368.19 171.53 368.19 170.889C368.19 170.247 367.951 169.628 367.521 169.153C367.09 168.677 366.499 168.378 365.86 168.314Z" fill="#93C0DD"/>
<path opacity="0.1" d="M70.0231 177.654C88.8602 174.939 101.214 152.497 97.6157 127.528C94.0176 102.559 75.8303 84.5183 56.9932 87.2327C38.1562 89.9472 25.8026 112.389 29.4007 137.358C32.9988 162.327 51.1861 180.368 70.0231 177.654Z" fill="black"/>
<path d="M70.9147 177.285C89.7518 174.571 102.105 152.129 98.5073 127.16C94.9092 102.19 76.7219 84.1495 57.8848 86.864C39.0478 89.5784 26.6942 112.02 30.2923 136.989C33.8904 161.959 52.0777 180 70.9147 177.285Z" fill="#3A3768"/>
<path d="M96.1552 138.089C95.9089 142.318 95.1174 146.497 93.8004 150.523C92.3077 155.215 89.891 159.56 86.6928 163.302C82.8112 167.74 77.8773 170.677 72.2792 171.497C71.3546 171.628 70.4226 171.7 69.4888 171.712C54.3506 171.919 40.213 156.186 37.1638 135.023C33.9421 112.57 44.4008 92.4505 60.5568 90.1432C65.3657 89.4488 70.1314 90.4062 74.5434 92.6921C80.8963 95.9698 86.5159 101.999 90.4493 109.788C93.0878 115.076 94.8517 120.756 95.6722 126.608C96.2278 130.409 96.3896 134.256 96.1552 138.089Z" fill="#93C0DD"/>
<path d="M73.2671 132.582L71.1797 151.597C71.1797 151.597 77.856 150.972 79.8054 147.634L73.651 132.263L73.2671 132.582Z" fill="#93C0DD"/>
<path opacity="0.2" d="M73.2671 132.582L71.1797 151.597C71.1797 151.597 77.856 150.972 79.8054 147.634L73.651 132.263L73.2671 132.582Z" fill="black"/>
<path opacity="0.2" d="M43.8922 131.948L54.394 131.24C54.394 131.24 55.4852 139.219 58.8018 143.709L51.3448 151.817C51.3448 151.817 43.6119 139.495 43.8922 131.948Z" fill="black"/>
<path opacity="0.3" d="M70.487 130.959L45.7148 157.523L46.0303 157.818L70.8025 131.253L70.487 130.959Z" fill="white"/>
<path opacity="0.3" d="M36.8704 132.69L36.8359 132.258L71.2871 129.748L71.3216 130.175L36.8704 132.69Z" fill="white"/>
<path opacity="0.2" d="M90.4405 109.771L87.4603 113.385C80.0896 99.2779 73.9395 98.4843 73.9395 98.4843L74.5346 92.6705C80.8961 95.9526 86.5158 101.982 90.4405 109.771Z" fill="black"/>
<path opacity="0.2" d="M57.8399 114.252L71.4426 128.485L70.4895 128.886L54.6699 122.666C54.6699 122.666 55.9379 117.607 57.8399 114.252Z" fill="black"/>
<path opacity="0.3" d="M37.8267 115.588L37.6689 115.989L70.4886 128.884L70.6463 128.483L37.8267 115.588Z" fill="white"/>
<path opacity="0.2" d="M74.3926 129.666L85.4853 128.096C85.4853 128.096 86.2659 132.685 85.8519 134.027C85.8387 134.068 85.8228 134.108 85.8044 134.147L74.3926 129.666Z" fill="black"/>
<path opacity="0.2" d="M49.0977 105.385C49.0977 105.385 53.734 98.6871 59.5089 96.9102L64.6153 109.12C64.6153 109.12 59.6383 110.961 57.8959 114.636L49.0977 105.385Z" fill="black"/>
<path opacity="0.3" d="M72.5117 127.363L72.1408 127.316C72.0589 127.316 71.9683 127.29 71.9079 127.031L56.7051 91.0618L57.1019 90.8936L71.8131 125.707C71.8131 123.771 72.0459 119.458 72.8525 109.844C73.5641 101.357 74.3921 92.774 74.4008 92.6877L74.8321 92.7308C73.5986 105.501 71.9511 124.646 72.2788 126.802L72.5117 127.363Z" fill="white"/>
<path opacity="0.3" d="M44.4978 100.415L44.1885 100.715L70.7799 128.079L71.0892 127.778L44.4978 100.415Z" fill="white"/>
<path opacity="0.2" d="M82.6211 118.466L87.2661 113.204C87.2661 113.204 91.6781 124.085 91.1821 127.32L85.666 128.096C85.666 128.096 83.6821 118.759 82.6211 118.466Z" fill="black"/>
<path opacity="0.3" d="M90.281 109.639L73.9648 128.01L74.2873 128.296L90.6035 109.925L90.281 109.639Z" fill="white"/>
<path opacity="0.3" d="M85.8693 128.291L85.8434 128.062C85.8434 127.993 85.8434 127.928 85.8132 127.864C85.783 127.799 85.8132 127.687 85.7787 127.596C85.3375 124.446 84.3725 121.392 82.9236 118.561C82.8762 118.47 82.8287 118.38 82.777 118.289C82.7574 118.244 82.7343 118.201 82.708 118.16C80.3876 113.847 77.0581 110.625 73.3447 109.103C73.2067 109.042 73.0687 108.99 72.9134 108.939C70.991 108.204 68.9137 107.968 66.8754 108.253C66.1172 108.361 65.3717 108.544 64.65 108.801C64.5939 108.815 64.5391 108.834 64.4861 108.857L64.2403 108.947C61.6432 110.018 59.424 111.837 57.8659 114.174L57.8184 114.244L57.6933 114.429C57.6665 114.463 57.642 114.499 57.62 114.537C57.4389 114.808 57.2621 115.085 57.0939 115.373C56.9256 115.662 56.7747 115.926 56.6238 116.236C55.6504 118.105 54.9392 120.099 54.5104 122.162C54.4759 122.304 54.4458 122.451 54.4199 122.593C53.8883 125.367 53.7749 128.205 54.0835 131.012L54.1093 131.266C54.1093 131.322 54.1094 131.383 54.1309 131.439C54.1611 131.676 54.1913 131.913 54.2258 132.151C54.7907 136.284 56.2796 140.238 58.5818 143.718C58.6077 143.761 58.6379 143.8 58.6681 143.843C58.6982 143.886 58.7759 144.002 58.8363 144.08C58.9829 144.296 59.1338 144.511 59.2934 144.71C62.3124 148.725 66.3536 151.282 70.5888 151.584C70.7743 151.584 70.964 151.606 71.1538 151.61H71.5851C72.0932 151.606 72.6004 151.567 73.1032 151.494C75.6919 151.088 78.0885 149.881 79.9564 148.043C80.0685 147.94 80.1806 147.832 80.2884 147.72C82.0491 145.896 83.421 143.733 84.321 141.363C84.3814 141.216 84.4374 141.07 84.4935 140.932C85.2472 138.863 85.7314 136.706 85.934 134.514L85.9728 134.061C86.1289 132.139 86.0943 130.206 85.8693 128.291ZM84.183 140.604C84.1312 140.755 84.0751 140.906 84.0191 141.035C83.1589 143.361 81.8387 145.489 80.1375 147.293C80.0297 147.405 79.9219 147.517 79.8097 147.621C77.9856 149.45 75.6257 150.649 73.073 151.045C72.6031 151.115 72.1291 151.152 71.6541 151.157H71.2228C66.7935 151.067 62.5496 148.397 59.4314 144.119L59.164 143.743C59.0778 143.623 58.9958 143.502 58.9182 143.377C56.6815 139.971 55.2358 136.107 54.6873 132.069C54.6528 131.84 54.6226 131.611 54.5967 131.387C54.5967 131.241 54.5622 131.098 54.5493 130.956C54.2466 128.214 54.3527 125.442 54.8641 122.731C54.89 122.585 54.9159 122.442 54.9504 122.3C55.3699 120.25 56.074 118.268 57.0421 116.413L57.3268 115.891C57.5295 115.533 57.758 115.184 57.9607 114.852C58.0254 114.752 58.0901 114.653 58.1591 114.558C58.1734 114.533 58.1893 114.508 58.2066 114.485C59.7233 112.184 61.8959 110.392 64.443 109.34L64.8484 109.189C66.3091 108.684 67.8569 108.48 69.3985 108.589C70.5963 108.68 71.7746 108.944 72.8962 109.374L73.3275 109.542C76.9417 111.061 80.172 114.252 82.4233 118.492C82.4966 118.625 82.5656 118.763 82.6346 118.901C84.0119 121.655 84.9297 124.615 85.3518 127.665L85.3906 127.928C85.3906 127.98 85.3906 128.036 85.3906 128.088C85.3906 128.14 85.4121 128.265 85.4208 128.355C85.645 130.191 85.6898 132.044 85.5545 133.889C85.5545 133.936 85.5545 133.983 85.5545 134.027L85.5286 134.341C85.3507 136.478 84.8984 138.583 84.183 140.604Z" fill="white"/>
<path opacity="0.2" d="M96.1552 138.089C95.909 142.318 95.1175 146.497 93.8004 150.523L89.3711 146.042C90.5787 144.222 91.3205 136.381 91.3205 136.381L91.575 136.558C91.7992 137.037 94.249 137.662 96.1552 138.089Z" fill="black"/>
<path opacity="0.3" d="M74.7788 131.23L74.4746 131.536L93.6643 150.626L93.9685 150.32L74.7788 131.23Z" fill="white"/>
<path opacity="0.3" d="M96.0518 138.594L73.9268 129.649L95.6377 126.384L95.7024 126.811L75.5527 129.839L96.2113 138.193L96.0518 138.594Z" fill="white"/>
<path opacity="0.2" d="M86.6933 163.32C82.8117 167.758 77.8778 170.695 72.2797 171.514C71.3551 171.646 70.4231 171.718 69.4893 171.73L70.395 162.673C70.395 162.673 78.6886 162.798 83.4931 156.104L86.6933 163.32Z" fill="black"/>
<path opacity="0.3" d="M74.0111 132.664L73.6133 132.83L86.4359 163.468L86.8337 163.302L74.0111 132.664Z" fill="white"/>
<path opacity="0.3" d="M72.7885 132.983L69.4287 171.696L69.8584 171.733L73.2181 133.02L72.7885 132.983Z" fill="white"/>
<path opacity="0.3" d="M91.4325 127.454C91.4325 127.311 91.4023 127.169 91.3807 127.022C91.3419 126.669 91.2945 126.315 91.2427 125.962C90.6277 121.598 89.3857 117.346 87.5552 113.338V113.299L87.3741 112.915C84.2127 106.252 79.5893 101.05 74.332 98.1953C74.2284 98.1349 74.1206 98.0788 74.0128 98.0228L73.9222 97.9753C70.4938 96.1277 66.5691 95.4107 62.7088 95.9267C61.6362 96.0816 60.5807 96.3372 59.5561 96.6901L59.1507 96.8367C55.6719 98.1986 52.6333 100.488 50.3654 103.457C49.9341 104 49.5215 104.567 49.1276 105.156C49.0456 105.277 48.9637 105.398 48.8861 105.523C46.4793 109.338 44.84 113.587 44.06 118.03C44.0298 118.172 44.0039 118.315 43.9823 118.461C43.2261 122.853 43.1229 127.332 43.6761 131.754C43.6761 131.896 43.7106 132.038 43.7322 132.185C43.7537 132.332 43.7839 132.595 43.8141 132.802C43.8616 133.134 43.9133 133.47 43.9694 133.798C43.9694 133.798 43.9694 133.798 43.9694 133.828C44.1807 135.122 44.4438 136.377 44.7543 137.611C44.7523 137.623 44.7523 137.637 44.7543 137.649C45.9787 142.703 48.1346 147.484 51.1115 151.748C51.1934 151.869 51.2754 151.985 51.366 152.106C52.2133 153.273 53.1353 154.384 54.1262 155.431C54.7041 156.044 55.2993 156.617 55.9031 157.156C59.8149 160.663 64.1838 162.655 68.6131 162.97C69.1306 163.005 69.6525 163.018 70.17 163.005H70.3512C70.4359 163.009 70.5209 163.009 70.6056 163.005C71.183 162.983 71.7588 162.931 72.3308 162.849C76.5746 162.237 80.4174 160.098 83.5442 156.66C83.5831 156.622 83.6176 156.579 83.6521 156.54L83.8634 156.307C85.3709 154.573 86.656 152.658 87.6889 150.605C88.3669 149.276 88.9548 147.903 89.4486 146.495C89.4783 146.42 89.5042 146.344 89.5262 146.266C89.5559 146.192 89.5818 146.115 89.6038 146.038C90.6099 143.042 91.2528 139.936 91.5187 136.787C91.5187 136.718 91.5187 136.653 91.5403 136.584C91.5619 136.515 91.5403 136.42 91.5619 136.338C91.651 135.165 91.697 133.979 91.6999 132.78C91.7112 131.001 91.6219 129.223 91.4325 127.454ZM91.1349 136.606C90.8855 139.696 90.2687 142.745 89.2976 145.689C89.2487 145.838 89.197 145.982 89.1423 146.12C88.6414 147.578 88.039 148.999 87.3396 150.372C86.3536 152.329 85.1343 154.16 83.7081 155.824C83.6089 155.945 83.5011 156.065 83.3933 156.182C80.288 159.632 76.4927 161.788 72.2833 162.388C71.7399 162.466 71.1965 162.517 70.6531 162.543H70.2218C65.3094 162.647 60.4014 160.615 56.0713 156.682C55.5236 156.186 54.9844 155.656 54.454 155.099C53.4575 154.044 52.5298 152.926 51.6765 151.752L51.5514 151.571L51.422 151.39C47.7604 146.215 45.2546 139.745 44.2411 132.703C44.2109 132.508 44.185 132.314 44.1592 132.12C44.1592 132.047 44.1592 131.974 44.129 131.896C44.0988 131.818 44.129 131.762 44.1074 131.693C43.5589 127.336 43.6533 122.921 44.3877 118.591L44.4654 118.16C45.2286 113.773 46.84 109.577 49.2095 105.807C49.2526 105.736 49.3001 105.662 49.3518 105.588C49.382 105.536 49.4165 105.484 49.451 105.437C49.8306 104.863 50.2317 104.311 50.6457 103.785C52.8801 100.83 55.8897 98.5516 59.3404 97.2033L59.6294 97.0998L59.7502 97.0567C60.74 96.7178 61.7594 96.4723 62.795 96.3235C63.9861 96.1536 65.1918 96.1103 66.392 96.1941C69.0174 96.4015 71.5705 97.1551 73.8877 98.4066L73.974 98.4498L74.2975 98.6266C77.2727 100.319 79.9056 102.553 82.0606 105.212C84.0689 107.663 85.7586 110.359 87.0894 113.234C87.111 113.273 87.1282 113.316 87.1455 113.355L87.2878 113.657C89.0545 117.579 90.2568 121.732 90.8589 125.992C90.9106 126.345 90.958 126.695 91.0012 127.048C91.0012 127.135 91.0012 127.217 91.0314 127.303C91.0616 127.389 91.0314 127.419 91.0314 127.48C91.3594 130.343 91.4158 133.231 91.1996 136.105C91.1737 136.287 91.1521 136.453 91.1349 136.606Z" fill="white"/>
<path d="M73.0269 133.004C74.2127 132.833 74.9835 131.372 74.7484 129.74C74.5133 128.109 73.3614 126.925 72.1755 127.096C70.9897 127.267 70.2189 128.728 70.454 130.359C70.6891 131.991 71.841 133.175 73.0269 133.004Z" fill="#93C0DD"/>
<path opacity="0.2" d="M73.0269 133.004C74.2127 132.833 74.9835 131.372 74.7484 129.74C74.5133 128.109 73.3614 126.925 72.1755 127.096C70.9897 127.267 70.2189 128.728 70.454 130.359C70.6891 131.991 71.841 133.175 73.0269 133.004Z" fill="black"/>
<path opacity="0.1" d="M289.156 25.6185C292.381 25.6185 294.996 23.004 294.996 19.7788C294.996 16.5537 292.381 13.9392 289.156 13.9392C285.931 13.9392 283.316 16.5537 283.316 19.7788C283.316 23.004 285.931 25.6185 289.156 25.6185Z" fill="#93C0DD"/>
<path opacity="0.1" d="M20.4392 88.1291C23.6644 88.1291 26.2788 85.5146 26.2788 82.2895C26.2788 79.0643 23.6644 76.4498 20.4392 76.4498C17.2141 76.4498 14.5996 79.0643 14.5996 82.2895C14.5996 85.5146 17.2141 88.1291 20.4392 88.1291Z" fill="#93C0DD"/>
<path opacity="0.1" d="M430.937 129.606C434.162 129.606 436.777 126.991 436.777 123.766C436.777 120.541 434.162 117.927 430.937 117.927C427.712 117.927 425.098 120.541 425.098 123.766C425.098 126.991 427.712 129.606 430.937 129.606Z" fill="#93C0DD"/>
<path opacity="0.1" d="M407.311 164.846C410.536 164.846 413.151 162.232 413.151 159.007C413.151 155.782 410.536 153.167 407.311 153.167C404.086 153.167 401.472 155.782 401.472 159.007C401.472 162.232 404.086 164.846 407.311 164.846Z" fill="#93C0DD"/>
<path opacity="0.1" d="M306.343 13.6459C307.829 13.6459 309.034 12.441 309.034 10.9547C309.034 9.46833 307.829 8.26343 306.343 8.26343C304.856 8.26343 303.651 9.46833 303.651 10.9547C303.651 12.441 304.856 13.6459 306.343 13.6459Z" fill="#93C0DD"/>
<path opacity="0.1" d="M2.69123 71.421C4.17755 71.421 5.38245 70.2161 5.38245 68.7298C5.38245 67.2435 4.17755 66.0386 2.69123 66.0386C1.2049 66.0386 0 67.2435 0 68.7298C0 70.2161 1.2049 71.421 2.69123 71.421Z" fill="#93C0DD"/>
<path opacity="0.1" d="M427.789 194.929C429.275 194.929 430.48 193.724 430.48 192.237C430.48 190.751 429.275 189.546 427.789 189.546C426.303 189.546 425.098 190.751 425.098 192.237C425.098 193.724 426.303 194.929 427.789 194.929Z" fill="#93C0DD"/>
<path opacity="0.1" d="M320.998 3.80395C322.048 3.80395 322.9 2.9524 322.9 1.90197C322.9 0.851542 322.048 0 320.998 0C319.947 0 319.096 0.851542 319.096 1.90197C319.096 2.9524 319.947 3.80395 320.998 3.80395Z" fill="#93C0DD"/>
<path opacity="0.1" d="M14.5992 111.03C15.6497 111.03 16.5012 110.179 16.5012 109.128C16.5012 108.078 15.6497 107.226 14.5992 107.226C13.5488 107.226 12.6973 108.078 12.6973 109.128C12.6973 110.179 13.5488 111.03 14.5992 111.03Z" fill="#93C0DD"/>
<path d="M417.015 276.368C417.015 276.368 413.789 262.494 411.641 245.626C409.493 228.759 392.841 200.729 392.841 200.729C392.768 200.587 392.69 200.44 392.613 200.298C390.031 195.398 386.925 190.792 383.349 186.562C376.017 177.906 369.366 174.016 369.034 173.826C368.508 173.024 367.943 172.139 367.348 171.195C365.114 167.663 362.457 163.22 359.921 158.424C359.921 158.312 359.882 158.205 359.861 158.092C358.731 151.261 358.688 144.076 362.086 138.176C363.764 135.264 366.184 132.866 368.029 130.063C371.048 125.491 372.42 120.036 373.528 114.653C374.309 110.888 374.982 107.05 374.783 103.216C374.783 103.155 374.783 103.099 374.783 103.043C374.783 102.776 374.749 102.508 374.723 102.241C374.089 95.2885 370.445 89.0434 366.891 83.0615C365.019 79.9131 363.052 76.6655 360.038 74.6298C353.767 70.3989 346.081 73.047 339.379 70.6232C332.259 68.0355 325.75 65.6246 318 64.831C315.253 64.5507 312.234 64.4817 310.008 66.1249C307.671 67.85 306.895 70.9984 305.342 73.4869C302.379 78.2311 296.79 80.3875 292.071 83.372C288.487 85.619 285.05 89.2116 284.308 93.1665C284.308 93.1665 284.308 93.145 284.308 93.132C284.23 93.5593 284.184 93.9918 284.17 94.4259C284.17 94.4518 284.17 94.482 284.17 94.5078V94.6372C284.156 95.4353 284.263 96.2308 284.489 96.9964C284.757 97.1344 285.028 97.2551 285.304 97.3759C285.132 97.6562 284.959 97.9366 284.796 98.2385L284.433 98.8811C281.552 104.079 279.807 109.83 279.314 115.753C278.821 121.675 279.59 127.635 281.572 133.238C283.554 138.842 286.702 143.96 290.81 148.256C294.917 152.551 299.889 155.926 305.398 158.157C305.652 158.778 305.916 159.421 306.174 160.085C310.626 171.287 312.966 183.216 313.075 195.269C313.075 195.381 313.075 195.494 313.075 195.606C313.075 196.037 313.075 196.468 313.075 196.921C309.193 201.838 305.169 207.936 305.312 212.154C305.545 219.219 296.125 235.655 293.585 239.951L293.076 240.813C290.54 238.976 287.526 237.324 286.063 238.484L284.839 237.699C278.645 233.723 267.587 226.356 263.417 221.953C257.508 215.695 245.958 209.98 245.958 209.98C245.958 209.98 236.828 199.095 237.367 195.015C237.634 192.983 233.968 176.767 229.427 164.868C232.744 165.217 236.151 165.636 237.19 165.765L237.445 165.989L237.803 166.045C250.357 177.078 253.105 172.161 253.105 172.161C254.131 171.467 254.48 169.375 254.58 168.573C254.58 168.495 254.58 168.435 254.58 168.383H254.644C254.644 168.318 254.644 168.266 254.644 168.223C254.671 168.176 254.694 168.127 254.713 168.077L254.743 168.021L254.765 167.977C254.765 167.943 254.795 167.904 254.812 167.865C254.885 167.729 254.942 167.584 254.981 167.434H254.946C255.111 166.532 255.199 165.617 255.209 164.7C255.212 163.991 254.973 163.302 254.53 162.748C254.088 162.194 253.469 161.808 252.777 161.655C252.777 161.633 252.777 161.612 252.755 161.586C251.125 156.738 239.269 163.928 237.958 164.743L237.639 164.777C235.262 164.303 231.601 163.436 228.5 162.686C224.295 152.455 219.525 146.728 216.467 159.317L213.655 158.834C213.305 158.771 212.946 158.781 212.601 158.862C212.255 158.944 211.93 159.096 211.645 159.309C211.249 159.6 210.921 159.974 210.683 160.404L198.482 158.472L195.605 158.571L198.042 159.749L198.223 159.835L210.424 161.823C210.499 162.399 210.761 162.935 211.17 163.347C211.579 163.76 212.113 164.026 212.689 164.105L215.427 164.501C210.537 193.048 221.465 202.364 221.465 202.364C221.465 202.364 234.624 215.268 234.624 218.322C234.624 220.909 260.311 251.647 268.118 260.924C269.515 262.589 270.343 263.564 270.343 263.564C273.41 267.087 288.155 279.124 295.017 284.671C295.69 290.277 296.311 295.884 296.669 298.959L297.963 298.925L304.1 298.757L307.404 298.657C310.25 298.58 313.094 298.498 315.934 298.411L317.021 298.381L319.501 298.304C322.701 298.212 325.9 298.117 329.097 298.019C333.816 297.877 338.534 297.739 343.256 297.588C349.726 297.359 356.169 297.096 362.617 296.725C364.226 296.635 365.839 296.54 367.452 296.432L368.513 296.359L370.238 296.242C380.787 295.496 391.293 294.422 401.722 292.766C403.8 292.434 405.892 292.072 407.975 291.662C409.2 291.429 410.425 291.174 411.641 290.898C414.108 290.351 416.554 289.725 418.943 289.005C417.925 281.716 417.015 276.368 417.015 276.368Z" fill="url(#paint0_linear)"/>
<path d="M239.131 167.589L237.527 167.533C237.527 167.533 226.645 166.183 223.16 166.101C222.809 166.051 222.451 166.079 222.112 166.183L222.884 163.069L223.829 163.302C227.145 164.122 238.139 166.813 239.907 166.873C241.999 166.942 239.131 167.589 239.131 167.589Z" fill="#93C0DD"/>
<path d="M237.867 166.554C237.867 166.554 251.065 158.299 252.79 163.367C254.515 168.435 250.017 169.181 250.017 169.181L237.867 166.554Z" fill="#93C0DD"/>
<path opacity="0.2" d="M237.867 166.554C237.867 166.554 251.065 158.299 252.79 163.367C254.515 168.435 250.017 169.181 250.017 169.181L237.867 166.554Z" fill="black"/>
<path d="M253.101 173.813C253.101 173.813 250.319 178.738 237.51 167.533L237.687 167.305L238.217 166.619C238.217 166.619 254.796 158.998 255.227 166.442C255.221 167.41 255.117 168.376 254.916 169.323C254.87 169.529 254.78 169.723 254.653 169.892L254.593 169.948C254.593 169.948 254.593 170.065 254.559 170.263C254.477 171.057 254.127 173.118 253.101 173.813Z" fill="#93C0DD"/>
<path opacity="0.1" d="M253.101 173.813C253.101 173.813 250.319 178.738 237.51 167.533L237.687 167.305L237.984 166.999L254.653 169.892L254.593 169.949C254.593 169.949 254.593 170.065 254.559 170.263C254.477 171.057 254.127 173.118 253.101 173.813Z" fill="black"/>
<path opacity="0.1" d="M254.662 170.086L237.609 167.344L236.746 166.61L238.307 166.429L255.002 169.133C254.959 169.368 254.848 169.585 254.683 169.759C254.683 169.759 254.688 169.888 254.662 170.086Z" fill="black"/>
<path opacity="0.1" d="M254.494 170.44L237.441 167.71L236.578 166.981L238.135 166.796L254.847 169.5C254.804 169.736 254.692 169.954 254.524 170.125C254.524 170.125 254.52 170.246 254.494 170.44Z" fill="black"/>
<path d="M254.575 170.263L237.509 167.533L236.646 166.804L238.203 166.619L254.903 169.323C254.855 169.557 254.743 169.774 254.579 169.948C254.579 169.948 254.601 170.065 254.575 170.263Z" fill="#4C4C56"/>
<path opacity="0.1" d="M223.16 166.101C222.809 166.051 222.451 166.079 222.112 166.183L222.884 163.069L223.829 163.302C223.723 164.259 223.498 165.2 223.16 166.101Z" fill="black"/>
<path d="M223.277 162.271L213.698 160.65C213.349 160.587 212.991 160.597 212.645 160.678C212.3 160.759 211.974 160.909 211.689 161.12C211.295 161.375 210.974 161.727 210.757 162.143C210.54 162.558 210.435 163.023 210.451 163.492C210.506 164.086 210.762 164.644 211.177 165.073C211.592 165.502 212.14 165.776 212.732 165.851L222.337 167.214C222.337 167.214 224.071 162.983 223.277 162.271Z" fill="#D1D9EC"/>
<path opacity="0.1" d="M195.816 160.477L198.697 160.374L211.114 162.319C211.205 162.333 211.293 162.365 211.371 162.414C211.449 162.462 211.517 162.526 211.57 162.601C211.623 162.677 211.661 162.762 211.68 162.852C211.7 162.942 211.701 163.035 211.683 163.126C211.649 163.299 211.548 163.453 211.403 163.555C211.257 163.656 211.078 163.697 210.903 163.669L198.262 161.638L195.816 160.477Z" fill="black"/>
<path d="M195.64 160.391L198.516 160.292L210.937 162.233C211.027 162.247 211.113 162.28 211.19 162.328C211.268 162.376 211.334 162.439 211.387 162.513C211.44 162.588 211.477 162.672 211.497 162.76C211.517 162.849 211.518 162.941 211.502 163.031C211.469 163.204 211.369 163.359 211.224 163.461C211.08 163.563 210.901 163.605 210.726 163.578L198.081 161.543L195.64 160.391Z" fill="#DFE6F5"/>
<path d="M289.173 241.214L270.373 264.042C270.373 264.042 269.545 263.08 268.148 261.433C260.342 252.277 234.654 221.953 234.654 219.382C234.654 216.363 221.496 203.615 221.496 203.615C221.496 203.615 209.678 193.695 216.122 162.78C222.565 131.866 237.876 192.332 237.341 196.36C236.806 200.389 245.932 211.132 245.932 211.132C245.932 211.132 257.482 216.773 263.391 222.949C267.548 227.297 278.62 234.568 284.813 238.476C287.426 240.149 289.173 241.214 289.173 241.214Z" fill="#FDC2CC"/>
<path opacity="0.1" d="M289.173 241.214L270.373 264.042C270.373 264.042 269.545 263.08 268.147 261.433C268.449 255.041 281.949 240.938 284.338 238.795C284.479 238.669 284.639 238.567 284.812 238.493C287.426 240.149 289.173 241.214 289.173 241.214Z" fill="black"/>
<path d="M297.23 244.975C297.23 244.975 288.634 236.919 285.952 239.338C283.269 241.758 266.345 259.479 270.373 264.046C274.402 268.614 298.571 287.672 298.571 287.672L297.23 244.975Z" fill="#5F5D7E"/>
<path opacity="0.1" d="M297.23 244.975C297.23 244.975 288.634 236.919 285.952 239.338C283.269 241.758 266.345 259.479 270.373 264.046C274.402 268.614 298.571 287.672 298.571 287.672L297.23 244.975Z" fill="black"/>
<path d="M372.696 180.787C372.696 180.787 364.307 188.882 353.801 197.663L353.404 197.991L352.792 198.5C336.032 212.361 314.433 227.318 312.208 214.518C311.959 212.847 311.948 211.149 312.178 209.476C312.204 209.23 312.238 208.976 312.273 208.717C312.307 208.458 312.342 208.216 312.367 207.971C312.786 204.745 313.018 201.498 313.062 198.245C313.062 197.697 313.062 197.154 313.062 196.615C312.951 184.708 310.611 172.928 306.161 161.883C305.902 161.228 305.639 160.59 305.385 159.981C301.935 151.752 298.558 146.948 298.558 146.948C298.558 146.948 303.548 143.929 310.465 140.047C313.006 138.633 315.8 137.11 318.707 135.584C334.665 127.217 353.853 118.85 351.196 128.683C349.941 133.337 351.106 139.513 353.417 145.978C353.547 146.336 353.676 146.685 353.81 147.039C355.308 150.945 357.037 154.76 358.985 158.463L359.115 158.713C361.888 164.027 364.877 168.991 367.352 172.851C367.947 173.783 368.512 174.654 369.038 175.439C371.208 178.76 372.696 180.787 372.696 180.787Z" fill="#FDC2CC"/>
<path opacity="0.1" d="M353.823 147.038C353.698 147.224 353.565 147.409 353.431 147.591C349.403 153.068 344.741 156.328 339.199 158.166C335.377 159.438 331.125 160.037 326.359 160.227C325.173 160.27 323.961 160.292 322.71 160.292C319.828 160.297 316.948 160.131 314.085 159.796C312.58 159.559 311.005 160.572 309.483 161.314C308.349 161.862 307.24 162.263 306.205 161.883C305.946 161.228 305.683 160.59 305.429 159.981C301.979 151.752 298.602 146.948 298.602 146.948C298.602 146.948 303.592 143.929 310.509 140.047C313.05 138.633 315.844 137.11 318.751 135.584C334.709 127.217 353.897 118.85 351.24 128.683C349.985 133.337 351.149 139.513 353.461 145.978C353.56 146.335 353.69 146.685 353.823 147.038Z" fill="black"/>
<path d="M361.418 121.627C361.418 122.257 361.418 122.878 361.375 123.499C360.962 132.631 357.519 141.365 351.59 148.322C345.661 155.279 337.583 160.063 328.632 161.918C323.735 162.925 318.697 163.038 313.761 162.25C312.307 162.023 310.867 161.715 309.448 161.327C308.074 160.954 306.721 160.509 305.394 159.994C299.904 157.86 294.935 154.573 290.825 150.354C286.714 146.135 283.556 141.083 281.565 135.54C279.573 129.996 278.795 124.09 279.281 118.22C279.768 112.349 281.509 106.652 284.386 101.512L284.748 100.878C289.308 93.074 296.311 86.9886 304.674 83.5619C313.038 80.1352 322.297 79.5578 331.022 81.919C339.746 84.2801 347.45 89.4483 352.944 96.6253C358.438 103.802 361.416 112.589 361.418 121.627Z" fill="#FDC2CC"/>
<path opacity="0.1" d="M372.696 180.787C372.696 180.787 307.434 243.897 312.269 208.717C312.817 204.706 313.085 200.663 313.071 196.615C315.336 193.815 317.741 191.132 320.278 188.576L329.447 181.947C338.901 175.046 350.429 171.583 362.121 172.131C363.885 172.176 365.638 172.417 367.348 172.851C370.423 177.668 372.696 180.787 372.696 180.787Z" fill="black"/>
<path d="M418.952 289.134C416.562 289.846 414.117 290.463 411.65 291.002C410.434 291.274 409.209 291.524 407.984 291.757C405.901 292.158 403.809 292.516 401.73 292.843C391.319 294.478 380.813 295.539 370.246 296.294L368.521 296.41L367.46 296.479C365.847 296.587 364.234 296.682 362.626 296.772C356.178 297.135 349.722 297.398 343.265 297.635C338.521 297.799 333.824 297.937 329.106 298.066L319.51 298.347L317.03 298.42L315.943 298.45C313.102 298.536 310.259 298.618 307.412 298.696L304.109 298.791L297.971 298.959L296.678 298.994C296.333 295.949 295.699 290.415 295.026 284.891L294.87 283.597C294.129 277.503 293.361 271.65 292.917 269.433C291.843 264.064 292.917 241.771 292.917 241.771L293.033 241.585L293.542 240.723C296.082 236.483 305.502 220.258 305.269 213.284C305.131 209.122 309.15 203.101 313.032 198.249C313.541 197.62 314.045 197.007 314.541 196.425C317.634 192.789 320.282 190.202 320.282 190.202L329.447 183.568C338.906 176.675 350.434 173.215 362.125 173.761C365.576 173.938 368.327 174.421 369.026 175.46C369.323 175.629 376.008 179.467 383.34 188.032C386.911 192.202 390.018 196.749 392.604 201.592C392.682 201.73 392.76 201.872 392.833 202.023C392.833 202.023 409.485 229.686 411.633 246.338C413.78 262.99 417.006 276.683 417.006 276.683C417.006 276.683 417.925 281.941 418.952 289.134Z" fill="#5F5D7E"/>
<path opacity="0.1" d="M369.207 276.394C367.883 278.551 368.906 288.647 370.264 296.277L368.539 296.393L367.478 296.462C365.865 296.57 364.252 296.665 362.643 296.755C356.196 297.118 349.739 297.381 343.283 297.618C338.539 297.782 333.842 297.92 329.124 298.049L319.528 298.329C319.528 297.346 319.226 296.496 318.445 296C317.9 295.608 317.417 295.135 317.013 294.599C316.888 294.448 316.759 294.284 316.629 294.116C313.641 290.148 309.854 282.04 309.854 282.04C309.854 282.04 305.019 283.114 304.48 243.655C304.308 230.794 307.637 221.384 312.204 214.539C321.667 200.367 336.438 197.193 336.438 197.193C341.912 196.241 347.537 196.699 352.784 198.525C354.842 199.248 356.824 200.171 358.701 201.281C361.218 202.795 363.565 204.575 365.701 206.591L366.391 207.25C381.452 221.914 385.01 244.811 375.707 263.671C372.727 269.696 370.04 275.04 369.207 276.394Z" fill="black"/>
<path d="M367.06 274.246C365.602 276.618 366.991 288.664 368.543 296.393L367.482 296.462C365.869 296.57 364.256 296.665 362.648 296.755C356.2 297.118 349.743 297.381 343.287 297.618C338.543 297.782 333.846 297.92 329.128 298.049L319.532 298.329L317.052 298.403C317.432 297.01 317.574 295.574 317.017 294.599C316.914 294.42 316.785 294.257 316.634 294.116C316.534 294.014 316.423 293.926 316.302 293.853C313.347 291.972 307.706 279.883 307.706 279.883C307.706 279.883 302.876 280.962 302.336 241.499C302.138 226.723 306.563 216.484 312.178 209.489C321.572 197.771 334.295 195.036 334.295 195.036C335.961 194.76 337.644 194.604 339.332 194.571H339.384C344.366 194.46 349.303 195.524 353.798 197.676C357.662 199.562 361.19 202.071 364.239 205.103C364.739 205.59 365.231 206.086 365.701 206.59C379.502 221.293 382.556 243.293 373.559 261.523C370.579 267.549 367.892 272.892 367.06 274.246Z" fill="#5F5D7E"/>
<path opacity="0.1" d="M333.837 247.731C333.837 247.731 307.335 266.539 309.595 269.127C311.855 271.715 333.837 247.731 333.837 247.731Z" fill="black"/>
<path opacity="0.1" d="M371.027 254.506C371.027 254.506 362.746 247.131 363.346 249.991C363.945 252.85 371.027 254.506 371.027 254.506Z" fill="black"/>
<path opacity="0.1" d="M362.647 296.755C356.2 297.118 349.743 297.381 343.287 297.618C332.233 296.324 320.739 294.422 320.739 294.422C321.736 293.84 357.002 293.137 362.647 296.755Z" fill="black"/>
<path opacity="0.1" d="M411.65 291.002C410.434 291.274 409.209 291.524 407.984 291.757C407.505 284.041 407.315 277.395 407.315 277.395C408.996 281.852 410.443 286.394 411.65 291.002Z" fill="black"/>
<path opacity="0.1" d="M307.433 298.679L304.13 298.774C301.499 291.588 299.239 283.066 298.316 279.448C298.031 278.331 297.885 277.679 297.885 277.679L298.294 278.542C299.653 281.376 304.156 290.829 307.433 298.679Z" fill="black"/>
<path opacity="0.1" d="M358.701 136.321C357.385 139.763 355.609 143.011 353.422 145.978C353.551 146.336 353.681 146.685 353.815 147.039C355.313 150.945 357.041 154.76 358.99 158.463L359.119 158.713C359.344 160.439 359.654 162.164 360.012 163.846C353.457 164.191 346.894 164.342 340.324 164.299C337.469 164.299 334.571 164.217 331.849 163.363C330.725 163.008 329.647 162.518 328.64 161.905C327.831 161.414 327.066 160.853 326.355 160.227C322.808 157.022 320.569 152.621 320.066 147.867C319.674 144.162 320.235 140.323 319.161 136.757C319.037 136.36 318.893 135.97 318.729 135.588C317.851 133.556 316.464 131.785 314.703 130.445C312.941 129.105 310.864 128.241 308.672 127.937C308.037 127.798 307.375 127.889 306.8 128.191C306.31 128.599 305.956 129.147 305.787 129.761L301.34 141.358C298.174 142.152 295.94 138.016 296.203 134.764C296.466 131.512 297.928 128.183 296.846 125.103C296.514 124.15 295.949 123.283 295.707 122.309C294.746 118.466 298.877 115.054 298.912 111.095C298.938 107.839 296.152 105.208 293.193 103.854C290.48 102.612 287.483 102.077 284.766 100.865C289.33 93.0686 296.333 86.9911 304.694 83.5704C313.056 80.1497 322.31 79.576 331.03 81.9379C339.75 84.2997 347.45 89.4658 352.942 96.6389C358.434 103.812 361.413 112.593 361.418 121.627C361.418 122.257 361.418 122.878 361.375 123.499C361.179 127.889 360.276 132.218 358.701 136.321Z" fill="black"/>
<path d="M317.983 67.8845C315.236 67.6085 312.217 67.5395 309.991 69.1784C307.654 70.9035 306.878 73.9915 305.325 76.4455C302.362 81.1379 296.773 83.2814 292.054 86.2012C287.336 89.121 282.868 94.3353 284.446 99.6574C287.353 101.124 290.653 101.637 293.611 102.991C296.57 104.345 299.356 106.976 299.33 110.233C299.296 114.192 295.164 117.603 296.126 121.446C296.367 122.421 296.932 123.288 297.264 124.241C298.338 127.32 296.885 130.65 296.622 133.902C296.359 137.153 298.593 141.289 301.758 140.496L306.235 128.899C306.405 128.284 306.759 127.736 307.249 127.329C307.823 127.026 308.486 126.936 309.12 127.074C311.517 127.41 313.77 128.416 315.62 129.976C317.469 131.537 318.84 133.588 319.575 135.894C320.649 139.461 320.088 143.299 320.48 147.004C321.201 153.836 325.716 160.443 332.272 162.5C334.993 163.363 337.878 163.419 340.747 163.436C347.311 163.485 353.873 163.334 360.435 162.983C358.817 155.375 358.158 146.969 362.078 140.259C363.756 137.386 366.175 135.019 368.021 132.25C371.04 127.738 372.412 122.352 373.52 117.043C374.383 113.019 375.086 108.904 374.706 104.811C374.072 97.9495 370.428 91.7821 366.874 85.8821C365.002 82.7725 363.035 79.5637 360.021 77.5539C353.75 73.3791 346.064 75.997 339.362 73.599C332.242 71.0588 325.733 68.6694 317.983 67.8845Z" fill="#865A61"/>
<g opacity="0.1">
<path opacity="0.1" d="M297.54 125.259C297.77 123.885 297.674 122.478 297.26 121.148C296.958 120.286 296.471 119.488 296.199 118.617C295.938 119.514 295.912 120.463 296.126 121.373C296.367 122.347 296.932 123.214 297.26 124.167C297.384 124.523 297.478 124.888 297.54 125.259Z" fill="black"/>
<path opacity="0.1" d="M299.128 108.65C299.252 108.156 299.318 107.649 299.326 107.14C299.352 103.888 296.57 101.253 293.611 99.8989C290.653 98.5447 287.353 98.0314 284.447 96.5651C284.375 96.3252 284.316 96.082 284.27 95.8362C284.027 97.0816 284.088 98.367 284.447 99.5841C287.353 101.05 290.653 101.564 293.611 102.918C296.1 104.056 298.45 106.101 299.128 108.65Z" fill="black"/>
<path opacity="0.1" d="M340.743 160.344C337.892 160.344 334.994 160.262 332.272 159.408C325.717 157.351 321.201 150.743 320.481 143.912C320.088 140.207 320.649 136.373 319.575 132.802C318.84 130.493 317.466 128.44 315.613 126.88C313.76 125.319 311.503 124.314 309.103 123.982C308.469 123.844 307.806 123.934 307.232 124.236C306.74 124.643 306.386 125.191 306.218 125.806L301.772 137.404C299.227 138.042 297.286 135.497 296.756 132.785C296.708 133.134 296.661 133.483 296.635 133.828C296.368 137.08 298.606 141.216 301.772 140.423L306.248 128.825C306.416 128.21 306.77 127.662 307.262 127.255C307.836 126.953 308.499 126.863 309.134 127.001C311.53 127.336 313.783 128.342 315.633 129.903C317.483 131.463 318.854 133.515 319.588 135.821C320.662 139.392 320.101 143.226 320.494 146.931C321.214 153.762 325.73 160.37 332.285 162.427C335.006 163.289 337.892 163.345 340.756 163.363C347.325 163.412 353.89 163.268 360.448 162.931C360.241 161.944 360.047 160.943 359.874 159.938C353.5 160.252 347.123 160.387 340.743 160.344Z" fill="black"/>
<path opacity="0.1" d="M373.52 113.95C372.407 119.259 371.031 124.646 368.021 129.157C366.175 131.926 363.755 134.294 362.077 137.166C359.68 141.268 358.998 146.003 359.197 150.804C359.36 147.056 360.184 143.424 362.077 140.185C363.755 137.313 366.175 134.945 368.021 132.176C371.04 127.665 372.407 122.278 373.52 116.969C374.304 113.221 374.986 109.396 374.77 105.579C374.566 108.397 374.148 111.196 373.52 113.95Z" fill="black"/>
</g>
</g>
<defs>
<linearGradient id="paint0_linear" x1="307.296" y1="298.976" x2="307.296" y2="64.6973" gradientUnits="userSpaceOnUse">
<stop stop-color="#808080" stop-opacity="0.25"/>
<stop offset="0.54" stop-color="#808080" stop-opacity="0.12"/>
<stop offset="1" stop-color="#808080" stop-opacity="0.1"/>
</linearGradient>
<clipPath id="clip0">
<rect width="450" height="300.184" fill="white"/>
</clipPath>
</defs>
</svg>
