<svg width="64" height="64" viewBox="0 0 64 64" fill="none" xmlns="http://www.w3.org/2000/svg">
<path d="M32 0C14.4238 0 0 14.4238 0 32C0 37.8008 1.56396 43.4478 4.52979 48.3882L0 64L15.6118 59.4702C20.5522 62.436 26.1992 64 32 64C49.5762 64 64 49.5762 64 32C64 14.4238 49.5762 0 32 0ZM52.0068 45.521L50.5181 47.0098C48.4116 49.1162 43.5674 48.9492 40.4546 48.3481C30.1045 46.3491 18.0376 34.6528 15.7104 24.5239C14.5581 19.5063 15.1943 15.144 16.8584 13.4795L18.3472 11.9907C19.1689 11.1694 20.5039 11.1704 21.3247 11.9907L27.2808 17.9473C27.6782 18.3447 27.896 18.8716 27.896 19.4355C27.896 19.9995 27.6782 20.5269 27.2808 20.9229L25.7925 22.4131C24.1519 24.0576 24.1519 26.729 25.7925 28.3696L35.6279 38.0757C37.2734 39.7212 39.9365 39.7231 41.5845 38.0757L43.0732 36.5874C43.8418 35.8145 45.2773 35.812 46.0522 36.5874L52.0068 42.542C52.8154 43.3472 52.8462 44.6812 52.0068 45.521Z" fill="#C5CACD"/>
</svg>
