<svg width="500" height="380" viewBox="0 0 500 380" fill="none" xmlns="http://www.w3.org/2000/svg">
<g clip-path="url(#clip0)">
<path opacity="0.1" d="M470.093 205.736C452.515 229.856 458.316 264.285 468.476 291.714C471.88 300.895 475.746 310.607 473.981 320.597C471.826 332.81 461.697 341.96 451.168 346.944C431.974 356.027 409.299 354.577 392.13 343.132C377.313 333.254 366.883 316.839 351.779 307.433C326.501 291.696 293.685 298.727 265.551 310.742C245.647 319.241 223.844 330.187 204.448 322.339C190.798 316.817 181.608 302.759 176.772 287.731C174.437 280.475 172.803 272.6 168.151 266.92C165.386 263.544 161.731 261.191 157.973 259.225C123.674 241.265 79.5566 252.49 46.3044 232.451C23.8548 218.919 9.88226 192.657 4.07682 165.049C-1.72862 137.44 -0.291854 108.297 2.02045 79.6509C3.66375 59.2937 6.2634 37.5401 18.5029 21.5426C31.4473 4.62915 53.1425 -2.09224 72.5433 0.556805C91.9442 3.20585 109.338 13.9816 124.554 26.8452C143.587 42.8921 161.098 63.0383 184.768 69.1311C200.892 73.2798 218.021 70.3434 234.781 69.0458C262.798 66.8816 290.717 69.3735 318.464 72.1887C345.027 74.8827 371.773 77.8909 396.93 86.7225C414.732 92.9725 428.844 104.785 445.605 112.858C456.529 118.12 468.548 119.342 478.83 126.139C491.519 134.513 502.986 149.348 499.264 167.15C495.748 184.073 479.432 192.936 470.093 205.736Z" fill="#93C0DD"/>
<g opacity="0.5">
<path opacity="0.5" d="M383.883 315.748C383.883 315.748 385.364 271.855 409.112 247.052C419.079 236.645 425.625 223.426 427.359 209.122C428.169 202.333 428.355 195.484 427.915 188.661" stroke="#535461" stroke-width="2" stroke-miterlimit="10"/>
<path opacity="0.5" d="M442.79 172.951C441.165 177.854 427.578 189.115 427.578 189.115C427.578 189.115 423.416 171.959 425.042 167.06C425.428 165.895 426.04 164.817 426.843 163.888C427.646 162.959 428.625 162.198 429.722 161.647C430.819 161.096 432.014 160.767 433.239 160.678C434.464 160.589 435.694 160.743 436.859 161.129C438.024 161.516 439.102 162.128 440.031 162.931C440.96 163.734 441.721 164.712 442.272 165.809C442.823 166.907 443.152 168.102 443.241 169.326C443.33 170.551 443.177 171.781 442.79 172.947V172.951Z" fill="#93C0DD"/>
<path opacity="0.5" d="M448.452 204.964C444.411 208.197 426.9 210.271 426.9 210.271C426.9 210.271 432.737 193.609 436.778 190.381C437.729 189.554 438.836 188.927 440.035 188.539C441.234 188.15 442.499 188.009 443.754 188.122C445.008 188.234 446.228 188.6 447.338 189.196C448.448 189.792 449.426 190.606 450.213 191.59C451.001 192.574 451.581 193.706 451.92 194.92C452.258 196.134 452.348 197.403 452.183 198.652C452.019 199.902 451.604 201.105 450.962 202.189C450.321 203.274 449.467 204.218 448.452 204.964Z" fill="#93C0DD"/>
<path opacity="0.5" d="M432.432 251.138C427.323 251.893 411.146 244.852 411.146 244.852C411.146 244.852 424.588 233.412 429.698 232.658C430.912 232.478 432.151 232.54 433.341 232.839C434.532 233.138 435.653 233.668 436.638 234.4C437.624 235.132 438.456 236.051 439.087 237.104C439.718 238.158 440.135 239.325 440.314 240.54C440.494 241.754 440.432 242.993 440.133 244.183C439.834 245.374 439.304 246.495 438.572 247.48C437.84 248.466 436.921 249.298 435.868 249.929C434.814 250.56 433.647 250.977 432.432 251.156V251.138Z" fill="#93C0DD"/>
<path opacity="0.5" d="M412.438 283.349C407.53 284.956 390.393 280.736 390.393 280.736C390.393 280.736 401.712 267.19 406.619 265.582C408.975 264.808 411.542 265.002 413.755 266.12C415.968 267.239 417.647 269.191 418.421 271.547C419.195 273.903 419.001 276.47 417.883 278.683C416.764 280.897 414.812 282.575 412.456 283.349H412.438Z" fill="#93C0DD"/>
<path opacity="0.5" d="M407.949 205.04C410.333 209.62 425.553 218.586 425.553 218.586C425.553 218.586 426.936 200.99 424.552 196.406C423.986 195.317 423.21 194.35 422.27 193.561C421.329 192.772 420.243 192.175 419.072 191.806C417.902 191.437 416.669 191.301 415.447 191.408C414.224 191.515 413.034 191.862 411.945 192.428C410.856 192.995 409.889 193.77 409.099 194.711C408.31 195.651 407.714 196.737 407.344 197.908C406.975 199.079 406.84 200.311 406.947 201.534C407.053 202.757 407.4 203.947 407.966 205.036L407.949 205.04Z" fill="#93C0DD"/>
<path opacity="0.5" d="M385.046 243.003C388.692 246.662 405.879 250.667 405.879 250.667C405.879 250.667 401.933 233.461 398.291 229.802C396.541 228.046 394.165 227.056 391.686 227.052C389.207 227.047 386.827 228.028 385.071 229.777C383.314 231.527 382.325 233.903 382.32 236.383C382.316 238.862 383.296 241.242 385.046 242.998V243.003Z" fill="#93C0DD"/>
<path opacity="0.5" d="M367.849 282.958C370.821 287.179 387.088 294.035 387.088 294.035C387.088 294.035 386.109 276.412 383.132 272.187C382.444 271.139 381.551 270.241 380.508 269.546C379.466 268.85 378.293 268.371 377.062 268.138C375.83 267.905 374.564 267.921 373.339 268.187C372.114 268.453 370.955 268.963 369.931 269.686C368.907 270.409 368.038 271.33 367.378 272.395C366.717 273.461 366.277 274.648 366.085 275.887C365.892 277.125 365.951 278.39 366.257 279.606C366.563 280.821 367.11 281.963 367.867 282.963L367.849 282.958Z" fill="#93C0DD"/>
<path opacity="0.5" d="M389.1 297.582C389.1 297.582 375.63 277.988 377.992 259.552C379.032 251.826 377.539 243.971 373.735 237.166C371.904 233.949 369.782 230.907 367.396 228.078" stroke="#535461" stroke-width="2" stroke-miterlimit="10"/>
<path opacity="0.5" d="M368.818 216.449C369.685 219.107 367.395 228.383 367.395 228.383C367.395 228.383 360.063 222.25 359.196 219.597C358.78 218.321 358.887 216.931 359.494 215.735C360.102 214.538 361.16 213.631 362.436 213.214C363.712 212.797 365.101 212.905 366.298 213.512C367.495 214.12 368.402 215.178 368.818 216.454V216.449Z" fill="#93C0DD"/>
<path opacity="0.5" d="M381.583 228.568C380.87 231.262 373.901 237.812 373.901 237.812C373.901 237.812 371.082 228.68 371.796 225.977C372.139 224.679 372.984 223.571 374.145 222.896C375.306 222.221 376.687 222.035 377.985 222.378C379.283 222.722 380.391 223.567 381.066 224.728C381.741 225.888 381.927 227.27 381.583 228.568Z" fill="#93C0DD"/>
<path opacity="0.5" d="M389.459 253.828C387.479 255.799 378.162 257.931 378.162 257.931C378.162 257.931 380.335 248.624 382.32 246.653C382.791 246.184 383.351 245.813 383.966 245.56C384.581 245.308 385.24 245.179 385.905 245.181C386.57 245.183 387.228 245.316 387.842 245.572C388.455 245.829 389.012 246.204 389.481 246.675C389.95 247.147 390.321 247.706 390.574 248.322C390.826 248.937 390.955 249.596 390.953 250.261C390.951 250.926 390.818 251.584 390.562 252.197C390.305 252.811 389.93 253.368 389.459 253.837V253.828Z" fill="#93C0DD"/>
<path opacity="0.5" d="M391.117 274.288C389.496 276.564 380.655 280.233 380.655 280.233C380.655 280.233 381.225 270.692 382.846 268.415C383.231 267.873 383.719 267.413 384.282 267.059C384.846 266.706 385.473 266.467 386.128 266.356C386.783 266.245 387.454 266.265 388.102 266.413C388.75 266.561 389.363 266.836 389.904 267.221C390.446 267.606 390.907 268.094 391.26 268.657C391.614 269.22 391.853 269.847 391.963 270.503C392.074 271.158 392.055 271.829 391.907 272.477C391.758 273.125 391.484 273.737 391.099 274.279L391.117 274.288Z" fill="#93C0DD"/>
<path opacity="0.5" d="M363.971 241.62C366.48 242.85 375.986 241.862 375.986 241.862C375.986 241.862 370.925 233.753 368.416 232.528C367.21 231.938 365.819 231.852 364.55 232.288C363.281 232.723 362.236 233.645 361.647 234.851C361.058 236.057 360.971 237.447 361.407 238.717C361.843 239.986 362.765 241.03 363.971 241.62Z" fill="#93C0DD"/>
<path opacity="0.5" d="M366.211 265.528C368.976 265.95 377.75 262.165 377.75 262.165C377.75 262.165 370.494 255.942 367.733 255.538C366.406 255.336 365.053 255.67 363.971 256.466C362.89 257.261 362.17 258.454 361.968 259.781C361.766 261.108 362.1 262.461 362.895 263.542C363.691 264.624 364.884 265.344 366.211 265.546V265.528Z" fill="#93C0DD"/>
<path opacity="0.5" d="M371.572 288.458C374.225 289.356 383.515 287.111 383.515 287.111C383.515 287.111 377.418 279.752 374.764 278.868C373.49 278.445 372.1 278.545 370.899 279.146C369.699 279.748 368.787 280.802 368.364 282.076C367.94 283.35 368.041 284.74 368.642 285.94C369.244 287.141 370.298 288.053 371.572 288.476V288.458Z" fill="#93C0DD"/>
<path opacity="0.5" d="M368.818 216.449C369.685 219.107 367.395 228.383 367.395 228.383C367.395 228.383 360.063 222.25 359.196 219.597C358.78 218.321 358.887 216.931 359.494 215.735C360.102 214.538 361.16 213.631 362.436 213.214C363.712 212.797 365.101 212.905 366.298 213.512C367.495 214.12 368.402 215.178 368.818 216.454V216.449Z" fill="white"/>
<path opacity="0.5" d="M381.583 228.568C380.87 231.262 373.901 237.812 373.901 237.812C373.901 237.812 371.082 228.68 371.796 225.977C372.139 224.679 372.984 223.571 374.145 222.896C375.306 222.221 376.687 222.035 377.985 222.378C379.283 222.722 380.391 223.567 381.066 224.728C381.741 225.888 381.927 227.27 381.583 228.568Z" fill="white"/>
<path opacity="0.5" d="M389.459 253.828C387.479 255.799 378.162 257.931 378.162 257.931C378.162 257.931 380.335 248.624 382.32 246.653C382.791 246.184 383.351 245.813 383.966 245.56C384.581 245.308 385.24 245.179 385.905 245.181C386.57 245.183 387.228 245.316 387.842 245.572C388.455 245.829 389.012 246.204 389.481 246.675C389.95 247.147 390.321 247.706 390.574 248.322C390.826 248.937 390.955 249.596 390.953 250.261C390.951 250.926 390.818 251.584 390.562 252.197C390.305 252.811 389.93 253.368 389.459 253.837V253.828Z" fill="white"/>
<path opacity="0.5" d="M391.117 274.288C389.496 276.564 380.655 280.233 380.655 280.233C380.655 280.233 381.225 270.692 382.846 268.415C383.231 267.873 383.719 267.413 384.282 267.059C384.846 266.706 385.473 266.467 386.128 266.356C386.783 266.245 387.454 266.265 388.102 266.413C388.75 266.561 389.363 266.836 389.904 267.221C390.446 267.606 390.907 268.094 391.26 268.657C391.614 269.22 391.853 269.847 391.963 270.503C392.074 271.158 392.055 271.829 391.907 272.477C391.758 273.125 391.484 273.737 391.099 274.279L391.117 274.288Z" fill="white"/>
<path opacity="0.5" d="M363.971 241.62C366.48 242.85 375.986 241.862 375.986 241.862C375.986 241.862 370.925 233.753 368.416 232.528C367.21 231.938 365.819 231.852 364.55 232.288C363.281 232.723 362.236 233.645 361.647 234.851C361.058 236.057 360.971 237.447 361.407 238.717C361.843 239.986 362.765 241.03 363.971 241.62Z" fill="white"/>
<path opacity="0.5" d="M366.211 265.528C368.976 265.95 377.75 262.165 377.75 262.165C377.75 262.165 370.494 255.942 367.733 255.538C366.406 255.336 365.053 255.67 363.971 256.466C362.89 257.261 362.17 258.454 361.968 259.781C361.766 261.108 362.1 262.461 362.895 263.542C363.691 264.624 364.884 265.344 366.211 265.546V265.528Z" fill="white"/>
<path opacity="0.5" d="M371.572 288.458C374.225 289.356 383.515 287.111 383.515 287.111C383.515 287.111 377.418 279.752 374.764 278.868C373.49 278.445 372.1 278.545 370.899 279.146C369.699 279.748 368.787 280.802 368.364 282.076C367.94 283.35 368.041 284.74 368.642 285.94C369.244 287.141 370.298 288.053 371.572 288.476V288.458Z" fill="white"/>
<path opacity="0.5" d="M364.177 350.711H402.489L412.07 292.284H354.6L364.177 350.711Z" fill="#474059"/>
<path opacity="0.1" d="M361.932 292.284L370.88 346.881H403.117L402.489 350.711H364.177L354.6 292.284H361.932Z" fill="black"/>
</g>
<path d="M371.441 17.6407H90.373V356.763H371.441V17.6407Z" fill="url(#paint0_linear)"/>
<path d="M367.849 21.9781H93.9648V352.435H367.849V21.9781Z" fill="white"/>
<path d="M310.827 59.2443H200.375V64.6322H310.827V59.2443Z" fill="#C0BCCF"/>
<path d="M310.827 76.3059H200.375V81.6938H310.827V76.3059Z" fill="#C0BCCF"/>
<path d="M284.337 93.3676H226.866V98.7554H284.337V93.3676Z" fill="#93C0DD"/>
<path opacity="0.5" d="M310.827 167.451H200.375V172.839H310.827V167.451Z" fill="#C0BCCF"/>
<path opacity="0.5" d="M310.827 184.513H200.375V189.9H310.827V184.513Z" fill="#C0BCCF"/>
<path opacity="0.5" d="M284.337 201.574H226.866V206.962H284.337V201.574Z" fill="#93C0DD"/>
<path opacity="0.5" d="M310.827 275.658H200.375V281.045H310.827V275.658Z" fill="#C0BCCF"/>
<path opacity="0.5" d="M310.827 292.719H200.375V298.107H310.827V292.719Z" fill="#C0BCCF"/>
<path opacity="0.5" d="M284.337 309.781H226.866V315.169H284.337V309.781Z" fill="#93C0DD"/>
<g opacity="0.5">
<path opacity="0.5" d="M161.489 197.502L159.172 196.46C159.207 196.108 159.222 195.754 159.217 195.401C159.233 195.101 159.233 194.802 159.217 194.503C158.988 192.141 157.484 190.085 156.419 187.925C155.445 185.953 154.827 183.826 154.592 181.639C154.309 178.945 154.592 176.152 153.604 173.62C152.801 171.577 151.211 169.871 149.51 168.362C147.599 166.57 145.368 165.155 142.932 164.191C140.444 163.293 137.584 163.064 135.097 163.98C132.852 164.806 131.123 166.454 129.453 168.057C128.24 169.126 127.169 170.345 126.265 171.685C125.246 173.355 124.811 175.277 124.469 177.172C123.933 180.205 123.564 183.266 123.365 186.34C123.19 188.904 122.916 191.813 120.725 193.385C119.656 194.152 118.152 194.583 117.663 195.746C117.524 196.095 117.469 196.472 117.501 196.846C117.488 197.158 117.51 197.47 117.568 197.776C117.6 197.955 117.636 198.13 117.681 198.31C117.052 199.873 116.524 201.475 116.1 203.105C115.772 204.318 115.472 205.507 115.202 206.661H115.93H116.316L120.5 206.76H120.559L125.049 206.863H125.071L129.256 206.962H129.359L130.567 207.047H130.962L147.696 207.433H147.785L148.899 207.46H149.29L152.639 207.537L157.578 207.649H157.614L161.331 207.739H161.727H162.49L162.292 203.842C163.109 197.874 161.489 197.502 161.489 197.502ZM142.689 197.026C142.689 200.33 139.151 204.376 139.151 204.376L135.591 199.527L135.721 199.338L139.151 204.008C139.151 204.008 142.689 199.967 142.689 196.658C142.772 196.489 142.866 196.327 142.972 196.173L143.053 196.424C142.917 196.616 142.796 196.817 142.689 197.026ZM148.131 209.993C148.131 209.827 148.131 209.656 148.1 209.49C148.068 209.324 148.073 209.176 148.05 209.014C148.028 208.852 148.01 208.695 147.987 208.534C147.965 208.372 147.934 208.215 147.902 208.053C147.871 207.891 147.839 207.734 147.803 207.573C147.803 207.519 147.781 207.469 147.767 207.411C147.718 207.2 147.664 206.989 147.606 206.778C147.547 206.567 147.511 206.437 147.458 206.271C147.458 206.194 147.413 206.118 147.386 206.046C147.359 205.974 147.309 205.804 147.269 205.682L147.188 205.449C147.152 205.346 147.116 205.238 147.076 205.135C147.009 204.946 146.937 204.762 146.865 204.573C146.793 204.385 146.717 204.201 146.64 204.017C146.488 203.64 146.322 203.267 146.156 202.89C145.505 201.435 144.773 200.003 144.099 198.584C143.738 197.841 143.417 197.08 143.138 196.303L143.053 196.415C142.917 196.608 142.795 196.811 142.689 197.021C142.689 200.326 139.151 204.371 139.151 204.371L135.591 199.522L132.475 204.012C132.026 204.237 131.577 205 131.227 206.087C131.128 206.378 131.034 206.702 130.944 207.038C130.881 207.267 130.823 207.487 130.769 207.743C130.737 207.865 130.71 207.986 130.683 208.111L130.603 208.493V208.551C130.549 208.812 130.495 209.081 130.445 209.355C130.396 209.629 130.338 209.943 130.288 210.253C130.252 210.448 130.221 210.641 130.194 210.832C130.131 211.205 130.077 211.582 130.023 211.959C129.992 212.179 129.96 212.408 129.934 212.61L129.826 213.445C130.055 214.132 130.311 214.792 130.576 215.484C130.744 215.847 130.843 216.238 130.867 216.638C136.391 218.11 142.204 218.11 147.727 216.638C147.725 216.624 147.725 216.611 147.727 216.597C147.644 216.222 147.608 215.837 147.619 215.452C147.71 214.373 147.86 213.3 148.068 212.238C148.135 211.714 148.163 211.185 148.154 210.657V210.469C148.14 210.298 148.136 210.145 148.131 209.997V209.993ZM148.131 209.993C148.131 209.827 148.131 209.656 148.1 209.49C148.068 209.324 148.073 209.176 148.05 209.014C148.028 208.852 148.01 208.695 147.987 208.534C147.965 208.372 147.934 208.215 147.902 208.053C147.871 207.891 147.839 207.734 147.803 207.573C147.803 207.519 147.781 207.469 147.767 207.411C147.718 207.2 147.664 206.989 147.606 206.778C147.547 206.567 147.511 206.437 147.458 206.271C147.458 206.194 147.413 206.118 147.386 206.046C147.359 205.974 147.309 205.804 147.269 205.682L147.188 205.449C147.152 205.346 147.116 205.238 147.076 205.135C147.009 204.946 146.937 204.762 146.865 204.573C146.793 204.385 146.717 204.201 146.64 204.017C146.488 203.64 146.322 203.267 146.156 202.89C145.505 201.435 144.773 200.003 144.099 198.584C143.738 197.841 143.417 197.08 143.138 196.303L143.053 196.415C142.917 196.608 142.795 196.811 142.689 197.021C142.689 200.326 139.151 204.371 139.151 204.371L135.591 199.522L132.475 204.012C132.026 204.237 131.577 205 131.227 206.087C131.128 206.378 131.034 206.702 130.944 207.038C130.881 207.267 130.823 207.487 130.769 207.743C130.737 207.865 130.71 207.986 130.683 208.111L130.603 208.493V208.551C130.549 208.812 130.495 209.081 130.445 209.355C130.396 209.629 130.338 209.943 130.288 210.253C130.252 210.448 130.221 210.641 130.194 210.832C130.131 211.205 130.077 211.582 130.023 211.959C129.992 212.179 129.96 212.408 129.934 212.61L129.826 213.445C130.055 214.132 130.311 214.792 130.576 215.484C130.744 215.847 130.843 216.238 130.867 216.638C136.391 218.11 142.204 218.11 147.727 216.638C147.725 216.624 147.725 216.611 147.727 216.597C147.644 216.222 147.608 215.837 147.619 215.452C147.71 214.373 147.86 213.3 148.068 212.238C148.135 211.714 148.163 211.185 148.154 210.657V210.469C148.14 210.298 148.136 210.145 148.131 209.997V209.993ZM148.131 209.993C148.131 209.827 148.131 209.656 148.1 209.49C148.068 209.324 148.073 209.176 148.05 209.014C148.028 208.852 148.01 208.695 147.987 208.534C147.965 208.372 147.934 208.215 147.902 208.053C147.871 207.891 147.839 207.734 147.803 207.573C147.803 207.519 147.781 207.469 147.767 207.411C147.718 207.2 147.664 206.989 147.606 206.778C147.547 206.567 147.511 206.437 147.458 206.271C147.458 206.194 147.413 206.118 147.386 206.046C147.359 205.974 147.309 205.804 147.269 205.682L147.188 205.449C147.152 205.346 147.116 205.238 147.076 205.135C147.009 204.946 146.937 204.762 146.865 204.573C146.793 204.385 146.717 204.201 146.64 204.017C146.488 203.64 146.322 203.267 146.156 202.89C145.505 201.435 144.773 200.003 144.099 198.584C143.738 197.841 143.417 197.08 143.138 196.303L143.053 196.415C142.917 196.608 142.795 196.811 142.689 197.021C142.689 200.326 139.151 204.371 139.151 204.371L135.591 199.522L132.475 204.012C132.026 204.237 131.577 205 131.227 206.087C131.128 206.378 131.034 206.702 130.944 207.038C130.881 207.267 130.823 207.487 130.769 207.743C130.737 207.865 130.71 207.986 130.683 208.111L130.603 208.493V208.551C130.549 208.812 130.495 209.081 130.445 209.355C130.396 209.629 130.338 209.943 130.288 210.253C130.252 210.448 130.221 210.641 130.194 210.832C130.131 211.205 130.077 211.582 130.023 211.959C129.992 212.179 129.96 212.408 129.934 212.61L129.826 213.445C130.055 214.132 130.311 214.792 130.576 215.484C130.744 215.847 130.843 216.238 130.867 216.638C136.391 218.11 142.204 218.11 147.727 216.638C147.725 216.624 147.725 216.611 147.727 216.597C147.644 216.222 147.608 215.837 147.619 215.452C147.71 214.373 147.86 213.3 148.068 212.238C148.135 211.714 148.163 211.185 148.154 210.657V210.469C148.14 210.298 148.136 210.145 148.131 209.997V209.993ZM148.131 209.993C148.131 209.827 148.131 209.656 148.1 209.49C148.068 209.324 148.073 209.176 148.05 209.014C148.028 208.852 148.01 208.695 147.987 208.534C147.965 208.372 147.934 208.215 147.902 208.053C147.871 207.891 147.839 207.734 147.803 207.573C147.803 207.519 147.781 207.469 147.767 207.411C147.718 207.2 147.664 206.989 147.606 206.778C147.547 206.567 147.511 206.437 147.458 206.271C147.458 206.194 147.413 206.118 147.386 206.046C147.359 205.974 147.309 205.804 147.269 205.682L147.188 205.449C147.152 205.346 147.116 205.238 147.076 205.135C147.009 204.946 146.937 204.762 146.865 204.573C146.793 204.385 146.717 204.201 146.64 204.017C146.488 203.64 146.322 203.267 146.156 202.89C145.505 201.435 144.773 200.003 144.099 198.584C143.738 197.841 143.417 197.08 143.138 196.303L143.053 196.415C142.917 196.608 142.795 196.811 142.689 197.021C142.689 200.326 139.151 204.371 139.151 204.371L135.591 199.522L132.475 204.012C132.026 204.237 131.577 205 131.227 206.087C131.128 206.378 131.034 206.702 130.944 207.038C130.881 207.267 130.823 207.487 130.769 207.743C130.737 207.865 130.71 207.986 130.683 208.111L130.603 208.493V208.551C130.549 208.812 130.495 209.081 130.445 209.355C130.396 209.629 130.338 209.943 130.288 210.253C130.252 210.448 130.221 210.641 130.194 210.832C130.131 211.205 130.077 211.582 130.023 211.959C129.992 212.179 129.96 212.408 129.934 212.61L129.826 213.445C130.055 214.132 130.311 214.792 130.576 215.484C130.744 215.847 130.843 216.238 130.867 216.638C136.391 218.11 142.204 218.11 147.727 216.638C147.725 216.624 147.725 216.611 147.727 216.597C147.644 216.222 147.608 215.837 147.619 215.452C147.71 214.373 147.86 213.3 148.068 212.238C148.135 211.714 148.163 211.185 148.154 210.657V210.469C148.14 210.298 148.136 210.145 148.131 209.997V209.993Z" fill="url(#paint1_linear)"/>
<path opacity="0.5" d="M148.292 178.676H127.639V192.594H148.292V178.676Z" fill="#493545"/>
<path opacity="0.5" d="M151.723 194.027L143.08 206.203L134.047 205.418C134.047 205.418 122.261 206.199 130.118 197.17C133.894 192.828 135.129 189.209 135.394 186.627C135.681 183.835 134.832 182.245 134.832 182.245L144.652 181.069C144.209 182.392 144.153 183.814 144.49 185.168C145.72 190.269 151.723 194.027 151.723 194.027Z" fill="#C77485"/>
<path opacity="0.1" d="M144.485 185.155C143.204 186.124 141.705 186.765 140.119 187.02C138.533 187.275 136.909 187.137 135.388 186.618C135.676 183.826 134.827 182.236 134.827 182.236L144.647 181.06C144.204 182.382 144.148 183.802 144.485 185.155Z" fill="black"/>
<path opacity="0.5" d="M138.563 186.753C143.986 186.753 148.382 182.357 148.382 176.934C148.382 171.511 143.986 167.114 138.563 167.114C133.139 167.114 128.743 171.511 128.743 176.934C128.743 182.357 133.139 186.753 138.563 186.753Z" fill="#C77485"/>
<path opacity="0.1" d="M151.363 194.53L151.134 193.632L150.937 192.841L150.645 191.674L150.591 191.458L150.546 191.279C150.546 191.279 150.78 190.574 149.24 190.803L148.952 190.852C148.71 190.902 148.427 190.969 148.104 191.059L147.812 191.149L147.426 191.27C146.203 191.668 145.088 192.341 144.166 193.236C143.752 193.632 143.386 194.075 143.075 194.557C143.044 194.601 143.021 194.642 142.994 194.678C142.888 194.845 142.793 195.019 142.711 195.199C142.711 198.737 139.173 203.056 139.173 203.056L135.721 198.068L135.653 197.969L134.832 196.775L134.54 196.388L134.441 196.254L132.645 193.843L132.196 193.241L132.048 193.039L131.828 192.747L131.312 192.06L129.291 193.241L126.597 194.812L125.026 205.027V205.31L125.075 206.154L125.403 211.703V211.78L124.828 214.079L124.913 214.124C126.27 214.855 127.681 215.479 129.134 215.991L129.516 216.126C129.965 216.274 130.387 216.409 130.827 216.539C130.843 216.606 130.855 216.673 130.863 216.741C130.863 216.678 130.863 216.611 130.863 216.548C136.372 218.123 142.213 218.123 147.722 216.548L147.825 216.517C148.081 216.445 148.342 216.368 148.593 216.283L149.002 216.153C150.11 215.782 151.195 215.348 152.252 214.851L152.63 206.814L152.899 201.017V200.685L151.363 194.53Z" fill="black"/>
<path opacity="0.5" d="M148.131 209.458C148.131 209.279 148.131 209.099 148.099 208.92C148.068 208.74 148.072 208.583 148.05 208.412C148.027 208.242 148.009 208.071 147.987 207.9C147.964 207.73 147.933 207.559 147.902 207.389C147.87 207.218 147.839 207.047 147.803 206.877C147.803 206.818 147.78 206.765 147.767 206.706C147.717 206.482 147.664 206.257 147.605 206.028C147.547 205.799 147.511 205.665 147.457 205.485C147.457 205.404 147.412 205.323 147.385 205.247C147.358 205.171 147.309 204.987 147.269 204.856L147.188 204.605C147.152 204.493 147.116 204.38 147.075 204.268C147.008 204.066 146.936 203.869 146.864 203.667C146.793 203.464 146.716 203.267 146.64 203.069C146.487 202.665 146.321 202.266 146.155 201.866C145.504 200.313 144.772 198.782 144.099 197.264C143.737 196.468 143.416 195.655 143.138 194.826L143.052 194.947C142.916 195.154 142.794 195.37 142.689 195.594C142.689 199.127 139.151 203.451 139.151 203.451L135.59 198.265L132.474 203.056C132.025 203.294 131.576 204.111 131.226 205.274C131.127 205.588 131.033 205.929 130.943 206.293C130.88 206.536 130.822 206.791 130.768 207.047C130.737 207.178 130.71 207.308 130.683 207.443L130.602 207.851V207.914C130.548 208.192 130.494 208.48 130.445 208.772C130.395 209.063 130.337 209.4 130.288 209.719C130.252 209.925 130.22 210.132 130.193 210.339C130.131 210.738 130.077 211.142 130.023 211.542C129.991 211.775 129.96 211.991 129.933 212.238L129.825 213.136C130.054 213.872 130.31 214.599 130.575 215.313C130.744 215.705 130.843 216.122 130.867 216.548C136.376 218.123 142.217 218.123 147.726 216.548C147.725 216.533 147.725 216.518 147.726 216.503C147.644 216.1 147.607 215.689 147.619 215.277C147.709 214.126 147.859 212.979 148.068 211.843C148.134 211.282 148.162 210.718 148.153 210.154V209.952C148.14 209.782 148.135 209.62 148.131 209.458ZM148.131 209.458C148.131 209.279 148.131 209.099 148.099 208.92C148.068 208.74 148.072 208.583 148.05 208.412C148.027 208.242 148.009 208.071 147.987 207.9C147.964 207.73 147.933 207.559 147.902 207.389C147.87 207.218 147.839 207.047 147.803 206.877C147.803 206.818 147.78 206.765 147.767 206.706C147.717 206.482 147.664 206.257 147.605 206.028C147.547 205.799 147.511 205.665 147.457 205.485C147.457 205.404 147.412 205.323 147.385 205.247C147.358 205.171 147.309 204.987 147.269 204.856L147.188 204.605C147.152 204.493 147.116 204.38 147.075 204.268C147.008 204.066 146.936 203.869 146.864 203.667C146.793 203.464 146.716 203.267 146.64 203.069C146.487 202.665 146.321 202.266 146.155 201.866C145.504 200.313 144.772 198.782 144.099 197.264C143.737 196.468 143.416 195.655 143.138 194.826L143.052 194.947C142.916 195.154 142.794 195.37 142.689 195.594C142.689 199.127 139.151 203.451 139.151 203.451L135.59 198.265L132.474 203.056C132.025 203.294 131.576 204.111 131.226 205.274C131.127 205.588 131.033 205.929 130.943 206.293C130.88 206.536 130.822 206.791 130.768 207.047C130.737 207.178 130.71 207.308 130.683 207.443L130.602 207.851V207.914C130.548 208.192 130.494 208.48 130.445 208.772C130.395 209.063 130.337 209.4 130.288 209.719C130.252 209.925 130.22 210.132 130.193 210.339C130.131 210.738 130.077 211.142 130.023 211.542C129.991 211.775 129.96 211.991 129.933 212.238L129.825 213.136C130.054 213.872 130.31 214.599 130.575 215.313C130.744 215.705 130.843 216.122 130.867 216.548C136.376 218.123 142.217 218.123 147.726 216.548C147.725 216.533 147.725 216.518 147.726 216.503C147.644 216.1 147.607 215.689 147.619 215.277C147.709 214.126 147.859 212.979 148.068 211.843C148.134 211.282 148.162 210.718 148.153 210.154V209.952C148.14 209.782 148.135 209.62 148.131 209.458ZM148.131 209.458C148.131 209.279 148.131 209.099 148.099 208.92C148.068 208.74 148.072 208.583 148.05 208.412C148.027 208.242 148.009 208.071 147.987 207.9C147.964 207.73 147.933 207.559 147.902 207.389C147.87 207.218 147.839 207.047 147.803 206.877C147.803 206.818 147.78 206.765 147.767 206.706C147.717 206.482 147.664 206.257 147.605 206.028C147.547 205.799 147.511 205.665 147.457 205.485C147.457 205.404 147.412 205.323 147.385 205.247C147.358 205.171 147.309 204.987 147.269 204.856L147.188 204.605C147.152 204.493 147.116 204.38 147.075 204.268C147.008 204.066 146.936 203.869 146.864 203.667C146.793 203.464 146.716 203.267 146.64 203.069C146.487 202.665 146.321 202.266 146.155 201.866C145.504 200.313 144.772 198.782 144.099 197.264C143.737 196.468 143.416 195.655 143.138 194.826L143.052 194.947C142.916 195.154 142.794 195.37 142.689 195.594C142.689 199.127 139.151 203.451 139.151 203.451L135.59 198.265L132.474 203.056C132.025 203.294 131.576 204.111 131.226 205.274C131.127 205.588 131.033 205.929 130.943 206.293C130.88 206.536 130.822 206.791 130.768 207.047C130.737 207.178 130.71 207.308 130.683 207.443L130.602 207.851V207.914C130.548 208.192 130.494 208.48 130.445 208.772C130.395 209.063 130.337 209.4 130.288 209.719C130.252 209.925 130.22 210.132 130.193 210.339C130.131 210.738 130.077 211.142 130.023 211.542C129.991 211.775 129.96 211.991 129.933 212.238L129.825 213.136C130.054 213.872 130.31 214.599 130.575 215.313C130.744 215.705 130.843 216.122 130.867 216.548C136.376 218.123 142.217 218.123 147.726 216.548C147.725 216.533 147.725 216.518 147.726 216.503C147.644 216.1 147.607 215.689 147.619 215.277C147.709 214.126 147.859 212.979 148.068 211.843C148.134 211.282 148.162 210.718 148.153 210.154V209.952C148.14 209.782 148.135 209.62 148.131 209.458ZM152.89 201.031L151.287 194.633L151.013 193.537L150.937 193.236L150.546 191.674C150.547 191.661 150.547 191.647 150.546 191.634C150.555 191.565 150.545 191.494 150.515 191.432C150.456 191.315 150.308 191.194 149.962 191.162C149.831 191.153 149.699 191.153 149.567 191.162C149.177 191.201 148.791 191.273 148.413 191.378C148.229 191.427 148.032 191.481 147.821 191.548L147.435 191.67H147.399C146.365 192.009 145.405 192.542 144.57 193.241C144.019 193.701 143.535 194.236 143.133 194.83L143.048 194.952C142.911 195.158 142.79 195.374 142.684 195.598C142.684 199.132 139.146 203.455 139.146 203.455L135.586 198.27L135.384 197.978L135.348 197.928L134.831 197.17L134.441 196.649L134.338 196.514L132.497 194.058L131.913 193.263V193.236L131.711 192.963L131.325 192.451L129.978 193.236L126.61 195.199L125.057 205.305V205.413L125.102 206.149L125.434 211.775V212.094L124.927 214.119C126.283 214.85 127.694 215.475 129.147 215.987L129.529 216.122C129.978 216.27 130.4 216.404 130.84 216.535C130.856 216.601 130.868 216.669 130.876 216.737C130.876 216.674 130.876 216.606 130.876 216.544C136.385 218.118 142.226 218.118 147.735 216.544L147.839 216.512C148.095 216.44 148.355 216.364 148.606 216.279L149.015 216.148C150.123 215.778 151.208 215.343 152.266 214.846L152.638 206.818L152.908 201.085L152.89 201.031ZM130.809 216.535C130.825 216.601 130.837 216.669 130.844 216.737C130.844 216.674 130.844 216.606 130.844 216.544L130.809 216.535ZM148.131 209.458C148.131 209.279 148.131 209.099 148.099 208.92C148.068 208.74 148.072 208.583 148.05 208.412C148.027 208.242 148.009 208.071 147.987 207.9C147.964 207.73 147.933 207.559 147.902 207.389C147.87 207.218 147.839 207.047 147.803 206.877C147.803 206.818 147.78 206.765 147.767 206.706C147.717 206.482 147.664 206.257 147.605 206.028C147.547 205.799 147.511 205.665 147.457 205.485C147.457 205.404 147.412 205.323 147.385 205.247C147.358 205.171 147.309 204.987 147.269 204.856L147.188 204.605C147.152 204.493 147.116 204.38 147.075 204.268C147.008 204.066 146.936 203.869 146.864 203.667C146.793 203.464 146.716 203.267 146.64 203.069C146.487 202.665 146.321 202.266 146.155 201.866C145.504 200.313 144.772 198.782 144.099 197.264C143.737 196.468 143.416 195.655 143.138 194.826L143.052 194.947C142.916 195.154 142.794 195.37 142.689 195.594C142.689 199.127 139.151 203.451 139.151 203.451L135.59 198.265L132.474 203.056C132.025 203.294 131.576 204.111 131.226 205.274C131.127 205.588 131.033 205.929 130.943 206.293C130.88 206.536 130.822 206.791 130.768 207.047C130.737 207.178 130.71 207.308 130.683 207.443L130.602 207.851V207.914C130.548 208.192 130.494 208.48 130.445 208.772C130.395 209.063 130.337 209.4 130.288 209.719C130.252 209.925 130.22 210.132 130.193 210.339C130.131 210.738 130.077 211.142 130.023 211.542C129.991 211.775 129.96 211.991 129.933 212.238L129.825 213.136C130.054 213.872 130.31 214.599 130.575 215.313C130.744 215.705 130.843 216.122 130.867 216.548C136.376 218.123 142.217 218.123 147.726 216.548C147.725 216.533 147.725 216.518 147.726 216.503C147.644 216.1 147.607 215.689 147.619 215.277C147.709 214.126 147.859 212.979 148.068 211.843C148.134 211.282 148.162 210.718 148.153 210.154V209.952C148.14 209.782 148.135 209.62 148.131 209.458ZM148.131 209.458C148.131 209.279 148.131 209.099 148.099 208.92C148.068 208.74 148.072 208.583 148.05 208.412C148.027 208.242 148.009 208.071 147.987 207.9C147.964 207.73 147.933 207.559 147.902 207.389C147.87 207.218 147.839 207.047 147.803 206.877C147.803 206.818 147.78 206.765 147.767 206.706C147.717 206.482 147.664 206.257 147.605 206.028C147.547 205.799 147.511 205.665 147.457 205.485C147.457 205.404 147.412 205.323 147.385 205.247C147.358 205.171 147.309 204.987 147.269 204.856L147.188 204.605C147.152 204.493 147.116 204.38 147.075 204.268C147.008 204.066 146.936 203.869 146.864 203.667C146.793 203.464 146.716 203.267 146.64 203.069C146.487 202.665 146.321 202.266 146.155 201.866C145.504 200.313 144.772 198.782 144.099 197.264C143.737 196.468 143.416 195.655 143.138 194.826L143.052 194.947C142.916 195.154 142.794 195.37 142.689 195.594C142.689 199.127 139.151 203.451 139.151 203.451L135.59 198.265L132.474 203.056C132.025 203.294 131.576 204.111 131.226 205.274C131.127 205.588 131.033 205.929 130.943 206.293C130.88 206.536 130.822 206.791 130.768 207.047C130.737 207.178 130.71 207.308 130.683 207.443L130.602 207.851V207.914C130.548 208.192 130.494 208.48 130.445 208.772C130.395 209.063 130.337 209.4 130.288 209.719C130.252 209.925 130.22 210.132 130.193 210.339C130.131 210.738 130.077 211.142 130.023 211.542C129.991 211.775 129.96 211.991 129.933 212.238L129.825 213.136C130.054 213.872 130.31 214.599 130.575 215.313C130.744 215.705 130.843 216.122 130.867 216.548C136.376 218.123 142.217 218.123 147.726 216.548C147.725 216.533 147.725 216.518 147.726 216.503C147.644 216.1 147.607 215.689 147.619 215.277C147.709 214.126 147.859 212.979 148.068 211.843C148.134 211.282 148.162 210.718 148.153 210.154V209.952C148.14 209.782 148.135 209.62 148.131 209.458ZM148.131 209.458C148.131 209.279 148.131 209.099 148.099 208.92C148.068 208.74 148.072 208.583 148.05 208.412C148.027 208.242 148.009 208.071 147.987 207.9C147.964 207.73 147.933 207.559 147.902 207.389C147.87 207.218 147.839 207.047 147.803 206.877C147.803 206.818 147.78 206.765 147.767 206.706C147.717 206.482 147.664 206.257 147.605 206.028C147.547 205.799 147.511 205.665 147.457 205.485C147.457 205.404 147.412 205.323 147.385 205.247C147.358 205.171 147.309 204.987 147.269 204.856L147.188 204.605C147.152 204.493 147.116 204.38 147.075 204.268C147.008 204.066 146.936 203.869 146.864 203.667C146.793 203.464 146.716 203.267 146.64 203.069C146.487 202.665 146.321 202.266 146.155 201.866C145.504 200.313 144.772 198.782 144.099 197.264C143.737 196.468 143.416 195.655 143.138 194.826L143.052 194.947C142.916 195.154 142.794 195.37 142.689 195.594C142.689 199.127 139.151 203.451 139.151 203.451L135.59 198.265L132.474 203.056C132.025 203.294 131.576 204.111 131.226 205.274C131.127 205.588 131.033 205.929 130.943 206.293C130.88 206.536 130.822 206.791 130.768 207.047C130.737 207.178 130.71 207.308 130.683 207.443L130.602 207.851V207.914C130.548 208.192 130.494 208.48 130.445 208.772C130.395 209.063 130.337 209.4 130.288 209.719C130.252 209.925 130.22 210.132 130.193 210.339C130.131 210.738 130.077 211.142 130.023 211.542C129.991 211.775 129.96 211.991 129.933 212.238L129.825 213.136C130.054 213.872 130.31 214.599 130.575 215.313C130.744 215.705 130.843 216.122 130.867 216.548C136.376 218.123 142.217 218.123 147.726 216.548C147.725 216.533 147.725 216.518 147.726 216.503C147.644 216.1 147.607 215.689 147.619 215.277C147.709 214.126 147.859 212.979 148.068 211.843C148.134 211.282 148.162 210.718 148.153 210.154V209.952C148.14 209.782 148.135 209.62 148.131 209.458ZM148.131 209.458C148.131 209.279 148.131 209.099 148.099 208.92C148.068 208.74 148.072 208.583 148.05 208.412C148.027 208.242 148.009 208.071 147.987 207.9C147.964 207.73 147.933 207.559 147.902 207.389C147.87 207.218 147.839 207.047 147.803 206.877C147.803 206.818 147.78 206.765 147.767 206.706C147.717 206.482 147.664 206.257 147.605 206.028C147.547 205.799 147.511 205.665 147.457 205.485C147.457 205.404 147.412 205.323 147.385 205.247C147.358 205.171 147.309 204.987 147.269 204.856L147.188 204.605C147.152 204.493 147.116 204.38 147.075 204.268C147.008 204.066 146.936 203.869 146.864 203.667C146.793 203.464 146.716 203.267 146.64 203.069C146.487 202.665 146.321 202.266 146.155 201.866C145.504 200.313 144.772 198.782 144.099 197.264C143.737 196.468 143.416 195.655 143.138 194.826L143.052 194.947C142.916 195.154 142.794 195.37 142.689 195.594C142.689 199.127 139.151 203.451 139.151 203.451L135.59 198.265L132.474 203.056C132.025 203.294 131.576 204.111 131.226 205.274C131.127 205.588 131.033 205.929 130.943 206.293C130.88 206.536 130.822 206.791 130.768 207.047C130.737 207.178 130.71 207.308 130.683 207.443L130.602 207.851V207.914C130.548 208.192 130.494 208.48 130.445 208.772C130.395 209.063 130.337 209.4 130.288 209.719C130.252 209.925 130.22 210.132 130.193 210.339C130.131 210.738 130.077 211.142 130.023 211.542C129.991 211.775 129.96 211.991 129.933 212.238L129.825 213.136C130.054 213.872 130.31 214.599 130.575 215.313C130.744 215.705 130.843 216.122 130.867 216.548C136.376 218.123 142.217 218.123 147.726 216.548C147.725 216.533 147.725 216.518 147.726 216.503C147.644 216.1 147.607 215.689 147.619 215.277C147.709 214.126 147.859 212.979 148.068 211.843C148.134 211.282 148.162 210.718 148.153 210.154V209.952C148.14 209.782 148.135 209.62 148.131 209.458ZM148.131 209.458C148.131 209.279 148.131 209.099 148.099 208.92C148.068 208.74 148.072 208.583 148.05 208.412C148.027 208.242 148.009 208.071 147.987 207.9C147.964 207.73 147.933 207.559 147.902 207.389C147.87 207.218 147.839 207.047 147.803 206.877C147.803 206.818 147.78 206.765 147.767 206.706C147.717 206.482 147.664 206.257 147.605 206.028C147.547 205.799 147.511 205.665 147.457 205.485C147.457 205.404 147.412 205.323 147.385 205.247C147.358 205.171 147.309 204.987 147.269 204.856L147.188 204.605C147.152 204.493 147.116 204.38 147.075 204.268C147.008 204.066 146.936 203.869 146.864 203.667C146.793 203.464 146.716 203.267 146.64 203.069C146.487 202.665 146.321 202.266 146.155 201.866C145.504 200.313 144.772 198.782 144.099 197.264C143.737 196.468 143.416 195.655 143.138 194.826L143.052 194.947C142.916 195.154 142.794 195.37 142.689 195.594C142.689 199.127 139.151 203.451 139.151 203.451L135.59 198.265L132.474 203.056C132.025 203.294 131.576 204.111 131.226 205.274C131.127 205.588 131.033 205.929 130.943 206.293C130.88 206.536 130.822 206.791 130.768 207.047C130.737 207.178 130.71 207.308 130.683 207.443L130.602 207.851V207.914C130.548 208.192 130.494 208.48 130.445 208.772C130.395 209.063 130.337 209.4 130.288 209.719C130.252 209.925 130.22 210.132 130.193 210.339C130.131 210.738 130.077 211.142 130.023 211.542C129.991 211.775 129.96 211.991 129.933 212.238L129.825 213.136C130.054 213.872 130.31 214.599 130.575 215.313C130.744 215.705 130.843 216.122 130.867 216.548C136.376 218.123 142.217 218.123 147.726 216.548C147.725 216.533 147.725 216.518 147.726 216.503C147.644 216.1 147.607 215.689 147.619 215.277C147.709 214.126 147.859 212.979 148.068 211.843C148.134 211.282 148.162 210.718 148.153 210.154V209.952C148.14 209.782 148.135 209.62 148.131 209.458ZM148.131 209.458C148.131 209.279 148.131 209.099 148.099 208.92C148.068 208.74 148.072 208.583 148.05 208.412C148.027 208.242 148.009 208.071 147.987 207.9C147.964 207.73 147.933 207.559 147.902 207.389C147.87 207.218 147.839 207.047 147.803 206.877C147.803 206.818 147.78 206.765 147.767 206.706C147.717 206.482 147.664 206.257 147.605 206.028C147.547 205.799 147.511 205.665 147.457 205.485C147.457 205.404 147.412 205.323 147.385 205.247C147.358 205.171 147.309 204.987 147.269 204.856L147.188 204.605C147.152 204.493 147.116 204.38 147.075 204.268C147.008 204.066 146.936 203.869 146.864 203.667C146.793 203.464 146.716 203.267 146.64 203.069C146.487 202.665 146.321 202.266 146.155 201.866C145.504 200.313 144.772 198.782 144.099 197.264C143.737 196.468 143.416 195.655 143.138 194.826L143.052 194.947C142.916 195.154 142.794 195.37 142.689 195.594C142.689 199.127 139.151 203.451 139.151 203.451L135.59 198.265L132.474 203.056C132.025 203.294 131.576 204.111 131.226 205.274C131.127 205.588 131.033 205.929 130.943 206.293C130.88 206.536 130.822 206.791 130.768 207.047C130.737 207.178 130.71 207.308 130.683 207.443L130.602 207.851V207.914C130.548 208.192 130.494 208.48 130.445 208.772C130.395 209.063 130.337 209.4 130.288 209.719C130.252 209.925 130.22 210.132 130.193 210.339C130.131 210.738 130.077 211.142 130.023 211.542C129.991 211.775 129.96 211.991 129.933 212.238L129.825 213.136C130.054 213.872 130.31 214.599 130.575 215.313C130.744 215.705 130.843 216.122 130.867 216.548C136.376 218.123 142.217 218.123 147.726 216.548C147.725 216.533 147.725 216.518 147.726 216.503C147.644 216.1 147.607 215.689 147.619 215.277C147.709 214.126 147.859 212.979 148.068 211.843C148.134 211.282 148.162 210.718 148.153 210.154V209.952C148.14 209.782 148.135 209.62 148.131 209.458ZM148.131 209.458C148.131 209.279 148.131 209.099 148.099 208.92C148.068 208.74 148.072 208.583 148.05 208.412C148.027 208.242 148.009 208.071 147.987 207.9C147.964 207.73 147.933 207.559 147.902 207.389C147.87 207.218 147.839 207.047 147.803 206.877C147.803 206.818 147.78 206.765 147.767 206.706C147.717 206.482 147.664 206.257 147.605 206.028C147.547 205.799 147.511 205.665 147.457 205.485C147.457 205.404 147.412 205.323 147.385 205.247C147.358 205.171 147.309 204.987 147.269 204.856L147.188 204.605C147.152 204.493 147.116 204.38 147.075 204.268C147.008 204.066 146.936 203.869 146.864 203.667C146.793 203.464 146.716 203.267 146.64 203.069C146.487 202.665 146.321 202.266 146.155 201.866C145.504 200.313 144.772 198.782 144.099 197.264C143.737 196.468 143.416 195.655 143.138 194.826L143.052 194.947C142.916 195.154 142.794 195.37 142.689 195.594C142.689 199.127 139.151 203.451 139.151 203.451L135.59 198.265L132.474 203.056C132.025 203.294 131.576 204.111 131.226 205.274C131.127 205.588 131.033 205.929 130.943 206.293C130.88 206.536 130.822 206.791 130.768 207.047C130.737 207.178 130.71 207.308 130.683 207.443L130.602 207.851V207.914C130.548 208.192 130.494 208.48 130.445 208.772C130.395 209.063 130.337 209.4 130.288 209.719C130.252 209.925 130.22 210.132 130.193 210.339C130.131 210.738 130.077 211.142 130.023 211.542C129.991 211.775 129.96 211.991 129.933 212.238L129.825 213.136C130.054 213.872 130.31 214.599 130.575 215.313C130.744 215.705 130.843 216.122 130.867 216.548C136.376 218.123 142.217 218.123 147.726 216.548C147.725 216.533 147.725 216.518 147.726 216.503C147.644 216.1 147.607 215.689 147.619 215.277C147.709 214.126 147.859 212.979 148.068 211.843C148.134 211.282 148.162 210.718 148.153 210.154V209.952C148.14 209.782 148.135 209.62 148.131 209.458ZM148.131 209.458C148.131 209.279 148.131 209.099 148.099 208.92C148.068 208.74 148.072 208.583 148.05 208.412C148.027 208.242 148.009 208.071 147.987 207.9C147.964 207.73 147.933 207.559 147.902 207.389C147.87 207.218 147.839 207.047 147.803 206.877C147.803 206.818 147.78 206.765 147.767 206.706C147.717 206.482 147.664 206.257 147.605 206.028C147.547 205.799 147.511 205.665 147.457 205.485C147.457 205.404 147.412 205.323 147.385 205.247C147.358 205.171 147.309 204.987 147.269 204.856L147.188 204.605C147.152 204.493 147.116 204.38 147.075 204.268C147.008 204.066 146.936 203.869 146.864 203.667C146.793 203.464 146.716 203.267 146.64 203.069C146.487 202.665 146.321 202.266 146.155 201.866C145.504 200.313 144.772 198.782 144.099 197.264C143.737 196.468 143.416 195.655 143.138 194.826L143.052 194.947C142.916 195.154 142.794 195.37 142.689 195.594C142.689 199.127 139.151 203.451 139.151 203.451L135.59 198.265L132.474 203.056C132.025 203.294 131.576 204.111 131.226 205.274C131.127 205.588 131.033 205.929 130.943 206.293C130.88 206.536 130.822 206.791 130.768 207.047C130.737 207.178 130.71 207.308 130.683 207.443L130.602 207.851V207.914C130.548 208.192 130.494 208.48 130.445 208.772C130.395 209.063 130.337 209.4 130.288 209.719C130.252 209.925 130.22 210.132 130.193 210.339C130.131 210.738 130.077 211.142 130.023 211.542C129.991 211.775 129.96 211.991 129.933 212.238L129.825 213.136C130.054 213.872 130.31 214.599 130.575 215.313C130.744 215.705 130.843 216.122 130.867 216.548C136.376 218.123 142.217 218.123 147.726 216.548C147.725 216.533 147.725 216.518 147.726 216.503C147.644 216.1 147.607 215.689 147.619 215.277C147.709 214.126 147.859 212.979 148.068 211.843C148.134 211.282 148.162 210.718 148.153 210.154V209.952C148.14 209.782 148.135 209.62 148.131 209.458Z" fill="white"/>
<path opacity="0.1" d="M135.654 197.964L135.353 197.924C134.899 197.862 134.449 197.772 134.006 197.655L133.84 197.61C132.744 197.3 131.545 196.743 131.276 195.764C131.196 195.449 131.205 195.118 131.303 194.808C131.454 194.274 131.658 193.756 131.914 193.263V193.236C131.947 193.167 131.985 193.1 132.026 193.034C132.396 192.31 132.957 191.7 133.647 191.27L133.108 191.355L128.546 192.096L121.475 193.236C121.475 193.236 120.217 192.985 118.507 197.699C118.507 197.758 118.466 197.812 118.448 197.875C118.035 199.028 117.6 200.47 117.151 202.27C116.841 203.518 116.558 204.744 116.298 205.934C116.221 206.293 116.145 206.648 116.073 206.998C116.883 207.952 117.754 208.852 118.682 209.692L118.83 209.831C120.647 211.477 122.655 212.898 124.811 214.065L124.896 214.11C126.252 214.842 127.663 215.466 129.116 215.978L129.498 216.113C129.579 215.282 129.669 214.361 129.776 213.419C129.776 213.324 129.776 213.23 129.812 213.136L129.92 212.238C129.947 212.009 129.978 211.789 130.01 211.542C130.064 211.142 130.118 210.738 130.181 210.339C130.207 210.132 130.239 209.925 130.275 209.719C130.324 209.4 130.378 209.081 130.432 208.772C130.486 208.462 130.535 208.192 130.589 207.914V207.851L130.67 207.443C130.697 207.308 130.724 207.178 130.755 207.047C130.809 206.791 130.867 206.536 130.93 206.293C131.02 205.929 131.114 205.588 131.213 205.274C131.572 204.111 131.99 203.294 132.461 203.056L135.577 198.265L135.708 198.063L135.766 197.973L135.654 197.964Z" fill="black"/>
<path opacity="0.1" d="M129.983 166.162C129.534 166.782 129.57 167.635 129.368 168.407C128.888 170.163 126.984 171.263 126.548 173.032C126.292 174.065 126.589 175.16 126.414 176.211C126.095 178.146 124.326 179.457 123.338 181.15C122.837 182.022 122.54 182.996 122.47 183.999C122.399 185.002 122.556 186.008 122.929 186.942C123.161 187.413 123.351 187.902 123.5 188.405C123.613 189.155 123.566 189.92 123.36 190.65C123.024 192.249 122.678 194.009 123.45 195.45C124.101 196.667 125.453 197.381 126.813 197.605C128.187 197.76 129.577 197.697 130.93 197.417C132.417 197.188 133.939 196.923 135.232 196.159L130.369 184.423C129.88 183.237 129.377 182.012 129.381 180.728C129.421 179.78 129.626 178.847 129.988 177.971C130.929 175.431 132.295 173.07 134.028 170.989C134.733 171.806 134.68 173.05 135.268 173.957C135.787 174.627 136.48 175.144 137.27 175.452C139.574 176.576 141.941 177.565 144.36 178.415C144.511 178.434 144.656 178.49 144.781 178.579C144.906 178.667 145.007 178.785 145.075 178.922C145.144 179.059 145.177 179.21 145.173 179.363C145.169 179.516 145.127 179.665 145.051 179.798L143.219 187.359C142.815 189.025 142.461 190.951 143.498 192.298C144.535 193.645 146.874 194.283 146.888 196.02C146.868 196.295 146.868 196.571 146.888 196.846C147.009 197.659 147.974 198.05 148.796 198.09C150.145 198.117 151.459 197.663 152.504 196.81C153.55 195.957 154.258 194.761 154.502 193.434C154.951 190.462 152.985 187.723 152.163 184.827C150.78 179.955 152.612 174.24 149.896 169.961C147.696 166.49 143.686 165.547 139.879 165.116C137.207 164.802 131.864 163.679 129.983 166.162Z" fill="black"/>
<path opacity="0.5" d="M129.983 165.713C129.534 166.333 129.57 167.186 129.368 167.958C128.888 169.714 126.984 170.814 126.548 172.583C126.292 173.616 126.589 174.711 126.414 175.762C126.095 177.697 124.326 179.008 123.338 180.701C122.837 181.573 122.54 182.547 122.47 183.55C122.399 184.553 122.556 185.559 122.929 186.493C123.161 186.964 123.351 187.453 123.5 187.956C123.613 188.706 123.566 189.471 123.36 190.201C123.024 191.8 122.678 193.56 123.45 195.001C124.101 196.218 125.453 196.932 126.813 197.156C128.187 197.311 129.577 197.248 130.93 196.968C132.417 196.739 133.939 196.474 135.232 195.71L130.369 183.974C129.88 182.788 129.377 181.563 129.381 180.279C129.421 179.331 129.626 178.398 129.988 177.522C130.929 174.982 132.295 172.621 134.028 170.54C134.733 171.357 134.68 172.601 135.268 173.508C135.787 174.178 136.48 174.695 137.27 175.003C139.574 176.127 141.941 177.116 144.36 177.966C144.511 177.985 144.656 178.042 144.781 178.13C144.906 178.218 145.007 178.336 145.075 178.473C145.144 178.61 145.177 178.761 145.173 178.914C145.169 179.067 145.127 179.216 145.051 179.349L143.219 186.91C142.815 188.576 142.461 190.502 143.498 191.849C144.535 193.196 146.874 193.834 146.888 195.571C146.868 195.846 146.868 196.122 146.888 196.397C147.009 197.21 147.974 197.601 148.796 197.641C150.145 197.668 151.459 197.214 152.504 196.361C153.55 195.508 154.258 194.312 154.502 192.985C154.951 190.013 152.985 187.274 152.163 184.378C150.78 179.506 152.612 173.791 149.896 169.512C147.696 166.041 143.686 165.098 139.879 164.667C137.207 164.353 131.864 163.23 129.983 165.713Z" fill="#493545"/>
</g>
<g opacity="0.5">
<path opacity="0.5" d="M127.222 285.975C127.263 287.479 126.239 288.764 125.426 290.016C124.614 291.269 124.012 292.98 124.847 294.232C125.121 294.645 125.534 294.964 125.781 295.395C126.647 296.899 125.206 298.628 124.681 300.28C124.075 302.188 124.78 304.321 126.055 305.87C127.33 307.419 129.09 308.465 130.868 309.386C134.606 311.378 138.619 312.806 142.775 313.624C144.948 314.024 147.265 314.203 149.304 313.332C150.718 312.683 151.873 311.578 152.584 310.194C153.295 308.81 153.52 307.227 153.223 305.699C152.707 303.338 150.978 301.439 150.08 299.207C149.871 298.769 149.769 298.287 149.784 297.802C149.86 296.953 150.511 296.289 151.019 295.602C152.291 293.731 152.811 291.449 152.473 289.213C152.119 286.976 151.262 284.848 149.968 282.99C149.505 282.219 148.895 281.548 148.172 281.014C147.193 280.354 145.981 280.165 144.814 279.999C139.938 279.317 134.886 278.571 129.97 278.32C128.417 278.239 127.276 278.545 126.508 279.999C125.336 282.168 127.164 283.798 127.222 285.975Z" fill="#444176"/>
<path opacity="0.5" d="M152.334 301.245L143.08 314.405L134.046 313.62C134.046 313.62 133.75 316.763 130.118 305.372C128.088 299 132.215 301.214 133.027 299.449C133.84 297.685 135.272 296.127 135.393 294.825C135.681 292.032 134.832 290.443 134.832 290.443L144.652 289.266C144.208 290.59 144.152 292.012 144.49 293.366C145.72 298.475 152.334 301.245 152.334 301.245Z" fill="#C77485"/>
<path opacity="0.5" d="M138.415 290.025C144.862 290.025 150.089 285.904 150.089 280.821C150.089 275.738 144.862 271.617 138.415 271.617C131.968 271.617 126.741 275.738 126.741 280.821C126.741 285.904 131.968 290.025 138.415 290.025Z" fill="#444176"/>
<path opacity="0.1" d="M144.485 293.361C143.204 294.331 141.705 294.972 140.119 295.227C138.533 295.482 136.909 295.344 135.388 294.825C135.676 292.032 134.827 290.443 134.827 290.443L144.647 289.266C144.204 290.588 144.148 292.009 144.485 293.361Z" fill="black"/>
<path opacity="0.5" d="M138.563 294.96C143.986 294.96 148.382 290.563 148.382 285.14C148.382 279.717 143.986 275.321 138.563 275.321C133.139 275.321 128.743 279.717 128.743 285.14C128.743 290.563 133.139 294.96 138.563 294.96Z" fill="#C77485"/>
<path opacity="0.1" d="M151.364 302.736L151.135 301.838L150.938 301.048L150.646 299.881L150.592 299.665L150.547 299.486C150.547 299.486 150.781 298.781 149.241 299.01L148.953 299.059C148.711 299.108 148.428 299.176 148.105 299.266L147.813 299.355L147.427 299.477C146.204 299.875 145.089 300.547 144.167 301.443C143.753 301.839 143.387 302.282 143.076 302.763C143.045 302.808 143.022 302.848 142.995 302.884C142.889 303.051 142.794 303.225 142.712 303.405C142.712 306.943 139.174 311.263 139.174 311.263L135.722 306.274L135.654 306.176L134.833 304.981L134.541 304.595L134.442 304.46L132.646 302.049L132.197 301.448L132.049 301.246L131.829 300.954L131.313 300.267L129.292 301.448L126.598 303.019L125.027 313.234V313.517L125.076 314.361L125.404 319.91V319.986L124.829 322.285L124.914 322.33C126.271 323.062 127.682 323.686 129.135 324.198L129.517 324.333C129.966 324.481 130.388 324.616 130.828 324.746C130.844 324.812 130.856 324.88 130.864 324.948C130.864 324.885 130.864 324.818 130.864 324.755C136.373 326.329 142.214 326.329 147.723 324.755L147.826 324.723C148.082 324.651 148.343 324.575 148.594 324.49L149.003 324.36C150.111 323.989 151.196 323.554 152.253 323.058L152.631 315.021L152.9 309.224V308.892L151.364 302.736Z" fill="black"/>
<path opacity="0.5" d="M148.131 317.665C148.131 317.486 148.131 317.306 148.099 317.126C148.068 316.947 148.072 316.79 148.05 316.619C148.027 316.448 148.009 316.278 147.987 316.107C147.964 315.937 147.933 315.766 147.902 315.595C147.87 315.425 147.839 315.254 147.803 315.083C147.803 315.025 147.78 314.971 147.767 314.913C147.717 314.688 147.664 314.464 147.605 314.235C147.547 314.006 147.511 313.871 147.457 313.692C147.457 313.611 147.412 313.53 147.385 313.454C147.358 313.377 147.309 313.193 147.269 313.063L147.188 312.812C147.152 312.699 147.116 312.587 147.075 312.475C147.008 312.273 146.936 312.075 146.864 311.873C146.793 311.671 146.716 311.474 146.64 311.276C146.487 310.872 146.321 310.472 146.155 310.073C145.504 308.519 144.772 306.988 144.099 305.471C143.737 304.675 143.416 303.861 143.138 303.033L143.052 303.154C142.916 303.36 142.794 303.576 142.689 303.8C142.689 307.334 139.151 311.658 139.151 311.658L135.59 306.472L132.474 311.263C132.025 311.501 131.576 312.318 131.226 313.481C131.127 313.795 131.033 314.136 130.943 314.5C130.88 314.742 130.822 314.998 130.768 315.254C130.737 315.384 130.71 315.515 130.683 315.649L130.602 316.058V316.121C130.548 316.399 130.494 316.686 130.445 316.978C130.395 317.27 130.337 317.607 130.288 317.926C130.252 318.132 130.22 318.339 130.193 318.545C130.131 318.945 130.077 319.349 130.023 319.748C129.991 319.982 129.96 320.197 129.933 320.444L129.825 321.342C130.054 322.079 130.31 322.806 130.575 323.52C130.744 323.911 130.843 324.329 130.867 324.755C136.376 326.329 142.217 326.329 147.726 324.755C147.725 324.74 147.725 324.725 147.726 324.71C147.644 324.307 147.607 323.895 147.619 323.484C147.709 322.332 147.859 321.186 148.068 320.049C148.134 319.489 148.162 318.925 148.153 318.361V318.159C148.14 317.988 148.135 317.827 148.131 317.665ZM148.131 317.665C148.131 317.486 148.131 317.306 148.099 317.126C148.068 316.947 148.072 316.79 148.05 316.619C148.027 316.448 148.009 316.278 147.987 316.107C147.964 315.937 147.933 315.766 147.902 315.595C147.87 315.425 147.839 315.254 147.803 315.083C147.803 315.025 147.78 314.971 147.767 314.913C147.717 314.688 147.664 314.464 147.605 314.235C147.547 314.006 147.511 313.871 147.457 313.692C147.457 313.611 147.412 313.53 147.385 313.454C147.358 313.377 147.309 313.193 147.269 313.063L147.188 312.812C147.152 312.699 147.116 312.587 147.075 312.475C147.008 312.273 146.936 312.075 146.864 311.873C146.793 311.671 146.716 311.474 146.64 311.276C146.487 310.872 146.321 310.472 146.155 310.073C145.504 308.519 144.772 306.988 144.099 305.471C143.737 304.675 143.416 303.861 143.138 303.033L143.052 303.154C142.916 303.36 142.794 303.576 142.689 303.8C142.689 307.334 139.151 311.658 139.151 311.658L135.59 306.472L132.474 311.263C132.025 311.501 131.576 312.318 131.226 313.481C131.127 313.795 131.033 314.136 130.943 314.5C130.88 314.742 130.822 314.998 130.768 315.254C130.737 315.384 130.71 315.515 130.683 315.649L130.602 316.058V316.121C130.548 316.399 130.494 316.686 130.445 316.978C130.395 317.27 130.337 317.607 130.288 317.926C130.252 318.132 130.22 318.339 130.193 318.545C130.131 318.945 130.077 319.349 130.023 319.748C129.991 319.982 129.96 320.197 129.933 320.444L129.825 321.342C130.054 322.079 130.31 322.806 130.575 323.52C130.744 323.911 130.843 324.329 130.867 324.755C136.376 326.329 142.217 326.329 147.726 324.755C147.725 324.74 147.725 324.725 147.726 324.71C147.644 324.307 147.607 323.895 147.619 323.484C147.709 322.332 147.859 321.186 148.068 320.049C148.134 319.489 148.162 318.925 148.153 318.361V318.159C148.14 317.988 148.135 317.827 148.131 317.665ZM148.131 317.665C148.131 317.486 148.131 317.306 148.099 317.126C148.068 316.947 148.072 316.79 148.05 316.619C148.027 316.448 148.009 316.278 147.987 316.107C147.964 315.937 147.933 315.766 147.902 315.595C147.87 315.425 147.839 315.254 147.803 315.083C147.803 315.025 147.78 314.971 147.767 314.913C147.717 314.688 147.664 314.464 147.605 314.235C147.547 314.006 147.511 313.871 147.457 313.692C147.457 313.611 147.412 313.53 147.385 313.454C147.358 313.377 147.309 313.193 147.269 313.063L147.188 312.812C147.152 312.699 147.116 312.587 147.075 312.475C147.008 312.273 146.936 312.075 146.864 311.873C146.793 311.671 146.716 311.474 146.64 311.276C146.487 310.872 146.321 310.472 146.155 310.073C145.504 308.519 144.772 306.988 144.099 305.471C143.737 304.675 143.416 303.861 143.138 303.033L143.052 303.154C142.916 303.36 142.794 303.576 142.689 303.8C142.689 307.334 139.151 311.658 139.151 311.658L135.59 306.472L132.474 311.263C132.025 311.501 131.576 312.318 131.226 313.481C131.127 313.795 131.033 314.136 130.943 314.5C130.88 314.742 130.822 314.998 130.768 315.254C130.737 315.384 130.71 315.515 130.683 315.649L130.602 316.058V316.121C130.548 316.399 130.494 316.686 130.445 316.978C130.395 317.27 130.337 317.607 130.288 317.926C130.252 318.132 130.22 318.339 130.193 318.545C130.131 318.945 130.077 319.349 130.023 319.748C129.991 319.982 129.96 320.197 129.933 320.444L129.825 321.342C130.054 322.079 130.31 322.806 130.575 323.52C130.744 323.911 130.843 324.329 130.867 324.755C136.376 326.329 142.217 326.329 147.726 324.755C147.725 324.74 147.725 324.725 147.726 324.71C147.644 324.307 147.607 323.895 147.619 323.484C147.709 322.332 147.859 321.186 148.068 320.049C148.134 319.489 148.162 318.925 148.153 318.361V318.159C148.14 317.988 148.135 317.827 148.131 317.665ZM152.89 309.238L151.287 302.84L151.013 301.744L150.937 301.443L150.546 299.881C150.547 299.867 150.547 299.854 150.546 299.84C150.555 299.771 150.545 299.701 150.515 299.638C150.456 299.521 150.308 299.4 149.962 299.369C149.831 299.359 149.699 299.359 149.567 299.369C149.177 299.407 148.791 299.48 148.413 299.584C148.229 299.634 148.032 299.688 147.821 299.755L147.435 299.876H147.399C146.365 300.216 145.405 300.749 144.57 301.448C144.019 301.907 143.535 302.442 143.133 303.037L143.048 303.158C142.911 303.365 142.79 303.581 142.684 303.805C142.684 307.338 139.146 311.662 139.146 311.662L135.586 306.476L135.384 306.184L135.348 306.135L134.831 305.376L134.441 304.855L134.338 304.721L132.497 302.265L131.913 301.47V301.443L131.711 301.169L131.325 300.657L129.978 301.443L126.61 303.405L125.057 313.512V313.62L125.102 314.356L125.434 319.982V320.301L124.927 322.326C126.283 323.057 127.694 323.682 129.147 324.193L129.529 324.328C129.978 324.476 130.4 324.611 130.84 324.741C130.856 324.808 130.868 324.875 130.876 324.943C130.876 324.88 130.876 324.813 130.876 324.75C136.385 326.325 142.226 326.325 147.735 324.75L147.839 324.719C148.095 324.647 148.355 324.571 148.606 324.485L149.015 324.355C150.123 323.985 151.208 323.55 152.266 323.053L152.638 315.025L152.908 309.291L152.89 309.238ZM130.809 324.741C130.825 324.808 130.837 324.875 130.844 324.943C130.844 324.88 130.844 324.813 130.844 324.75L130.809 324.741ZM148.131 317.665C148.131 317.486 148.131 317.306 148.099 317.126C148.068 316.947 148.072 316.79 148.05 316.619C148.027 316.448 148.009 316.278 147.987 316.107C147.964 315.937 147.933 315.766 147.902 315.595C147.87 315.425 147.839 315.254 147.803 315.083C147.803 315.025 147.78 314.971 147.767 314.913C147.717 314.688 147.664 314.464 147.605 314.235C147.547 314.006 147.511 313.871 147.457 313.692C147.457 313.611 147.412 313.53 147.385 313.454C147.358 313.377 147.309 313.193 147.269 313.063L147.188 312.812C147.152 312.699 147.116 312.587 147.075 312.475C147.008 312.273 146.936 312.075 146.864 311.873C146.793 311.671 146.716 311.474 146.64 311.276C146.487 310.872 146.321 310.472 146.155 310.073C145.504 308.519 144.772 306.988 144.099 305.471C143.737 304.675 143.416 303.861 143.138 303.033L143.052 303.154C142.916 303.36 142.794 303.576 142.689 303.8C142.689 307.334 139.151 311.658 139.151 311.658L135.59 306.472L132.474 311.263C132.025 311.501 131.576 312.318 131.226 313.481C131.127 313.795 131.033 314.136 130.943 314.5C130.88 314.742 130.822 314.998 130.768 315.254C130.737 315.384 130.71 315.515 130.683 315.649L130.602 316.058V316.121C130.548 316.399 130.494 316.686 130.445 316.978C130.395 317.27 130.337 317.607 130.288 317.926C130.252 318.132 130.22 318.339 130.193 318.545C130.131 318.945 130.077 319.349 130.023 319.748C129.991 319.982 129.96 320.197 129.933 320.444L129.825 321.342C130.054 322.079 130.31 322.806 130.575 323.52C130.744 323.911 130.843 324.329 130.867 324.755C136.376 326.329 142.217 326.329 147.726 324.755C147.725 324.74 147.725 324.725 147.726 324.71C147.644 324.307 147.607 323.895 147.619 323.484C147.709 322.332 147.859 321.186 148.068 320.049C148.134 319.489 148.162 318.925 148.153 318.361V318.159C148.14 317.988 148.135 317.827 148.131 317.665ZM148.131 317.665C148.131 317.486 148.131 317.306 148.099 317.126C148.068 316.947 148.072 316.79 148.05 316.619C148.027 316.448 148.009 316.278 147.987 316.107C147.964 315.937 147.933 315.766 147.902 315.595C147.87 315.425 147.839 315.254 147.803 315.083C147.803 315.025 147.78 314.971 147.767 314.913C147.717 314.688 147.664 314.464 147.605 314.235C147.547 314.006 147.511 313.871 147.457 313.692C147.457 313.611 147.412 313.53 147.385 313.454C147.358 313.377 147.309 313.193 147.269 313.063L147.188 312.812C147.152 312.699 147.116 312.587 147.075 312.475C147.008 312.273 146.936 312.075 146.864 311.873C146.793 311.671 146.716 311.474 146.64 311.276C146.487 310.872 146.321 310.472 146.155 310.073C145.504 308.519 144.772 306.988 144.099 305.471C143.737 304.675 143.416 303.861 143.138 303.033L143.052 303.154C142.916 303.36 142.794 303.576 142.689 303.8C142.689 307.334 139.151 311.658 139.151 311.658L135.59 306.472L132.474 311.263C132.025 311.501 131.576 312.318 131.226 313.481C131.127 313.795 131.033 314.136 130.943 314.5C130.88 314.742 130.822 314.998 130.768 315.254C130.737 315.384 130.71 315.515 130.683 315.649L130.602 316.058V316.121C130.548 316.399 130.494 316.686 130.445 316.978C130.395 317.27 130.337 317.607 130.288 317.926C130.252 318.132 130.22 318.339 130.193 318.545C130.131 318.945 130.077 319.349 130.023 319.748C129.991 319.982 129.96 320.197 129.933 320.444L129.825 321.342C130.054 322.079 130.31 322.806 130.575 323.52C130.744 323.911 130.843 324.329 130.867 324.755C136.376 326.329 142.217 326.329 147.726 324.755C147.725 324.74 147.725 324.725 147.726 324.71C147.644 324.307 147.607 323.895 147.619 323.484C147.709 322.332 147.859 321.186 148.068 320.049C148.134 319.489 148.162 318.925 148.153 318.361V318.159C148.14 317.988 148.135 317.827 148.131 317.665ZM148.131 317.665C148.131 317.486 148.131 317.306 148.099 317.126C148.068 316.947 148.072 316.79 148.05 316.619C148.027 316.448 148.009 316.278 147.987 316.107C147.964 315.937 147.933 315.766 147.902 315.595C147.87 315.425 147.839 315.254 147.803 315.083C147.803 315.025 147.78 314.971 147.767 314.913C147.717 314.688 147.664 314.464 147.605 314.235C147.547 314.006 147.511 313.871 147.457 313.692C147.457 313.611 147.412 313.53 147.385 313.454C147.358 313.377 147.309 313.193 147.269 313.063L147.188 312.812C147.152 312.699 147.116 312.587 147.075 312.475C147.008 312.273 146.936 312.075 146.864 311.873C146.793 311.671 146.716 311.474 146.64 311.276C146.487 310.872 146.321 310.472 146.155 310.073C145.504 308.519 144.772 306.988 144.099 305.471C143.737 304.675 143.416 303.861 143.138 303.033L143.052 303.154C142.916 303.36 142.794 303.576 142.689 303.8C142.689 307.334 139.151 311.658 139.151 311.658L135.59 306.472L132.474 311.263C132.025 311.501 131.576 312.318 131.226 313.481C131.127 313.795 131.033 314.136 130.943 314.5C130.88 314.742 130.822 314.998 130.768 315.254C130.737 315.384 130.71 315.515 130.683 315.649L130.602 316.058V316.121C130.548 316.399 130.494 316.686 130.445 316.978C130.395 317.27 130.337 317.607 130.288 317.926C130.252 318.132 130.22 318.339 130.193 318.545C130.131 318.945 130.077 319.349 130.023 319.748C129.991 319.982 129.96 320.197 129.933 320.444L129.825 321.342C130.054 322.079 130.31 322.806 130.575 323.52C130.744 323.911 130.843 324.329 130.867 324.755C136.376 326.329 142.217 326.329 147.726 324.755C147.725 324.74 147.725 324.725 147.726 324.71C147.644 324.307 147.607 323.895 147.619 323.484C147.709 322.332 147.859 321.186 148.068 320.049C148.134 319.489 148.162 318.925 148.153 318.361V318.159C148.14 317.988 148.135 317.827 148.131 317.665ZM148.131 317.665C148.131 317.486 148.131 317.306 148.099 317.126C148.068 316.947 148.072 316.79 148.05 316.619C148.027 316.448 148.009 316.278 147.987 316.107C147.964 315.937 147.933 315.766 147.902 315.595C147.87 315.425 147.839 315.254 147.803 315.083C147.803 315.025 147.78 314.971 147.767 314.913C147.717 314.688 147.664 314.464 147.605 314.235C147.547 314.006 147.511 313.871 147.457 313.692C147.457 313.611 147.412 313.53 147.385 313.454C147.358 313.377 147.309 313.193 147.269 313.063L147.188 312.812C147.152 312.699 147.116 312.587 147.075 312.475C147.008 312.273 146.936 312.075 146.864 311.873C146.793 311.671 146.716 311.474 146.64 311.276C146.487 310.872 146.321 310.472 146.155 310.073C145.504 308.519 144.772 306.988 144.099 305.471C143.737 304.675 143.416 303.861 143.138 303.033L143.052 303.154C142.916 303.36 142.794 303.576 142.689 303.8C142.689 307.334 139.151 311.658 139.151 311.658L135.59 306.472L132.474 311.263C132.025 311.501 131.576 312.318 131.226 313.481C131.127 313.795 131.033 314.136 130.943 314.5C130.88 314.742 130.822 314.998 130.768 315.254C130.737 315.384 130.71 315.515 130.683 315.649L130.602 316.058V316.121C130.548 316.399 130.494 316.686 130.445 316.978C130.395 317.27 130.337 317.607 130.288 317.926C130.252 318.132 130.22 318.339 130.193 318.545C130.131 318.945 130.077 319.349 130.023 319.748C129.991 319.982 129.96 320.197 129.933 320.444L129.825 321.342C130.054 322.079 130.31 322.806 130.575 323.52C130.744 323.911 130.843 324.329 130.867 324.755C136.376 326.329 142.217 326.329 147.726 324.755C147.725 324.74 147.725 324.725 147.726 324.71C147.644 324.307 147.607 323.895 147.619 323.484C147.709 322.332 147.859 321.186 148.068 320.049C148.134 319.489 148.162 318.925 148.153 318.361V318.159C148.14 317.988 148.135 317.827 148.131 317.665ZM148.131 317.665C148.131 317.486 148.131 317.306 148.099 317.126C148.068 316.947 148.072 316.79 148.05 316.619C148.027 316.448 148.009 316.278 147.987 316.107C147.964 315.937 147.933 315.766 147.902 315.595C147.87 315.425 147.839 315.254 147.803 315.083C147.803 315.025 147.78 314.971 147.767 314.913C147.717 314.688 147.664 314.464 147.605 314.235C147.547 314.006 147.511 313.871 147.457 313.692C147.457 313.611 147.412 313.53 147.385 313.454C147.358 313.377 147.309 313.193 147.269 313.063L147.188 312.812C147.152 312.699 147.116 312.587 147.075 312.475C147.008 312.273 146.936 312.075 146.864 311.873C146.793 311.671 146.716 311.474 146.64 311.276C146.487 310.872 146.321 310.472 146.155 310.073C145.504 308.519 144.772 306.988 144.099 305.471C143.737 304.675 143.416 303.861 143.138 303.033L143.052 303.154C142.916 303.36 142.794 303.576 142.689 303.8C142.689 307.334 139.151 311.658 139.151 311.658L135.59 306.472L132.474 311.263C132.025 311.501 131.576 312.318 131.226 313.481C131.127 313.795 131.033 314.136 130.943 314.5C130.88 314.742 130.822 314.998 130.768 315.254C130.737 315.384 130.71 315.515 130.683 315.649L130.602 316.058V316.121C130.548 316.399 130.494 316.686 130.445 316.978C130.395 317.27 130.337 317.607 130.288 317.926C130.252 318.132 130.22 318.339 130.193 318.545C130.131 318.945 130.077 319.349 130.023 319.748C129.991 319.982 129.96 320.197 129.933 320.444L129.825 321.342C130.054 322.079 130.31 322.806 130.575 323.52C130.744 323.911 130.843 324.329 130.867 324.755C136.376 326.329 142.217 326.329 147.726 324.755C147.725 324.74 147.725 324.725 147.726 324.71C147.644 324.307 147.607 323.895 147.619 323.484C147.709 322.332 147.859 321.186 148.068 320.049C148.134 319.489 148.162 318.925 148.153 318.361V318.159C148.14 317.988 148.135 317.827 148.131 317.665ZM148.131 317.665C148.131 317.486 148.131 317.306 148.099 317.126C148.068 316.947 148.072 316.79 148.05 316.619C148.027 316.448 148.009 316.278 147.987 316.107C147.964 315.937 147.933 315.766 147.902 315.595C147.87 315.425 147.839 315.254 147.803 315.083C147.803 315.025 147.78 314.971 147.767 314.913C147.717 314.688 147.664 314.464 147.605 314.235C147.547 314.006 147.511 313.871 147.457 313.692C147.457 313.611 147.412 313.53 147.385 313.454C147.358 313.377 147.309 313.193 147.269 313.063L147.188 312.812C147.152 312.699 147.116 312.587 147.075 312.475C147.008 312.273 146.936 312.075 146.864 311.873C146.793 311.671 146.716 311.474 146.64 311.276C146.487 310.872 146.321 310.472 146.155 310.073C145.504 308.519 144.772 306.988 144.099 305.471C143.737 304.675 143.416 303.861 143.138 303.033L143.052 303.154C142.916 303.36 142.794 303.576 142.689 303.8C142.689 307.334 139.151 311.658 139.151 311.658L135.59 306.472L132.474 311.263C132.025 311.501 131.576 312.318 131.226 313.481C131.127 313.795 131.033 314.136 130.943 314.5C130.88 314.742 130.822 314.998 130.768 315.254C130.737 315.384 130.71 315.515 130.683 315.649L130.602 316.058V316.121C130.548 316.399 130.494 316.686 130.445 316.978C130.395 317.27 130.337 317.607 130.288 317.926C130.252 318.132 130.22 318.339 130.193 318.545C130.131 318.945 130.077 319.349 130.023 319.748C129.991 319.982 129.96 320.197 129.933 320.444L129.825 321.342C130.054 322.079 130.31 322.806 130.575 323.52C130.744 323.911 130.843 324.329 130.867 324.755C136.376 326.329 142.217 326.329 147.726 324.755C147.725 324.74 147.725 324.725 147.726 324.71C147.644 324.307 147.607 323.895 147.619 323.484C147.709 322.332 147.859 321.186 148.068 320.049C148.134 319.489 148.162 318.925 148.153 318.361V318.159C148.14 317.988 148.135 317.827 148.131 317.665ZM148.131 317.665C148.131 317.486 148.131 317.306 148.099 317.126C148.068 316.947 148.072 316.79 148.05 316.619C148.027 316.448 148.009 316.278 147.987 316.107C147.964 315.937 147.933 315.766 147.902 315.595C147.87 315.425 147.839 315.254 147.803 315.083C147.803 315.025 147.78 314.971 147.767 314.913C147.717 314.688 147.664 314.464 147.605 314.235C147.547 314.006 147.511 313.871 147.457 313.692C147.457 313.611 147.412 313.53 147.385 313.454C147.358 313.377 147.309 313.193 147.269 313.063L147.188 312.812C147.152 312.699 147.116 312.587 147.075 312.475C147.008 312.273 146.936 312.075 146.864 311.873C146.793 311.671 146.716 311.474 146.64 311.276C146.487 310.872 146.321 310.472 146.155 310.073C145.504 308.519 144.772 306.988 144.099 305.471C143.737 304.675 143.416 303.861 143.138 303.033L143.052 303.154C142.916 303.36 142.794 303.576 142.689 303.8C142.689 307.334 139.151 311.658 139.151 311.658L135.59 306.472L132.474 311.263C132.025 311.501 131.576 312.318 131.226 313.481C131.127 313.795 131.033 314.136 130.943 314.5C130.88 314.742 130.822 314.998 130.768 315.254C130.737 315.384 130.71 315.515 130.683 315.649L130.602 316.058V316.121C130.548 316.399 130.494 316.686 130.445 316.978C130.395 317.27 130.337 317.607 130.288 317.926C130.252 318.132 130.22 318.339 130.193 318.545C130.131 318.945 130.077 319.349 130.023 319.748C129.991 319.982 129.96 320.197 129.933 320.444L129.825 321.342C130.054 322.079 130.31 322.806 130.575 323.52C130.744 323.911 130.843 324.329 130.867 324.755C136.376 326.329 142.217 326.329 147.726 324.755C147.725 324.74 147.725 324.725 147.726 324.71C147.644 324.307 147.607 323.895 147.619 323.484C147.709 322.332 147.859 321.186 148.068 320.049C148.134 319.489 148.162 318.925 148.153 318.361V318.159C148.14 317.988 148.135 317.827 148.131 317.665ZM148.131 317.665C148.131 317.486 148.131 317.306 148.099 317.126C148.068 316.947 148.072 316.79 148.05 316.619C148.027 316.448 148.009 316.278 147.987 316.107C147.964 315.937 147.933 315.766 147.902 315.595C147.87 315.425 147.839 315.254 147.803 315.083C147.803 315.025 147.78 314.971 147.767 314.913C147.717 314.688 147.664 314.464 147.605 314.235C147.547 314.006 147.511 313.871 147.457 313.692C147.457 313.611 147.412 313.53 147.385 313.454C147.358 313.377 147.309 313.193 147.269 313.063L147.188 312.812C147.152 312.699 147.116 312.587 147.075 312.475C147.008 312.273 146.936 312.075 146.864 311.873C146.793 311.671 146.716 311.474 146.64 311.276C146.487 310.872 146.321 310.472 146.155 310.073C145.504 308.519 144.772 306.988 144.099 305.471C143.737 304.675 143.416 303.861 143.138 303.033L143.052 303.154C142.916 303.36 142.794 303.576 142.689 303.8C142.689 307.334 139.151 311.658 139.151 311.658L135.59 306.472L132.474 311.263C132.025 311.501 131.576 312.318 131.226 313.481C131.127 313.795 131.033 314.136 130.943 314.5C130.88 314.742 130.822 314.998 130.768 315.254C130.737 315.384 130.71 315.515 130.683 315.649L130.602 316.058V316.121C130.548 316.399 130.494 316.686 130.445 316.978C130.395 317.27 130.337 317.607 130.288 317.926C130.252 318.132 130.22 318.339 130.193 318.545C130.131 318.945 130.077 319.349 130.023 319.748C129.991 319.982 129.96 320.197 129.933 320.444L129.825 321.342C130.054 322.079 130.31 322.806 130.575 323.52C130.744 323.911 130.843 324.329 130.867 324.755C136.376 326.329 142.217 326.329 147.726 324.755C147.725 324.74 147.725 324.725 147.726 324.71C147.644 324.307 147.607 323.895 147.619 323.484C147.709 322.332 147.859 321.186 148.068 320.049C148.134 319.489 148.162 318.925 148.153 318.361V318.159C148.14 317.988 148.135 317.827 148.131 317.665Z" fill="#444176"/>
<path opacity="0.1" d="M135.654 306.171L135.353 306.13C134.899 306.069 134.449 305.979 134.006 305.861L133.84 305.816C132.744 305.506 131.545 304.95 131.276 303.971C131.196 303.656 131.205 303.325 131.303 303.014C131.454 302.48 131.658 301.963 131.914 301.47V301.443C131.947 301.374 131.985 301.306 132.026 301.241C132.396 300.517 132.957 299.907 133.647 299.476L133.108 299.562L128.546 300.303L121.475 301.443C121.475 301.443 120.217 301.192 118.507 305.906C118.507 305.964 118.466 306.018 118.448 306.081C118.035 307.235 117.6 308.676 117.151 310.477C116.841 311.725 116.558 312.951 116.298 314.14C116.221 314.5 116.145 314.854 116.073 315.205C116.883 316.159 117.754 317.059 118.682 317.899L118.83 318.038C120.647 319.683 122.655 321.105 124.811 322.272L124.896 322.317C126.252 323.048 127.663 323.673 129.116 324.184L129.498 324.319C129.579 323.488 129.669 322.568 129.776 321.625C129.776 321.531 129.776 321.437 129.812 321.342L129.92 320.444C129.947 320.215 129.978 319.995 130.01 319.748C130.064 319.349 130.118 318.945 130.181 318.545C130.207 318.339 130.239 318.132 130.275 317.925C130.324 317.607 130.378 317.288 130.432 316.978C130.486 316.668 130.535 316.399 130.589 316.121V316.058L130.67 315.649C130.697 315.514 130.724 315.384 130.755 315.254C130.809 314.998 130.867 314.742 130.93 314.5C131.02 314.136 131.114 313.795 131.213 313.48C131.572 312.318 131.99 311.5 132.461 311.262L135.577 306.472L135.708 306.27L135.766 306.18L135.654 306.171Z" fill="black"/>
<path opacity="0.1" d="M136.404 282.267C137.805 282.029 139.214 281.517 140.606 281.818C141.774 282.06 142.748 282.837 143.817 283.376C144.848 283.895 145.977 284.193 147.13 284.251C147.551 284.307 147.978 284.223 148.347 284.013C148.904 283.627 148.985 282.837 148.89 282.163C148.621 280.251 147.427 278.607 146.196 277.117C145.705 276.48 145.138 275.905 144.508 275.406C142.896 274.216 140.763 274.014 138.765 274.104C136.485 274.207 134.168 274.647 132.188 275.792C130.841 276.565 127.752 278.998 128.825 280.758C129.952 282.599 134.639 282.568 136.404 282.267Z" fill="black"/>
<path opacity="0.5" d="M136.404 281.818C137.805 281.58 139.214 281.068 140.606 281.369C141.774 281.611 142.748 282.388 143.817 282.927C144.848 283.446 145.977 283.744 147.13 283.802C147.551 283.858 147.978 283.774 148.347 283.564C148.904 283.178 148.985 282.388 148.89 281.714C148.621 279.802 147.427 278.158 146.196 276.668C145.705 276.031 145.138 275.457 144.508 274.957C142.896 273.767 140.763 273.565 138.765 273.655C136.485 273.758 134.168 274.198 132.188 275.343C130.841 276.116 127.752 278.549 128.825 280.309C129.952 282.15 134.639 282.119 136.404 281.818Z" fill="#444176"/>
</g>
<path d="M259.701 259.831H259.768C259.867 262.839 260.293 265.56 261.115 266.314C263.073 268.11 271.19 264.518 270.634 262.345C270.521 261.896 270.333 261.16 270.095 260.23C272.286 259.956 274.158 259.332 274.904 258.048L276.313 262.394L276.412 262.704H276.439H276.52C277.449 271.513 279.555 289.805 281.239 292.257C283.484 295.503 286.066 309.57 286.066 309.57L290.892 338.426C290.892 338.426 292.751 355.039 293.864 356.835C294.188 357.178 294.619 357.401 295.086 357.468C294.435 359.417 293.501 361.693 292.392 362.964C290.147 365.487 287.192 370.538 284.593 370.179C281.993 369.82 281.252 375.23 286.079 375.949C288.75 376.348 293.011 375.863 296.285 375.351C296.285 376.797 297.29 378.458 299.818 378.836C304.645 379.558 314.671 377.394 314.671 377.394C314.671 377.394 323.201 373.802 323.583 371.261C323.853 369.42 322.546 362.03 321.819 358.155C323.166 355.995 321.729 337.358 321.729 337.358L319.129 301.65C319.129 301.65 320.615 281.813 319.129 278.203C318.2 275.958 317.854 265.632 317.724 258.246L319.52 258.362C319.622 258.239 319.715 258.109 319.798 257.972L320.247 258.003C320.247 258.003 322.492 255.48 320.62 251.511C319.241 248.561 319.502 235.244 319.722 228.612L319.987 225.469C320.085 225.374 320.16 225.257 320.207 225.128C323.689 224.658 327.074 223.633 330.233 222.093C331.186 221.697 332.073 221.158 332.864 220.495C334.723 218.699 333.605 207.869 329.891 191.638C326.178 175.407 322.838 176.848 322.838 176.848C322.838 176.848 313.925 176.125 309.84 170.715C305.754 165.305 303.01 165.377 303.01 165.377C302.907 164.667 302.835 163.998 302.786 163.374C302.786 163.141 302.75 162.925 302.737 162.692C304.126 161.4 305.185 159.794 305.826 158.009C306.661 157.56 307.689 157.412 308.488 156.846C308.692 156.698 308.877 156.526 309.04 156.334C309.841 155.595 310.35 154.593 310.473 153.51C310.6 152.327 310.544 151.133 310.306 149.967C310.024 148.243 309.606 146.479 308.6 145.123C307.595 143.767 306.09 142.95 304.64 142.191C300.713 140.128 296.775 138.087 292.827 136.067C292.056 135.595 291.195 135.289 290.299 135.169C288.719 135.079 287.3 136.161 286.025 137.189C285.516 137.589 285.029 138.017 284.566 138.469C284.172 138.818 283.813 139.204 283.493 139.623C282.002 141.621 281.369 145.383 282.025 147.879C282.231 148.67 282.676 148.899 283.223 148.89C282.411 150.505 281.988 152.289 281.989 154.098C281.998 156.078 282.504 158.025 283.462 159.758C284.42 161.491 285.799 162.955 287.471 164.016C287.471 164.268 287.471 164.515 287.493 164.753C287.512 165.674 287.482 166.596 287.403 167.514C287.403 167.514 277.526 172.852 276.417 175.376C275.308 177.899 271.217 179.704 271.217 179.704C271.217 179.704 263.418 183.673 263.418 197.74L259.333 217.576L258.592 255.449C258.592 255.449 259.104 255 259.939 254.362C259.912 254.613 259.889 254.874 259.867 255.139C259.756 256.586 259.718 258.038 259.755 259.489L259.701 259.831ZM309.584 357.85C309.431 358.429 309.206 359.197 308.924 360.095C308.798 359.349 308.672 358.613 308.546 357.913C308.87 357.881 309.215 357.863 309.584 357.85Z" fill="url(#paint2_linear)"/>
<path d="M296.095 353.198C296.095 353.198 294.663 359.637 292.503 362.138C290.344 364.638 287.515 369.649 285.019 369.29C282.522 368.931 281.8 374.296 286.451 375.01C291.103 375.724 300.733 373.582 300.733 373.582C300.733 373.582 308.959 369.99 309.314 367.503C309.668 365.016 307.168 352.125 307.168 352.125L296.095 353.198Z" fill="#53526B"/>
<path opacity="0.05" d="M296.095 353.198C296.095 353.198 294.663 359.637 292.503 362.138C290.344 364.638 287.515 369.649 285.019 369.29C282.522 368.931 281.8 374.296 286.451 375.01C291.103 375.724 300.733 373.582 300.733 373.582C300.733 373.582 308.959 369.99 309.314 367.503C309.668 365.016 307.168 352.125 307.168 352.125L296.095 353.198Z" fill="black"/>
<path d="M309.328 356.058C309.328 356.058 307.896 362.497 305.736 364.998C303.577 367.498 300.735 372.509 298.243 372.15C295.751 371.791 295.023 377.156 299.675 377.87C304.326 378.584 313.98 376.438 313.98 376.438C313.98 376.438 322.205 372.846 322.56 370.358C322.915 367.871 320.414 354.981 320.414 354.981L309.328 356.058Z" fill="#53526B"/>
<path d="M276.784 258.084C276.784 258.084 279.644 288.835 281.79 292.055C283.937 295.274 286.437 309.22 286.437 309.22L291.085 337.825C291.085 337.825 292.88 354.276 293.945 356.063C295.009 357.85 308.281 357.082 308.281 357.082L300.028 262.372L276.784 258.084Z" fill="#5F5D7E"/>
<path opacity="0.05" d="M276.784 258.084C276.784 258.084 279.644 288.835 281.79 292.055C283.937 295.274 286.437 309.22 286.437 309.22L291.085 337.825C291.085 337.825 292.88 354.276 293.945 356.063C295.009 357.85 308.281 357.082 308.281 357.082L300.028 262.372L276.784 258.084Z" fill="black"/>
<path d="M271.064 243.416L271.998 246.383L277.049 262.417L277.148 262.722H277.175C277.853 262.875 292.167 266.166 295.256 267.176C295.423 267.228 295.586 267.289 295.745 267.36C297.178 268.074 298.965 293.819 298.965 293.819C298.965 293.819 300.038 318.136 300.761 319.923C301.484 321.71 304.353 358.537 306.126 357.468C307.9 356.399 320.786 357.468 320.786 357.468C322.218 356.036 320.786 336.729 320.786 336.729L318.244 301.335C318.244 301.335 319.677 281.669 318.244 278.091C316.812 274.513 316.812 250.559 316.812 250.559L287.542 245.984L284.714 245.535L271.064 243.416Z" fill="#5F5D7E"/>
<path opacity="0.02" d="M271.998 246.388L277.049 262.421L277.17 262.736C277.848 262.888 292.162 266.179 295.251 267.19H295.561L287.565 245.988L287.336 245.378L284.736 245.544L271.998 246.388Z" fill="black"/>
<path opacity="0.1" d="M305.394 171.905C305.394 171.905 292.163 186.21 283.937 174.406L276.071 179.771L277.503 187.997L272.852 250.213C272.852 250.213 285.01 249.854 293.59 252.714C295.98 253.562 298.562 253.709 301.033 253.139C303.503 252.569 305.76 251.304 307.536 249.495L306.122 194.79L309.341 177.984L305.394 171.905Z" fill="black"/>
<path d="M305.394 170.832C305.394 170.832 292.163 185.137 283.937 173.333L276.071 178.698L277.503 186.924L272.852 249.14C272.852 249.14 285.01 248.781 293.59 251.641C295.98 252.489 298.562 252.636 301.033 252.066C303.503 251.495 305.76 250.231 307.536 248.422L306.122 193.717L309.341 176.911L305.394 170.832Z" fill="#53526B"/>
<path d="M278.979 234.534V236.788H278.261V235.289H275.634V236.788H274.911V234.539L278.979 234.534Z" fill="#E82127"/>
<path d="M278.338 233.807H275.563C275.381 233.764 275.215 233.671 275.082 233.54C274.949 233.408 274.854 233.243 274.809 233.062H279.087C279.041 233.243 278.947 233.408 278.814 233.539C278.681 233.67 278.515 233.763 278.333 233.807" fill="#E82127"/>
<path d="M303.427 233.089C303.38 233.268 303.286 233.431 303.154 233.561C303.022 233.692 302.857 233.784 302.678 233.829H301.51L301.452 233.852V236.797H300.734V233.852L300.666 233.829H299.499C299.32 233.783 299.156 233.69 299.024 233.56C298.893 233.43 298.798 233.267 298.749 233.089H303.427Z" fill="#E82127"/>
<path d="M277.857 244.852C277.857 244.852 277.857 254.151 275.711 258.084C273.565 262.017 261.052 259.88 261.052 259.88L263.553 246.648L277.857 244.852Z" fill="#D6DBE6"/>
<path d="M262.413 266.314C264.299 268.11 272.116 264.518 271.577 262.381C271.2 260.868 269.88 255.453 269.13 252.382L268.609 250.222C268.609 250.222 264.029 248.79 262.413 250.222C261.825 250.743 261.412 252.795 261.219 255.273C260.886 259.579 261.223 265.174 262.413 266.314Z" fill="#FDC2CC"/>
<path d="M279.631 177.266L292.144 186.919C292.144 186.919 310.737 185.846 306.09 176.907C304.066 172.975 302.845 168.68 302.498 164.272C302.347 162.646 302.347 161.009 302.498 159.383C302.498 159.383 285.333 143.668 287.479 161.529C287.648 162.9 287.747 164.278 287.776 165.659C288.031 179.066 279.631 177.266 279.631 177.266Z" fill="#FDC2CC"/>
<path opacity="0.1" d="M287.516 161.533C287.685 162.904 287.784 164.283 287.812 165.664C289.738 166.94 291.999 167.618 294.309 167.612C297.51 167.612 299.868 164.496 301.996 162.427C301.758 159.459 302.53 159.387 302.53 159.387C302.53 159.387 285.37 143.654 287.516 161.533Z" fill="black"/>
<path d="M294.308 166.899C300.825 166.899 306.108 161.616 306.108 155.099C306.108 148.583 300.825 143.3 294.308 143.3C287.792 143.3 282.509 148.583 282.509 155.099C282.509 161.616 287.792 166.899 294.308 166.899Z" fill="#FDC2CC"/>
<path opacity="0.1" d="M302.709 166.36C302.709 166.36 304.676 166.539 308.609 171.9C312.542 177.261 321.122 177.98 321.122 177.98C321.122 177.98 324.342 176.547 327.916 192.639C331.49 208.731 332.563 219.457 330.776 221.244C328.989 223.031 321.836 225.541 318.244 225.541C318.244 225.541 317.171 248.067 318.958 252C320.745 255.933 318.599 258.439 318.599 258.439L302.884 257.366C302.884 257.366 297.519 250.572 296.446 238.773C295.373 226.974 291.799 193.358 293.586 189.424C295.373 185.491 303.239 175.479 302.884 174.406C302.53 173.333 302.709 166.36 302.709 166.36Z" fill="black"/>
<path d="M302.75 166.252C302.75 166.252 305.394 166.18 309.327 171.546C313.26 176.911 321.836 177.625 321.836 177.625C321.836 177.625 325.055 176.193 328.629 192.285C332.203 208.377 333.276 219.103 331.489 220.89C329.702 222.677 322.55 225.182 318.976 225.182C318.976 225.182 317.903 247.708 319.69 251.641C321.477 255.574 319.331 258.08 319.331 258.08L303.616 257.007C303.616 257.007 298.251 250.213 297.178 238.414C296.105 226.614 292.522 193.003 294.309 189.088C296.096 185.173 303.962 175.142 303.607 174.069C303.253 172.996 302.75 166.252 302.75 166.252Z" fill="#D6DBE6"/>
<path opacity="0.1" d="M261.222 255.269C262.932 253.962 266.161 251.928 269.133 252.377L268.612 250.218C268.612 250.218 264.032 248.785 262.416 250.218C261.819 250.739 261.41 252.786 261.222 255.269Z" fill="black"/>
<path opacity="0.1" d="M287.713 168.506C287.713 168.506 278.594 174.406 277.521 176.911C276.448 179.416 272.515 181.203 272.515 181.203C272.515 181.203 265.007 185.137 265.007 199.082L261.074 218.748L278.953 243.779C278.953 243.779 281.099 218.748 282.172 212.669C283.245 206.589 284.673 195.158 284.673 195.158C284.673 195.158 290.039 188.365 289.32 186.578C288.602 184.791 287.713 168.506 287.713 168.506Z" fill="black"/>
<path d="M287.713 168.398C287.713 168.398 278.204 173.692 277.135 176.193C276.066 178.694 272.129 180.485 272.129 180.485C272.129 180.485 264.622 184.418 264.622 198.364L260.689 218.03L259.975 255.574C259.975 255.574 266.413 249.495 271.06 252.355C275.707 255.215 278.567 243.056 278.567 243.056C278.567 243.056 280.713 218.025 281.787 211.946C282.86 205.867 284.287 194.435 284.287 194.435C284.287 194.435 289.653 187.642 288.934 185.855C288.216 184.068 287.713 168.398 287.713 168.398Z" fill="#D6DBE6"/>
<path opacity="0.1" d="M283.951 140.745C284.556 139.975 285.256 139.284 286.034 138.689C287.264 137.665 288.624 136.596 290.151 136.686C291.015 136.801 291.844 137.098 292.585 137.557C296.386 139.56 300.177 141.583 303.958 143.627C305.354 144.382 306.795 145.181 307.769 146.537C308.744 147.893 309.139 149.635 309.413 151.341C309.642 152.497 309.696 153.68 309.574 154.852C309.463 156.001 308.905 157.06 308.021 157.802C307.002 158.543 305.605 158.547 304.752 159.517C304.258 160.078 304.043 160.864 303.693 161.547C303.342 162.229 302.736 162.894 302.045 162.772C301.353 162.651 300.936 161.919 300.837 161.179C300.793 160.428 300.837 159.674 300.967 158.934C301.102 157.587 300.931 156.159 300.15 155.158C299.611 154.475 298.839 154.062 298.318 153.362C297.07 151.673 297.64 148.872 296.271 147.287C295.873 146.872 295.373 146.571 294.821 146.413C294.268 146.256 293.684 146.247 293.128 146.389C292.019 146.622 291.004 147.224 289.985 147.736C288.608 148.43 287.166 148.987 285.679 149.397C284.431 149.738 282.985 150.555 282.559 148.894C281.908 146.456 282.514 142.725 283.951 140.745Z" fill="black"/>
<path d="M284.309 140.39C284.914 139.62 285.614 138.929 286.392 138.334C287.622 137.31 288.983 136.242 290.509 136.331C291.373 136.446 292.203 136.743 292.943 137.203C296.741 139.205 299.898 137.31 304.316 143.273C305.259 144.548 307.154 144.826 308.128 146.182C309.102 147.538 309.497 149.28 309.771 150.987C310 152.142 310.055 153.326 309.933 154.498C309.821 155.646 309.264 156.706 308.379 157.447C307.36 158.188 305.964 158.193 305.111 159.163C304.617 159.724 304.401 160.51 304.051 161.192C303.701 161.875 303.095 162.539 302.403 162.418C301.712 162.297 301.294 161.565 301.195 160.824C301.151 160.073 301.195 159.32 301.326 158.579C301.46 157.232 301.29 155.804 300.509 154.803C299.97 154.12 299.197 153.707 298.677 153.007C297.428 151.319 297.999 148.517 296.629 146.932C296.232 146.518 295.731 146.216 295.179 146.059C294.627 145.901 294.043 145.892 293.486 146.034C292.377 146.268 291.363 146.869 290.343 147.381C288.966 148.076 287.524 148.632 286.038 149.042C284.789 149.384 283.344 150.201 282.917 148.54C282.262 146.101 282.872 142.366 284.309 140.39Z" fill="#865A61"/>
<path opacity="0.1" d="M316.538 194.965C316.538 194.965 321.306 207.124 317.728 212.13L309.861 210.334C309.861 210.334 317.014 212.48 315.941 208.188C314.868 203.896 316.538 194.965 316.538 194.965Z" fill="black"/>
<path opacity="0.1" d="M319.142 225.007C319.142 225.007 308.77 225.721 305.91 223.575C309.676 226.45 314.124 228.298 318.819 228.94L319.142 225.007Z" fill="black"/>
<path opacity="0.1" d="M274.463 202.108C274.463 202.108 269.098 218.559 269.457 221.06C269.816 223.561 270.53 251.098 270.53 251.098L271.603 250.739L271.244 220.701L274.463 202.108Z" fill="black"/>
<path d="M320.404 222.214L197.83 123.436C197.117 122.723 196.27 122.158 195.337 121.773C194.405 121.388 193.406 121.19 192.397 121.192H187.189C197.597 107.854 202.526 91.0482 200.97 74.2017C199.415 57.3553 191.492 41.7364 178.818 30.5298C166.144 19.3232 149.672 13.3729 132.762 13.892C115.852 14.4112 99.7765 21.3607 87.8135 33.3237C75.8506 45.2866 68.9011 61.362 68.3819 78.2722C67.8628 95.1824 73.8131 111.654 85.0197 124.328C96.2263 137.002 111.845 144.925 128.692 146.48C145.538 148.036 162.344 143.107 175.681 132.699V137.903C175.68 138.912 175.877 139.911 176.263 140.843C176.648 141.775 177.213 142.622 177.926 143.336L300.501 242.114C301.21 242.829 302.054 243.397 302.985 243.784C303.915 244.172 304.912 244.371 305.92 244.371C306.928 244.371 307.925 244.172 308.855 243.784C309.786 243.397 310.63 242.829 311.339 242.114L320.373 233.089C321.814 231.648 322.627 229.696 322.633 227.658C322.639 225.62 321.837 223.663 320.404 222.214ZM134.76 121.192C126.667 121.192 118.755 118.792 112.026 114.295C105.297 109.799 100.052 103.408 96.9544 95.9303C93.8572 88.453 93.0468 80.2251 94.6257 72.2873C96.2047 64.3494 100.102 57.0579 105.825 51.335C111.548 45.6121 118.839 41.7148 126.777 40.1359C134.715 38.5569 142.943 39.3673 150.42 42.4645C157.898 45.5617 164.288 50.8066 168.785 57.5361C173.281 64.2655 175.681 72.1771 175.681 80.2705C175.686 85.6459 174.63 90.9694 172.575 95.9366C170.52 100.904 167.506 105.417 163.706 109.218C159.905 113.02 155.392 116.035 150.426 118.091C145.459 120.147 140.136 121.203 134.76 121.2V121.192Z" fill="url(#paint3_linear)"/>
<path d="M321.302 221.316L198.728 122.539C198.014 121.825 197.167 121.26 196.235 120.875C195.303 120.49 194.303 120.292 193.295 120.294H188.086C198.494 106.956 203.423 90.1503 201.868 73.3038C200.312 56.4573 192.39 40.8384 179.715 29.6319C167.041 18.4253 150.57 12.4749 133.66 12.9941C116.749 13.5132 100.674 20.4628 88.711 32.4257C76.7481 44.3887 69.7985 60.4641 69.2794 77.3743C68.7602 94.2845 74.7106 110.756 85.9172 123.43C97.1237 136.104 112.743 144.027 129.589 145.582C146.436 147.138 163.241 142.209 176.579 131.801V137.005C176.577 138.014 176.775 139.013 177.16 139.945C177.545 140.877 178.111 141.724 178.824 142.438L301.398 241.216C302.108 241.931 302.952 242.499 303.882 242.886C304.812 243.274 305.81 243.473 306.817 243.473C307.825 243.473 308.823 243.274 309.753 242.886C310.683 242.499 311.527 241.931 312.237 241.216L321.27 232.191C322.712 230.75 323.524 228.798 323.53 226.76C323.536 224.722 322.735 222.765 321.302 221.316ZM135.658 120.294C127.564 120.294 119.653 117.894 112.923 113.397C106.194 108.901 100.949 102.51 97.8518 95.0324C94.7546 87.555 93.9442 79.3272 95.5232 71.3893C97.1021 63.4514 100.999 56.16 106.722 50.4371C112.445 44.7142 119.737 40.8169 127.675 39.2379C135.612 37.659 143.84 38.4693 151.318 41.5665C158.795 44.6638 165.186 49.9087 169.682 56.6381C174.179 63.3675 176.579 71.2792 176.579 79.3726C176.583 84.748 175.527 90.0715 173.473 95.0386C171.418 100.006 168.404 104.519 164.603 108.32C160.803 112.122 156.29 115.137 151.323 117.193C146.357 119.249 141.033 120.305 135.658 120.303V120.294Z" fill="#93C0DD"/>
<path d="M312.187 212.31C312.187 212.31 294.294 191.791 296.809 205.871C298.605 215.883 305.389 221.249 308.608 222.322C311.827 223.395 312.187 212.31 312.187 212.31Z" fill="#FDC2CC"/>
<path d="M316.48 193.358C316.48 193.358 316.839 206.589 318.626 208.376C320.413 210.163 317.553 212.31 317.553 212.31L310.401 210.514C310.401 210.514 312.197 222.313 304.681 220.885C304.681 220.885 309.687 225.532 314.693 226.251C319.699 226.969 319.34 225.178 319.34 225.178L326.847 216.238L316.48 193.358Z" fill="#D6DBE6"/>
<path d="M318.46 225.371L325.716 223.777L324.746 220.432L320.256 218.636L314.419 221.33L318.46 225.371Z" fill="#D6DBE6"/>
<path d="M140.135 96.3308L149.793 88.8821C149.793 88.8821 143.323 90.2695 143.507 79.9292C143.505 79.8948 143.505 79.8603 143.507 79.826C143.507 78.8921 143.597 77.8684 143.731 76.7414C145.388 62.9439 132.143 75.0846 132.143 75.0846C132.257 76.3062 132.257 77.5358 132.143 78.7574C132.143 78.7888 132.143 78.8247 132.143 78.8561C131.881 82.2563 130.944 85.57 129.386 88.6037C125.79 95.5002 140.135 96.3308 140.135 96.3308Z" fill="#FDC2CC"/>
<path opacity="0.1" d="M133.377 76.8402C135.015 78.4341 136.017 81.3301 138.482 81.3301C140.265 81.334 142.01 80.8107 143.497 79.8259C143.497 78.892 143.587 77.8684 143.721 76.7414C145.378 62.9439 132.133 75.0846 132.133 75.0846C132.133 75.0846 133.552 74.5952 133.377 76.8402Z" fill="black"/>
<path d="M138.481 80.8811C143.51 80.8811 147.587 76.8044 147.587 71.7756C147.587 66.7467 143.51 62.67 138.481 62.67C133.453 62.67 129.376 66.7467 129.376 71.7756C129.376 76.8044 133.453 80.8811 138.481 80.8811Z" fill="#FDC2CC"/>
<path opacity="0.1" d="M147.215 60.1153C146.693 59.4553 146.089 58.8639 145.419 58.3552C144.368 57.4797 143.201 56.5593 141.894 56.6401C141.155 56.7385 140.445 56.9925 139.811 57.3854C136.556 59.1006 133.857 57.4797 130.072 62.5802C129.264 63.6713 127.643 63.9272 126.808 65.0721C125.973 66.2171 125.636 67.7212 125.398 69.1849C125.202 70.175 125.155 71.1891 125.259 72.1931C125.359 73.1786 125.843 74.0851 126.606 74.7164C127.477 75.3495 128.676 75.354 129.408 76.1846C129.776 76.7257 130.077 77.3091 130.306 77.9222C130.602 78.5059 131.123 79.0582 131.716 78.9729C132.308 78.8876 132.663 78.2455 132.748 77.6259C132.785 76.9846 132.748 76.3413 132.636 75.7087C132.524 74.5728 132.668 73.3336 133.337 72.476C133.786 71.8878 134.459 71.5376 134.904 70.9404C135.972 69.4992 135.487 67.0791 136.659 65.7411C137.002 65.3892 137.432 65.1345 137.905 65.0027C138.378 64.871 138.878 64.8671 139.353 64.9913C140.297 65.2607 141.202 65.65 142.047 66.1497C143.226 66.7447 144.46 67.2215 145.733 67.573C146.802 67.8649 148.041 68.5653 148.405 67.124C148.975 65.0048 148.441 61.808 147.215 60.1153Z" fill="black"/>
<path d="M147.215 59.6663C146.693 59.0063 146.089 58.415 145.419 57.9063C144.368 57.0307 143.201 56.1103 141.894 56.1911C141.155 56.2895 140.445 56.5435 139.811 56.9364C136.556 58.6516 133.857 57.0307 130.072 62.1313C129.264 63.2223 127.643 63.4782 126.808 64.6232C125.973 65.7681 125.636 67.2722 125.398 68.7359C125.202 69.726 125.155 70.7401 125.259 71.7441C125.359 72.7296 125.843 73.6362 126.606 74.2675C127.477 74.9005 128.676 74.905 129.408 75.7357C129.776 76.2767 130.077 76.8601 130.306 77.4733C130.602 78.0569 131.123 78.6092 131.716 78.5239C132.308 78.4386 132.663 77.7965 132.748 77.1769C132.785 76.5357 132.748 75.8923 132.636 75.2597C132.524 74.1238 132.668 72.8846 133.337 72.027C133.786 71.4388 134.459 71.0886 134.904 70.4915C135.972 69.0502 135.487 66.6301 136.659 65.2922C137.002 64.9403 137.432 64.6855 137.905 64.5538C138.378 64.422 138.878 64.4181 139.353 64.5423C140.297 64.8117 141.202 65.201 142.047 65.7007C143.226 66.2958 144.46 66.7725 145.733 67.124C146.802 67.4159 148.041 68.1163 148.405 66.675C148.975 64.5558 148.441 61.359 147.215 59.6663Z" fill="#865A61"/>
<path opacity="0.1" d="M129.377 101.122L129.197 108.014C131.806 108.723 134.499 109.081 137.203 109.078C137.652 109.078 138.123 109.078 138.581 109.046C140.979 108.943 143.356 108.554 145.662 107.888H145.706C146.133 107.762 146.555 107.632 146.973 107.488H147.017L147.399 107.354C148.852 106.842 150.264 106.217 151.62 105.486L151.705 105.441C151.853 105.36 152.001 105.279 152.154 105.194L151.458 95.9043L152.567 89.5331L146.497 85.3979C146.156 85.89 145.774 86.3526 145.356 86.7808C144.757 87.4067 144.055 87.926 143.282 88.3164C138.927 90.4626 133.97 87.0502 131.505 84.94L130.944 84.4416C130.306 83.8624 129.942 83.4673 129.942 83.4673L126.907 88.1547L129.377 101.122Z" fill="black"/>
<path d="M129.377 101.571L129.197 108.463C131.806 109.172 134.499 109.53 137.203 109.527C137.652 109.527 138.123 109.527 138.581 109.495C140.979 109.392 143.356 109.003 145.662 108.337H145.706C146.133 108.211 146.555 108.081 146.973 107.937H147.017L147.399 107.803C148.852 107.291 150.264 106.666 151.62 105.935L151.705 105.89C151.853 105.809 152.001 105.728 152.154 105.643L151.458 96.3533L152.567 89.9821L146.497 85.8469C146.156 86.339 145.774 86.8016 145.356 87.2298C144.757 87.8557 144.055 88.375 143.282 88.7654C138.927 90.9115 133.97 87.4992 131.505 85.3889L130.944 84.8906C130.306 84.3114 129.942 83.9163 129.942 83.9163L126.907 88.6037L129.377 101.571Z" fill="#53526B"/>
<path d="M146.205 102.123C146.205 102.123 146.537 104.767 146.973 107.928H147.018L147.399 107.794C148.853 107.282 150.264 106.657 151.62 105.926L151.705 105.881C151.853 105.8 152.001 105.719 152.154 105.634C154.144 104.517 156.003 103.179 157.695 101.647L157.843 101.508C158.77 100.668 159.642 99.7679 160.451 98.8137L160.546 98.7015C158.943 93.1385 155.607 91.3874 155.607 91.3874C155.607 91.3874 152.572 90.0045 151.741 88.0739C150.91 86.1432 143.578 82.0619 143.578 82.0619V82.0933C143.578 82.439 143.462 85.6044 143.286 88.7878C143.174 90.8576 143.035 92.9364 142.873 94.2565C142.838 94.6853 142.76 95.1095 142.64 95.5226C142.07 96.883 146.205 102.123 146.205 102.123Z" fill="#555388"/>
</g>
<defs>
<linearGradient id="paint0_linear" x1="230.907" y1="356.768" x2="230.907" y2="17.6407" gradientUnits="userSpaceOnUse">
<stop stop-color="#808080" stop-opacity="0.25"/>
<stop offset="0.54" stop-color="#808080" stop-opacity="0.12"/>
<stop offset="1" stop-color="#808080" stop-opacity="0.1"/>
</linearGradient>
<linearGradient id="paint1_linear" x1="16793.7" y1="27815" x2="16793.7" y2="21239" gradientUnits="userSpaceOnUse">
<stop stop-color="#808080" stop-opacity="0.25"/>
<stop offset="0.54" stop-color="#808080" stop-opacity="0.12"/>
<stop offset="1" stop-color="#808080" stop-opacity="0.1"/>
</linearGradient>
<linearGradient id="paint2_linear" x1="-78510" y1="211771" x2="-78510" y2="79376.7" gradientUnits="userSpaceOnUse">
<stop stop-color="#808080" stop-opacity="0.25"/>
<stop offset="0.54" stop-color="#808080" stop-opacity="0.12"/>
<stop offset="1" stop-color="#808080" stop-opacity="0.1"/>
</linearGradient>
<linearGradient id="paint3_linear" x1="121745" y1="130978" x2="121745" y2="12592.8" gradientUnits="userSpaceOnUse">
<stop stop-color="#808080" stop-opacity="0.25"/>
<stop offset="0.54" stop-color="#808080" stop-opacity="0.12"/>
<stop offset="1" stop-color="#808080" stop-opacity="0.1"/>
</linearGradient>
<clipPath id="clip0">
<rect width="500" height="379.011" fill="white"/>
</clipPath>
</defs>
</svg>
